<svg width="364" height="110" viewBox="0 0 364 110" fill="none" xmlns="http://www.w3.org/2000/svg">
<rect x="2" y="2" width="360" height="106" rx="6" fill="white"/>
<rect x="2" y="2" width="360" height="106" rx="6" stroke="#999999" stroke-width="4"/>
<path fill-rule="evenodd" clip-rule="evenodd" d="M58.9998 29.1667C44.7398 29.1667 33.1665 40.7401 33.1665 55.0001C33.1665 69.2601 44.7398 80.8334 58.9998 80.8334C73.2598 80.8334 84.8332 69.2601 84.8332 55.0001C84.8332 40.7401 73.2598 29.1667 58.9998 29.1667ZM56.4165 67.9167V62.7501H61.5832V67.9167H56.4165ZM56.4165 42.0834V57.5834H61.5832V42.0834H56.4165Z" fill="#999999"/>
<path d="M107.992 47.51V41.678C106.984 41.678 105.994 41.66 105.13 41.624C103.654 41.57 102.88 40.832 102.844 39.32C102.844 38.834 102.826 38.294 102.826 37.736C102.826 37.196 102.844 36.656 102.844 36.17C102.862 35.594 103.294 35.324 103.744 35.324C104.194 35.324 104.662 35.612 104.662 36.134C104.662 36.152 104.662 36.152 104.662 36.17C104.644 36.692 104.626 37.268 104.626 37.826C104.626 38.204 104.644 38.582 104.644 38.888C104.68 40.076 105.022 40.094 107.992 40.094L107.974 34.712C107.974 34.19 108.442 33.92 108.892 33.92C109.378 33.92 109.846 34.19 109.846 34.712L109.828 40.094C110.62 40.076 111.412 40.058 112.15 40.04C113.284 40.004 113.338 39.302 113.338 37.952C113.338 37.358 113.302 36.746 113.284 36.224C113.284 36.206 113.284 36.206 113.284 36.188C113.284 35.666 113.716 35.396 114.166 35.396C114.634 35.396 115.102 35.666 115.12 36.224C115.138 36.674 115.156 37.196 115.156 37.718C115.156 38.24 115.138 38.78 115.12 39.284C115.066 40.832 114.004 41.57 112.672 41.624C111.772 41.66 110.8 41.678 109.828 41.678V47.51C110.944 47.51 112.024 47.492 112.834 47.456C113.896 47.402 114.022 46.808 114.022 45.278C114.022 44.594 113.986 43.874 113.968 43.352C113.968 43.334 113.968 43.334 113.968 43.316C113.968 42.794 114.4 42.524 114.85 42.524C115.318 42.524 115.786 42.794 115.804 43.352C115.822 43.802 115.84 44.396 115.84 44.99C115.84 45.584 115.822 46.196 115.804 46.7C115.75 48.248 114.688 49.04 113.356 49.076C112.114 49.13 110.44 49.148 108.802 49.148C107.164 49.148 105.562 49.13 104.446 49.076C102.97 49.022 102.196 48.248 102.16 46.736C102.16 46.25 102.142 45.638 102.142 45.008C102.142 44.396 102.16 43.784 102.16 43.298C102.178 42.722 102.61 42.452 103.06 42.452C103.51 42.452 103.978 42.74 103.978 43.262C103.978 43.28 103.978 43.28 103.978 43.298C103.96 43.82 103.942 44.504 103.942 45.134C103.942 46.988 103.96 47.402 105.04 47.456C105.85 47.492 106.894 47.51 107.992 47.51ZM136.198 43.046H132.616C132.742 43.694 132.94 44.306 133.21 44.864C133.858 44.486 134.47 44.018 135.1 43.514C135.244 43.406 135.388 43.352 135.532 43.352C135.964 43.352 136.36 43.784 136.36 44.234C136.36 44.486 136.342 44.972 133.948 46.016C134.56 46.754 135.37 47.384 136.486 47.924C136.882 48.122 137.062 48.428 137.062 48.734C137.062 49.166 136.72 49.562 136.18 49.562C135.19 49.562 131.86 47.33 131.176 43.046H129.862V46.952C130.42 46.736 130.924 46.52 131.338 46.304C131.428 46.25 131.536 46.232 131.626 46.232C131.986 46.232 132.292 46.592 132.292 46.988C132.292 47.222 132.166 47.492 131.842 47.654C129.772 48.734 127.036 49.49 126.712 49.49C126.226 49.49 125.974 49.094 125.974 48.698C125.974 48.356 126.172 48.014 126.586 47.924C127.162 47.798 127.738 47.654 128.296 47.492V43.046H127.432C126.91 43.046 126.658 42.668 126.658 42.308C126.658 41.93 126.91 41.552 127.432 41.552H128.278C128.278 41.102 128.278 40.58 128.278 40.058C128.278 38.78 128.278 37.394 128.296 36.368C128.314 34.478 129.376 34.46 131.914 34.46C133.012 34.46 134.2 34.478 135.046 34.478C135.604 34.478 135.874 34.838 135.874 35.216C135.874 35.612 135.586 36.008 135.046 36.008H135.028C134.38 35.99 133.57 35.99 132.778 35.99C132.004 35.99 131.23 35.99 130.636 36.008C130.078 36.026 129.862 36.278 129.844 36.8V36.944H134.47C134.92 36.944 135.154 37.268 135.154 37.592C135.154 37.934 134.92 38.258 134.47 38.258H129.826C129.826 38.582 129.808 38.924 129.808 39.248H134.47C134.92 39.248 135.154 39.572 135.154 39.896C135.154 40.238 134.92 40.562 134.47 40.562H129.808C129.808 40.904 129.826 41.246 129.826 41.552H136.198C136.684 41.552 136.918 41.93 136.918 42.29C136.918 42.668 136.684 43.046 136.198 43.046ZM124.606 35.936H122.464C121.96 35.936 121.69 35.558 121.69 35.18C121.69 34.784 121.96 34.406 122.5 34.388C122.662 34.388 122.824 34.388 123.004 34.388C123.688 34.388 124.408 34.406 124.984 34.406C126.136 34.406 126.748 35.036 126.784 36.134C126.802 36.386 126.802 36.746 126.802 37.088C126.802 38.636 126.784 39.626 124.984 39.626C124.696 39.626 124.102 39.608 123.94 39.608C123.58 39.608 123.436 39.698 123.346 39.986C123.292 40.148 123.166 40.994 123.166 41.228C123.166 41.516 123.328 41.588 123.49 41.588C124.012 41.57 124.552 41.57 124.948 41.57C126.244 41.57 126.73 42.326 126.73 43.514C126.73 48.14 124.93 49.328 123.094 49.328C122.644 49.328 122.194 49.256 121.708 49.13C121.294 49.004 121.078 48.626 121.078 48.248C121.078 47.816 121.348 47.42 121.852 47.42C121.978 47.42 122.122 47.438 122.266 47.492C122.554 47.582 122.824 47.636 123.094 47.636C123.76 47.636 124.318 47.312 124.624 46.574C124.966 45.782 125.092 44.414 125.092 43.676C125.092 43.1 125.002 43.028 124.372 43.028C123.94 43.028 123.346 43.064 122.95 43.064C121.816 43.064 121.456 42.614 121.456 41.876C121.456 41.372 121.708 40.058 121.852 39.446C122.086 38.438 122.5 38.15 123.454 38.15C123.49 38.15 123.508 38.15 123.544 38.15C123.796 38.15 124.354 38.186 124.606 38.186C125.128 38.186 125.2 37.97 125.2 37.16C125.2 36.062 125.146 35.936 124.606 35.936ZM153.73 38.348C152.2 38.366 150.4 38.366 148.618 38.366C146.854 38.366 145.108 38.366 143.686 38.348C141.85 38.33 141.724 37.7 141.724 36.476C141.724 35.306 141.76 34.424 143.614 34.406C145.018 34.388 146.8 34.388 148.618 34.388C150.418 34.388 152.254 34.388 153.73 34.406C155.494 34.442 155.566 35.306 155.566 36.206C155.566 37.448 155.566 38.33 153.73 38.348ZM151.048 46.718C153.136 47.762 154.414 47.96 155.296 48.014C155.854 48.05 156.106 48.428 156.106 48.842C156.106 49.328 155.746 49.85 155.098 49.85C154.36 49.85 152.02 49.202 150.274 48.194C149.986 48.032 149.86 47.78 149.86 47.528C149.86 47.204 150.076 46.862 150.382 46.718C146.584 46.718 146.584 46.718 146.584 46.718C146.98 46.826 147.268 47.222 147.268 47.618C147.268 47.87 147.16 48.104 146.89 48.266C145.18 49.31 142.768 49.94 142.012 49.94C141.382 49.94 141.058 49.49 141.058 49.058C141.058 48.644 141.328 48.23 141.922 48.194C143.164 48.122 144.712 47.654 145.972 46.826C146.062 46.772 146.152 46.718 146.242 46.7C145.9 46.7 145.576 46.682 145.252 46.682C143.974 46.646 143.362 46.016 143.326 45.17C143.29 44.504 143.272 43.676 143.272 42.866C143.272 42.038 143.29 41.228 143.326 40.616C143.362 39.914 143.83 39.158 145.216 39.14C146.152 39.122 147.196 39.122 148.258 39.122C149.572 39.122 150.922 39.122 152.2 39.158C153.262 39.176 153.946 39.842 153.982 40.508C154.018 41.138 154.036 41.84 154.036 42.56C154.036 43.46 154.018 44.378 153.982 45.152C153.964 45.962 153.262 46.682 152.11 46.7C151.768 46.7 151.408 46.718 151.048 46.718ZM151.228 37.124H153.208C153.784 37.124 153.874 36.854 153.874 36.458C153.874 35.72 153.676 35.684 153.172 35.684C152.578 35.684 151.912 35.666 151.228 35.666V37.124ZM149.698 37.124V35.666H147.412V37.124H149.698ZM145.864 37.124V35.666L144.118 35.684C143.524 35.684 143.398 35.864 143.398 36.44C143.398 36.89 143.47 37.124 144.136 37.124H145.864ZM152.344 41.318V41.03C152.326 40.616 152.128 40.382 151.534 40.364C150.508 40.346 149.194 40.328 147.952 40.328C147.178 40.328 146.422 40.328 145.774 40.346C145.216 40.364 144.928 40.706 144.91 41.03V41.318H152.344ZM152.38 43.37V42.416H144.874V43.37H152.38ZM152.362 44.468H144.91V44.756C144.928 45.26 145.27 45.422 145.792 45.44C146.782 45.476 147.952 45.494 149.122 45.494C149.968 45.494 150.814 45.476 151.552 45.458C152.02 45.44 152.308 45.242 152.344 44.774C152.344 44.684 152.362 44.576 152.362 44.468ZM166.042 48.878V45.8C163.36 46.826 161.164 47.348 161.038 47.348C160.588 47.348 160.3 46.898 160.3 46.484C160.3 46.142 160.48 45.836 160.858 45.746C161.236 45.674 161.632 45.584 162.01 45.494V36.08H161.29C160.786 36.08 160.516 35.72 160.516 35.36C160.516 35 160.786 34.64 161.29 34.64H168.58C169.102 34.64 169.354 35 169.354 35.36C169.354 35.72 169.102 36.08 168.58 36.08H167.698V47.942C167.752 47.87 167.824 47.816 167.914 47.762C169.174 47.024 170.2 46.124 171.01 45.116C169.57 42.758 169.066 40.364 169.066 39.824C169.066 39.32 169.516 39.032 169.93 39.032C170.254 39.032 170.56 39.194 170.632 39.572C170.902 41.066 171.316 42.434 171.982 43.64C173.188 41.462 173.476 39.266 173.476 38.906C173.476 38.546 173.422 38.546 171.352 38.546C170.506 38.546 169.588 38.546 168.814 38.582C168.796 38.582 168.796 38.582 168.778 38.582C168.256 38.582 167.986 38.204 167.986 37.808C167.986 37.412 168.274 36.998 168.814 36.998C169.462 36.98 170.2 36.98 170.92 36.98C171.91 36.98 172.864 36.98 173.512 36.998C174.682 37.016 175.258 37.538 175.258 38.582C175.258 39.356 174.808 42.362 173.008 45.17C173.8 46.106 174.808 46.898 176.032 47.474C176.41 47.654 176.554 47.942 176.554 48.248C176.554 48.752 176.158 49.238 175.582 49.238C175.168 49.238 173.602 48.5 172 46.538C170.74 48.032 169.066 49.346 168.472 49.346C168.148 49.346 167.86 49.166 167.698 48.932C167.68 49.454 167.266 49.706 166.87 49.706C166.456 49.706 166.042 49.436 166.042 48.878ZM166.042 38.042L166.06 36.08H163.648V38.042H166.042ZM166.042 41.246V39.41H163.648V41.246H166.042ZM166.042 44.252V42.614H163.648V45.044C164.476 44.792 165.268 44.522 166.042 44.252ZM194.932 45.08H194.914L190.378 44.99H189.838C191.71 46.322 193.6 46.97 195.652 47.654C196.048 47.78 196.21 48.068 196.21 48.356C196.21 48.824 195.814 49.346 195.256 49.346C194.896 49.346 191.764 48.176 189.028 46.052L189.064 49.148V49.166C189.064 49.616 188.632 49.85 188.218 49.85C187.786 49.85 187.372 49.634 187.372 49.166V49.148L187.408 46.07C185.176 47.87 181.756 49.418 181.18 49.418C180.64 49.418 180.262 49.022 180.262 48.608C180.262 48.32 180.46 48.05 180.892 47.888C183.088 47.132 184.762 46.34 186.49 44.99H185.896L181.522 45.08H181.504C181.054 45.08 180.838 44.756 180.838 44.414C180.838 44.072 181.072 43.73 181.522 43.73L187.408 43.766L187.39 42.974L183.322 42.992C182.926 42.992 182.71 42.686 182.71 42.38C182.71 42.092 182.926 41.786 183.322 41.786L187.372 41.804V41.03L182.404 41.048C181.954 41.048 181.72 40.724 181.72 40.382C181.72 40.058 181.954 39.734 182.404 39.734L185.554 39.752C185.446 39.482 185.32 39.212 185.194 39.014C185.122 38.924 185.104 38.834 185.104 38.744C185.104 38.528 185.302 38.348 185.554 38.276L181.432 38.294C180.928 38.294 180.676 37.916 180.676 37.538C180.676 37.16 180.928 36.8 181.414 36.8H181.432L183.79 36.836C183.538 36.422 183.196 36.044 182.854 35.684C182.746 35.558 182.692 35.432 182.692 35.306C182.692 34.928 183.16 34.586 183.592 34.586C183.736 34.586 183.88 34.604 184.006 34.694C184.33 34.91 185.284 36.134 185.464 36.854L186.094 36.872L186.076 34.478V34.46C186.076 33.956 186.472 33.722 186.868 33.722C187.264 33.722 187.678 33.974 187.678 34.478V36.872H188.722V34.478C188.722 33.974 189.118 33.722 189.532 33.722C189.928 33.722 190.324 33.974 190.324 34.46V34.478L190.288 36.872L190.9 36.854C191.26 36.314 191.584 35.594 191.8 35.054C191.944 34.676 192.25 34.514 192.556 34.514C193.024 34.514 193.492 34.874 193.492 35.324C193.492 35.378 193.492 35.738 192.628 36.836L195.076 36.8H195.094C195.58 36.8 195.814 37.16 195.814 37.538C195.814 37.916 195.58 38.294 195.076 38.294L190.738 38.276C190.99 38.402 191.188 38.6 191.188 38.87C191.188 39.068 190.918 39.644 190.864 39.752L193.996 39.734C194.446 39.734 194.662 40.058 194.662 40.4C194.662 40.724 194.446 41.048 193.996 41.048L189.064 41.03V41.804L193.078 41.786C193.492 41.786 193.69 42.092 193.69 42.398C193.69 42.686 193.492 42.992 193.078 42.992L189.046 42.974L189.028 43.766L194.914 43.73C195.364 43.73 195.598 44.072 195.58 44.414C195.598 44.756 195.364 45.08 194.932 45.08ZM189.784 38.276H186.31C186.49 38.366 187.048 38.798 187.228 39.698L187.246 39.752H189.226C189.37 39.428 189.55 38.942 189.604 38.582C189.622 38.438 189.694 38.348 189.784 38.276ZM214.696 40.778H214.678L209.926 40.724C209.332 41.21 208.702 41.678 208.072 42.11C208.468 42.11 208.882 42.092 209.296 42.092C210.034 42.092 210.754 42.11 211.366 42.146C212.41 42.2 213.13 42.902 213.184 43.694C213.22 44.27 213.238 44.99 213.238 45.71C213.238 46.34 213.22 46.952 213.184 47.492C213.112 48.446 212.428 49.22 211.276 49.31C210.592 49.364 209.872 49.4 209.152 49.4C208.306 49.4 207.478 49.364 206.74 49.31C205.48 49.238 204.868 48.554 204.814 47.528C204.796 47.168 204.796 46.772 204.796 46.358C204.796 45.584 204.814 44.738 204.85 44.054C204.112 44.45 201.286 45.746 200.692 45.746C200.17 45.746 199.846 45.332 199.846 44.9C199.846 44.558 200.062 44.198 200.566 44.054C203.122 43.298 205.462 42.182 207.514 40.706L201.376 40.778H201.358C200.764 40.778 200.512 40.418 200.512 40.058C200.512 39.644 200.818 39.212 201.376 39.212L206.29 39.23L206.272 37.43H202.978C202.384 37.43 202.114 37.07 202.114 36.692C202.114 36.296 202.42 35.882 202.978 35.882L206.272 35.9V34.406C206.272 33.884 206.704 33.65 207.136 33.65C207.568 33.65 208.018 33.902 208.018 34.406L208 35.9L210.52 35.882C211.06 35.882 211.33 36.278 211.33 36.674C211.33 37.052 211.078 37.43 210.52 37.43H208V39.23H209.332C210.7 37.988 211.906 36.584 212.932 34.964C213.112 34.694 213.346 34.586 213.58 34.586C214.066 34.586 214.552 35.036 214.552 35.522C214.552 36.224 211.996 38.852 211.618 39.23L214.678 39.212C215.218 39.212 215.506 39.626 215.506 40.04C215.506 40.418 215.254 40.778 214.696 40.778ZM206.434 44.882H211.546C211.546 43.532 211.438 43.532 209.278 43.532C208.594 43.532 207.856 43.532 207.298 43.55C206.65 43.568 206.434 43.964 206.434 44.882ZM211.564 46.25H206.416C206.416 46.52 206.434 46.79 206.434 47.06C206.452 47.798 206.704 47.906 209.008 47.906C211.384 47.906 211.564 47.906 211.564 46.25ZM228.07 36.26L228.034 36.332C228.322 36.224 228.592 36.116 228.79 36.008C229.78 35.414 230.752 36.908 229.42 37.574C228.97 37.79 228.196 38.006 227.44 38.168C227.206 38.744 226.9 39.392 226.576 39.986C227.818 39.77 229.006 40.22 229.6 41.552C230.338 41.174 231.094 40.796 231.796 40.49C232.228 40.31 232.714 40.094 233.2 39.824C234.55 39.068 235.36 40.868 234.208 41.444C233.632 41.732 233.218 41.822 232.264 42.182C231.508 42.47 230.698 42.83 229.978 43.172C230.032 43.766 230.05 44.504 230.014 45.152C229.978 45.872 229.51 46.25 229.06 46.268C228.61 46.286 228.196 45.944 228.25 45.242C228.268 44.864 228.286 44.45 228.286 44.072C228.124 44.162 227.962 44.252 227.818 44.342C225.586 45.782 225.856 46.862 226.864 47.366C227.818 47.852 229.582 47.492 230.428 47.222C232.012 46.736 232.516 48.68 230.86 49.112C229.798 49.382 227.35 49.652 225.946 48.86C223.516 47.492 223.948 45.062 227.206 42.92C227.458 42.758 227.746 42.56 228.088 42.362C227.602 40.85 226.216 41.03 225.046 42.38C225.028 42.398 224.992 42.434 224.974 42.452C224.812 42.65 224.686 42.812 224.56 42.92C223.57 43.802 222.256 42.776 223.336 41.804C223.804 41.372 224.416 40.724 224.794 40.112C225.1 39.608 225.388 39.068 225.64 38.51C224.668 38.654 223.984 38.6 223.408 38.312C222.112 37.664 222.994 35.972 224.254 36.818C224.596 37.052 225.316 36.962 225.946 36.854C226.018 36.836 226.126 36.836 226.216 36.818C226.342 36.296 226.378 35.936 226.414 35.306C226.486 34.226 228.178 34.334 228.214 35.216C228.232 35.576 228.16 35.918 228.07 36.26ZM254.8 36.35H247.168C246.664 36.35 246.412 35.972 246.412 35.594C246.412 35.216 246.664 34.838 247.168 34.838H254.8C255.304 34.838 255.556 35.216 255.556 35.594C255.556 35.972 255.304 36.35 254.8 36.35ZM253.81 47.438V46.124H253V48.77C253 49.202 252.712 49.418 252.424 49.418C252.136 49.418 251.848 49.202 251.848 48.77V46.124H251.218V48.77C251.218 49.202 250.93 49.418 250.624 49.418C250.336 49.418 250.048 49.202 250.048 48.77V46.124H249.31C249.31 46.898 249.31 47.69 249.31 48.32C249.31 48.626 249.31 48.896 249.31 49.112V49.13C249.31 49.58 249.022 49.814 248.734 49.814C248.428 49.814 248.14 49.58 248.122 49.112C248.122 48.608 248.104 47.744 248.104 46.826C248.104 45.908 248.122 44.936 248.122 44.198C247.618 48.986 246.736 49.076 246.34 49.076C245.98 49.076 245.656 48.824 245.656 48.428C245.656 48.302 245.692 48.158 245.764 47.996C246.754 46.052 246.952 43.262 246.952 40.58C246.952 39.968 246.952 39.356 246.934 38.762C246.934 38.744 246.934 38.726 246.934 38.708C246.934 37.916 247.348 37.196 248.428 37.178C249.184 37.16 249.976 37.142 250.786 37.142C251.578 37.142 252.388 37.16 253.162 37.178C254.53 37.214 254.746 37.826 254.746 39.248C254.746 40.364 254.638 40.958 253.18 40.994C252.154 41.012 251.092 41.03 249.832 41.03C249.364 41.03 248.86 41.03 248.338 41.03C248.32 41.552 248.284 42.11 248.248 42.668C248.428 42.128 248.824 41.858 249.544 41.84C250.318 41.822 251.146 41.804 251.992 41.804C252.532 41.804 253.09 41.822 253.63 41.84C254.53 41.876 254.998 42.434 255.034 43.478C255.07 44.288 255.07 47.276 255.088 47.87C255.088 47.924 255.088 47.996 255.088 48.05C255.088 49.058 254.71 49.616 253.9 49.616C253.306 49.616 253.036 49.418 253.036 48.824C253.036 48.446 253.198 48.086 253.504 48.086C253.504 48.086 253.522 48.086 253.54 48.086C253.558 48.086 253.576 48.086 253.594 48.086C253.72 48.086 253.81 47.996 253.81 47.438ZM245.296 40.706H244.018V41.948H244.666C245.674 41.948 246.178 42.668 246.178 43.676C246.178 44.414 245.998 46.178 245.818 46.952C245.386 48.752 244.504 49.436 243.172 49.436C241.66 49.436 241.534 48.968 241.534 48.536C241.534 48.14 241.75 47.744 242.182 47.744C242.236 47.744 242.29 47.744 242.362 47.762C242.722 47.852 243.028 47.906 243.28 47.906C244.324 47.906 244.504 46.538 244.612 45.656C244.522 45.764 244.396 45.818 244.288 45.818C244.144 45.818 244 45.728 243.946 45.494C243.802 44.918 243.604 44.432 243.406 44.108C243.352 44.036 243.334 43.964 243.334 43.892C243.334 43.712 243.514 43.586 243.694 43.586C244.27 43.586 244.666 44.936 244.684 44.99C244.72 44.558 244.738 44.18 244.738 43.91C244.738 43.298 244.594 43.262 243.442 43.262C242.866 43.262 242.2 43.28 241.678 43.28C240.922 43.28 240.148 42.92 240.112 41.768C240.094 41.066 240.094 39.968 240.094 38.888C240.094 37.808 240.094 36.746 240.112 36.152C240.148 35.126 240.742 34.496 241.678 34.478C242.164 34.46 243.154 34.46 244.072 34.46C244.738 34.46 245.35 34.46 245.692 34.478C246.07 34.496 246.25 34.802 246.25 35.108C246.25 35.468 246.034 35.81 245.602 35.828H244.018V37.016H245.296C245.71 37.016 245.926 37.322 245.926 37.628C245.926 37.952 245.71 38.258 245.296 38.258H244.018V39.464H245.296C245.71 39.464 245.926 39.77 245.926 40.076C245.926 40.4 245.71 40.706 245.296 40.706ZM243.118 46.484C242.902 46.484 242.722 46.34 242.704 46.016C242.668 45.314 242.506 44.756 242.38 44.342C242.362 44.27 242.344 44.216 242.344 44.162C242.344 43.91 242.524 43.766 242.722 43.766C242.884 43.766 243.046 43.856 243.136 44.072C243.19 44.198 243.604 45.278 243.604 45.908C243.604 46.268 243.352 46.484 243.118 46.484ZM241.732 47.078C241.534 47.078 241.354 46.934 241.354 46.646C241.354 46.61 241.354 46.574 241.354 46.538C241.39 46.268 241.408 45.98 241.408 45.674C241.408 45.152 241.354 44.63 241.336 44.414C241.336 44.396 241.336 44.36 241.336 44.342C241.336 44.036 241.516 43.874 241.714 43.874C241.912 43.874 242.092 44.018 242.146 44.288C242.236 44.72 242.308 45.458 242.308 46.052C242.308 46.556 242.254 47.078 241.732 47.078ZM239.806 47.942C239.482 47.942 239.194 47.672 239.194 47.276C239.194 47.114 239.23 46.952 239.338 46.772C239.536 46.43 239.932 45.386 239.968 44.522C239.986 44.108 240.238 43.91 240.49 43.91C240.652 43.91 241.084 44 241.084 44.612C241.084 45.782 240.616 47.942 239.806 47.942ZM248.356 39.14V39.662C248.86 39.662 249.328 39.662 249.76 39.662C253.09 39.662 253.216 39.662 253.252 39.32C253.27 39.248 253.27 39.158 253.27 39.05C253.27 38.96 253.27 38.87 253.252 38.798C253.234 38.492 253.108 38.492 251.146 38.492C250.39 38.492 249.634 38.492 248.914 38.51C248.518 38.51 248.356 38.762 248.356 39.14ZM253 44.864H253.81C253.81 44.378 253.792 43.964 253.792 43.694C253.792 43.352 253.684 43.118 253.324 43.118L253 43.1V44.864ZM251.848 44.864V43.082H251.218V44.864H251.848ZM242.722 37.016V35.81C242.398 35.81 242.146 35.828 241.984 35.828C241.732 35.846 241.516 35.972 241.498 36.404V37.016H242.722ZM250.048 44.864V43.1L249.796 43.118C249.454 43.136 249.328 43.316 249.328 43.694C249.328 44 249.31 44.396 249.31 44.864H250.048ZM242.722 39.464V38.258H241.48V39.464H242.722ZM242.722 41.948V40.706H241.498V41.39C241.516 41.732 241.696 41.948 242.02 41.948C242.038 41.948 242.038 41.948 242.056 41.948H242.722ZM269.02 47.168C269.362 47.096 269.74 46.88 270.064 46.592C271.378 45.422 271.324 43.712 270.298 43.028C269.362 42.398 267.418 42.272 265.6 43.334C264.88 43.748 264.502 44.072 264.088 44.684C263.44 45.638 261.64 44.576 262.756 43.478C264.736 41.516 266.194 40.13 268.192 37.664C268.39 37.412 268.21 37.484 268.066 37.556C267.562 37.826 266.374 38.186 265.042 38.474C263.62 38.78 263.35 36.998 264.574 36.854C265.78 36.71 267.508 36.278 268.534 35.972C269.974 35.558 271.162 36.836 270.262 37.844C269.686 38.492 268.966 39.194 268.246 39.86C267.526 40.526 266.806 41.174 266.158 41.804C267.742 40.958 269.884 40.958 271.216 41.75C273.808 43.298 272.962 46.466 271.072 47.834C269.29 49.112 266.482 49.184 265.114 48.284C263.206 47.042 264.052 44.81 266.176 44.738C267.616 44.684 268.966 45.548 269.02 47.168ZM267.49 47.438C267.508 46.61 267.022 45.98 266.23 46.052C265.438 46.124 265.402 46.862 265.978 47.168C266.392 47.384 266.986 47.456 267.49 47.438ZM293.842 45.764H290.404V48.878C290.404 49.472 289.972 49.76 289.54 49.76C289.108 49.76 288.676 49.472 288.676 48.878V38.69H288.064C287.11 40.58 286.75 40.814 286.282 40.814C285.832 40.814 285.418 40.508 285.418 40.076C285.418 39.914 285.49 39.734 285.634 39.536C286.714 38.132 287.38 36.26 287.704 34.64C287.794 34.19 288.154 33.992 288.532 33.992C289 33.992 289.45 34.28 289.45 34.784C289.45 35.018 289.18 36.098 288.766 37.124H294.49C294.994 37.124 295.264 37.52 295.264 37.916C295.264 38.312 295.012 38.69 294.49 38.69H290.404V40.634H293.662C294.166 40.634 294.436 41.03 294.436 41.426C294.436 41.822 294.184 42.2 293.662 42.2H290.404V44.198H293.842C294.346 44.198 294.616 44.594 294.616 44.99C294.616 45.386 294.364 45.764 293.842 45.764ZM284.698 35.918H280.54C280.054 35.918 279.82 35.558 279.82 35.198C279.82 34.838 280.054 34.478 280.54 34.478H284.698C285.184 34.478 285.436 34.838 285.436 35.198C285.436 35.558 285.184 35.918 284.698 35.918ZM285.328 38.384H279.802C279.28 38.384 279.028 38.024 279.028 37.646C279.028 37.286 279.28 36.908 279.802 36.908H285.328C285.85 36.908 286.102 37.268 286.102 37.646C286.102 38.006 285.85 38.384 285.328 38.384ZM284.554 40.724H280.576C280.09 40.724 279.856 40.364 279.856 40.004C279.856 39.644 280.09 39.284 280.576 39.284H284.554C285.04 39.284 285.292 39.644 285.292 40.004C285.292 40.364 285.04 40.724 284.554 40.724ZM284.554 43.046H280.576C280.09 43.046 279.856 42.686 279.856 42.326C279.856 41.966 280.09 41.606 280.576 41.606H284.554C285.04 41.606 285.292 41.966 285.292 42.326C285.292 42.686 285.04 43.046 284.554 43.046ZM285.562 47.816C285.544 48.626 284.968 49.202 284.068 49.256C283.69 49.274 283.096 49.292 282.52 49.292C281.944 49.292 281.368 49.274 281.008 49.256C280.198 49.202 279.694 48.626 279.676 47.834C279.676 47.366 279.658 46.952 279.658 46.538C279.658 46.124 279.676 45.728 279.676 45.332C279.694 44.648 280.126 44.018 280.99 43.964C281.332 43.946 281.854 43.928 282.376 43.928C283.024 43.928 283.708 43.946 284.122 43.964C284.806 44 285.544 44.468 285.562 45.242C285.58 45.656 285.58 46.106 285.58 46.556C285.58 46.988 285.58 47.42 285.562 47.816ZM284.032 47.438C284.05 47.186 284.05 46.898 284.05 46.592C284.05 46.304 284.05 45.998 284.032 45.746C283.996 45.278 283.672 45.26 282.592 45.26C282.232 45.26 281.854 45.26 281.656 45.278C281.17 45.314 281.152 45.62 281.152 46.592C281.152 46.88 281.17 47.186 281.17 47.456C281.188 47.816 281.404 47.888 282.556 47.888C283.708 47.888 284.014 47.816 284.032 47.438ZM309.376 38.168C308.224 40.922 307.792 41.03 307.342 41.03C306.91 41.03 306.514 40.742 306.514 40.328C306.514 40.184 306.568 40.004 306.694 39.824C307.702 38.438 308.476 36.224 308.728 34.658C308.8 34.208 309.16 34.01 309.52 34.01C309.97 34.01 310.42 34.298 310.42 34.802C310.42 35.054 310.222 35.774 309.916 36.728C310.672 36.71 311.428 36.692 312.22 36.692C312.562 36.692 312.922 36.692 313.282 36.71C314.236 36.746 314.83 37.268 314.83 38.078C314.83 38.834 313.876 40.67 313.534 41.246C313.318 41.624 312.994 41.768 312.688 41.768C312.238 41.768 311.842 41.462 311.842 41.048C311.842 40.904 311.878 40.76 311.986 40.616C312.346 40.094 313.03 38.744 313.03 38.456C313.03 38.312 312.94 38.186 312.688 38.186C312.112 38.168 311.23 38.168 310.384 38.168C310.024 38.168 309.682 38.168 309.376 38.168ZM310.474 44.846C309.268 48.59 306.28 49.724 305.83 49.724C305.344 49.724 305.002 49.328 305.002 48.914C305.002 48.608 305.182 48.302 305.596 48.158C305.74 48.104 305.884 48.05 306.01 47.996C305.83 47.996 305.632 47.906 305.488 47.708C305.128 47.222 304.894 46.952 304.462 46.664C304.246 46.52 304.174 46.34 304.174 46.142C304.174 45.782 304.534 45.404 304.948 45.404C305.434 45.404 306.82 46.34 306.82 47.078C306.82 47.294 306.748 47.51 306.604 47.672C308.692 46.358 309.52 43.694 309.52 41.12C309.52 40.706 309.502 40.184 309.484 39.77C309.484 39.752 309.484 39.752 309.484 39.734C309.484 39.248 309.898 38.978 310.33 38.978C310.744 38.978 311.158 39.23 311.158 39.77C311.158 40.886 311.104 41.552 311.068 41.786C311.338 44.126 313.012 46.646 314.92 47.816C315.208 47.996 315.334 48.248 315.334 48.518C315.334 49.004 314.92 49.49 314.38 49.49C313.48 49.49 311.518 47.474 310.474 44.846ZM307.18 45.188H299.782C299.296 45.188 299.062 44.828 299.062 44.486C299.062 44.126 299.296 43.784 299.782 43.784H300.826V37.826L300.016 37.844H299.998C299.512 37.844 299.26 37.484 299.26 37.106C299.26 36.728 299.512 36.368 299.998 36.368H300.016L300.826 36.386V34.748C300.826 34.298 301.204 34.064 301.582 34.064C301.96 34.064 302.338 34.298 302.338 34.748V36.386H304.498V34.748C304.498 34.298 304.876 34.064 305.254 34.064C305.632 34.064 306.01 34.298 306.01 34.748V36.386L306.946 36.368H306.964C307.414 36.368 307.63 36.728 307.63 37.106C307.63 37.484 307.414 37.844 306.964 37.844H306.946L306.01 37.826V43.784H307.18C307.648 43.784 307.864 44.126 307.864 44.486C307.864 44.828 307.648 45.188 307.18 45.188ZM299.8 49.31C299.296 49.31 298.828 48.914 298.828 48.482C298.828 48.266 298.954 48.032 299.224 47.852C300.07 47.294 300.664 46.628 301.186 45.746C301.33 45.512 301.528 45.422 301.744 45.422C302.176 45.422 302.626 45.818 302.626 46.286C302.626 46.916 300.664 49.31 299.8 49.31ZM304.498 38.96V37.826H302.338V38.96H304.498ZM304.498 41.318V40.256H302.338V41.318H304.498ZM304.498 43.784V42.614H302.338V43.784H304.498ZM331.624 39.644C330.328 39.374 328.96 39.32 327.448 39.698C326.458 39.95 325.882 38.348 327.196 38.024C328.798 37.628 330.67 37.61 331.93 37.916C333.19 38.222 332.848 39.914 331.624 39.644ZM332.596 47.852C330.67 48.338 327.718 48.284 326.422 46.88C325.684 46.07 326.764 44.792 327.7 45.638C328.672 46.52 330.832 46.232 332.236 45.944C333.694 45.638 333.784 47.546 332.596 47.852ZM323.074 48.716C322.624 49.112 321.958 49.04 321.598 48.158C320.158 44.612 321.58 39.284 321.904 37.142C322.102 35.81 323.848 36.206 323.65 37.25C323.362 38.708 322.282 42.938 322.714 44.612C322.768 44.846 322.84 44.792 322.912 44.63C322.948 44.54 323.146 44.18 323.218 44.054C323.776 43.172 324.892 44.036 324.478 44.756C323.812 45.926 323.524 46.754 323.416 47.276C323.308 47.762 323.524 48.32 323.074 48.716ZM115.66 63.26C115.444 62.954 114.616 62.27 114.274 62.09C113.392 61.622 114.202 60.596 115.012 60.974C115.48 61.19 116.326 61.766 116.686 62.216C117.316 63.026 116.182 64.016 115.66 63.26ZM114.616 63.44C115.228 64.268 114.058 65.24 113.554 64.466C113.356 64.16 112.564 63.422 112.222 63.224C111.358 62.738 112.186 61.748 112.978 62.162C113.428 62.396 114.274 62.972 114.616 63.44ZM111.484 66.284C109.81 65.924 107.902 65.888 106.138 66.23C104.716 66.5 104.482 64.592 106.084 64.358C107.794 64.106 110.332 64.088 111.826 64.412C113.338 64.736 112.942 66.59 111.484 66.284ZM113.248 75.05C109.684 76.166 105.364 75.32 104.122 73.574C103.474 72.656 104.644 71.414 105.616 72.404C107.146 73.97 110.062 73.844 112.78 73.07C114.274 72.656 114.706 74.6 113.248 75.05ZM131.896 64.016C131.698 64.016 131.482 63.926 131.284 63.728C130.636 63.062 129.736 62.594 129.16 62.378C128.836 62.252 128.692 62.036 128.692 61.784C128.692 61.37 129.124 60.902 129.664 60.902C130.006 60.902 132.85 61.838 132.85 63.008C132.85 63.53 132.4 64.016 131.896 64.016ZM124.804 64.664C124.588 64.664 124.372 64.574 124.192 64.358C123.454 63.512 122.86 63.224 122.212 62.864C121.942 62.72 121.834 62.522 121.834 62.324C121.834 61.892 122.284 61.46 122.806 61.46C123.328 61.46 125.758 62.684 125.758 63.656C125.758 64.178 125.29 64.664 124.804 64.664ZM136.09 76.04H126.064C125.452 76.04 125.164 75.644 125.164 75.248C125.164 74.852 125.47 74.456 126.064 74.456L130.186 74.474V70.694L127.558 70.712C126.982 70.712 126.676 70.316 126.676 69.938C126.676 69.542 126.982 69.164 127.558 69.164L130.186 69.182V66.158L127.072 66.176C126.478 66.176 126.19 65.78 126.19 65.402C126.19 65.006 126.478 64.628 127.072 64.628H135.298C135.874 64.628 136.162 65.024 136.162 65.42C136.162 65.798 135.874 66.176 135.298 66.176L132.004 66.158V69.182L134.632 69.164C135.208 69.164 135.496 69.56 135.496 69.938C135.496 70.334 135.208 70.712 134.632 70.712L132.004 70.694V74.474L136.09 74.456C136.63 74.456 136.918 74.87 136.918 75.266C136.918 75.662 136.648 76.04 136.09 76.04ZM124.192 68.552C124.03 68.552 123.868 68.498 123.688 68.354C122.896 67.724 122.158 67.418 121.384 67.148C121.06 67.04 120.916 66.788 120.916 66.536C120.916 66.122 121.294 65.654 121.816 65.654C122.284 65.654 123.688 66.068 124.678 66.77C124.966 66.968 125.074 67.256 125.074 67.526C125.074 68.048 124.678 68.552 124.192 68.552ZM123.004 75.932C122.752 76.292 122.428 76.436 122.122 76.436C121.618 76.436 121.15 76.004 121.15 75.518C121.15 75.338 121.222 75.14 121.366 74.96C122.374 73.682 123.148 72.278 123.886 70.46C124.03 70.1 124.336 69.956 124.642 69.956C125.092 69.956 125.542 70.262 125.542 70.802C125.542 71.396 124.282 74.222 123.004 75.932ZM155.458 66.356H141.85C141.328 66.356 141.076 66.014 141.076 65.672C141.076 65.312 141.346 64.934 141.85 64.934H145.648C145.54 64.7 145.414 64.484 145.306 64.304C145.234 64.214 145.216 64.106 145.216 64.034C145.216 63.836 145.36 63.692 145.576 63.584H143.29C142.768 63.584 142.516 63.242 142.516 62.9C142.516 62.54 142.786 62.162 143.29 62.162H147.7V61.46C147.7 60.884 148.168 60.596 148.636 60.596C149.104 60.596 149.572 60.884 149.572 61.46V62.162H154.018C154.504 62.162 154.756 62.522 154.756 62.864C154.756 63.224 154.504 63.584 154.018 63.584H151.48C151.696 63.71 151.858 63.908 151.858 64.142C151.858 64.286 151.75 64.538 151.57 64.934H155.458C155.944 64.934 156.196 65.294 156.196 65.636C156.196 65.996 155.944 66.356 155.458 66.356ZM155.44 76.058C155.17 76.058 154.918 75.932 154.738 75.626C154.27 74.798 153.676 74.312 153.136 73.916C152.902 73.736 152.794 73.538 152.794 73.358C152.794 72.962 153.208 72.62 153.676 72.62C154.486 72.62 156.376 74.294 156.376 75.104C156.376 75.644 155.908 76.058 155.44 76.058ZM149.284 72.17C150.13 72.782 150.454 73.232 150.454 73.574C150.454 74.06 149.968 74.456 149.518 74.456C149.302 74.456 149.104 74.366 148.96 74.132C148.672 73.646 148.258 73.268 147.808 72.926C147.646 72.8 147.592 72.656 147.592 72.512C147.592 72.386 147.628 72.278 147.7 72.17C143.74 72.17 143.38 72.062 143.38 69.56C143.38 68.174 143.452 67.13 145.288 67.058C146.224 67.022 147.394 67.004 148.6 67.004C149.806 67.004 151.048 67.022 152.11 67.058C153.172 67.094 153.784 67.742 153.856 68.534C153.874 68.786 153.892 69.11 153.892 69.416C153.892 70.91 153.838 72.062 152.02 72.116C151.12 72.152 150.202 72.17 149.284 72.17ZM152.758 74.168C152.758 76.148 151.642 76.562 148.636 76.562C145.846 76.562 145.09 76.022 145.09 74.51C145.09 72.89 145.09 72.44 145.954 72.44C146.386 72.44 146.836 72.674 146.836 73.106C146.836 73.61 146.818 74.132 146.818 74.33C146.854 74.96 147.232 75.104 148.69 75.104C150.598 75.104 151.012 74.924 151.012 74.132C151.012 73.664 151.39 73.466 151.804 73.466C152.272 73.466 152.758 73.736 152.758 74.168ZM141.67 76.418C141.202 76.418 140.752 76.112 140.752 75.608C140.752 75.338 140.932 75.05 141.328 74.852C141.778 74.636 142.57 73.916 142.804 73.322C142.948 72.962 143.218 72.818 143.506 72.818C143.956 72.818 144.406 73.16 144.406 73.61C144.406 74.456 142.732 76.418 141.67 76.418ZM150.364 63.584H146.548C146.728 63.674 147.214 64.25 147.394 64.934H149.896C150.04 64.61 150.184 64.196 150.238 63.854C150.256 63.728 150.292 63.656 150.364 63.584ZM144.964 69.056H152.29C152.29 68.984 152.272 68.912 152.272 68.84C152.218 68.21 152.074 68.21 148.798 68.21C147.718 68.21 146.638 68.228 145.792 68.264C145.198 68.282 144.982 68.534 144.964 68.894V69.056ZM152.29 70.082H144.946C144.946 70.19 144.964 70.28 144.964 70.37C145 70.82 145.252 70.91 145.81 70.928C146.692 70.946 147.826 70.946 148.978 70.946C149.824 70.946 150.688 70.946 151.48 70.928C151.894 70.91 152.254 70.766 152.272 70.352C152.272 70.262 152.29 70.172 152.29 70.082ZM171.262 74.762C171.82 75.968 170.074 77.03 169.498 75.878C168.454 73.826 166.924 71.486 165.682 70.028C164.494 68.642 164.494 67.364 165.898 65.906C167.122 64.628 168.508 63.296 169.588 61.838C170.416 60.74 172.036 62.018 171.19 63.062C170.29 64.16 168.382 65.726 167.266 66.842C166.492 67.616 166.456 68.156 167.05 68.894C168.85 71.144 170.38 72.836 171.262 74.762ZM195.22 63.296C194.968 63.026 194.104 62.432 193.744 62.288C192.826 61.928 193.474 60.83 194.32 61.1C194.806 61.262 195.724 61.73 196.138 62.144C196.858 62.864 195.832 63.98 195.22 63.296ZM193.582 64.934C193.348 64.646 192.484 64.034 192.124 63.872C191.206 63.494 191.926 62.396 192.754 62.702C193.24 62.882 194.14 63.35 194.536 63.782C195.238 64.538 194.176 65.636 193.582 64.934ZM193.69 68.228C192.682 67.886 191.044 67.688 190.09 68.048C189.154 68.39 188.596 66.914 189.784 66.5C190.702 66.176 192.34 65.96 194.104 66.59C195.31 67.022 194.824 68.606 193.69 68.228ZM193.69 75.518C191.08 76.04 188.848 75.212 188.056 74.33C187.282 73.466 188.398 72.044 189.334 72.998C190.252 73.934 191.35 73.844 193.456 73.664C194.77 73.556 194.878 75.284 193.69 75.518ZM186.976 66.086C185.842 70.028 184.564 73.142 183.682 75.14C183.142 76.346 181.234 75.824 181.99 74.294C182.764 72.71 184.042 69.974 185.14 66.482C184.186 66.59 183.268 66.554 182.512 66.23C181.594 65.834 181.774 64.196 183.124 64.682C183.88 64.952 184.762 64.952 185.608 64.79C185.716 64.124 185.644 63.638 185.59 62.846C185.518 61.82 187.21 61.766 187.39 62.756C187.462 63.206 187.462 63.692 187.408 64.196C187.66 64.07 187.876 63.944 188.092 63.818C189.028 63.206 190.144 64.7 188.794 65.366C188.29 65.618 187.642 65.888 186.976 66.086ZM210.304 66.446C210.718 67.094 211.15 67.742 211.528 68.336C211.852 68.822 212.77 70.37 212.86 71.234C213.004 72.512 211.942 72.818 211.006 72.17C210.772 72.008 210.52 71.918 210.268 71.864C208.846 71.558 206.83 71.504 205.822 71.81C204.814 72.116 204.508 73.034 205.462 73.592C206.362 74.114 207.748 74.312 209.188 74.24C210.844 74.168 210.736 76.166 209.026 76.112C207.37 76.058 205.786 75.824 204.526 75.05C202.42 73.754 202.672 70.838 205.552 70.262C207.262 69.92 209.008 70.064 210.124 70.136C210.394 70.154 210.466 70.064 210.394 69.83C210.358 69.704 210.232 69.308 209.944 68.822C209.62 68.264 209.188 67.616 208.756 66.932C208.63 66.968 208.522 66.986 208.414 67.004C206.344 67.454 204.778 67.346 203.536 66.698C202.42 66.122 202.978 64.484 204.274 65.114C205.426 65.69 206.416 65.654 207.766 65.348C207.334 64.646 206.938 63.998 206.722 63.512C206.056 62.054 208.072 61.64 208.432 62.936C208.54 63.35 208.9 64.034 209.368 64.862C209.62 64.772 209.872 64.682 210.142 64.592C210.394 64.502 210.556 64.358 210.808 64.232C212.266 63.494 212.896 65.24 211.798 65.798C211.33 66.032 210.808 66.266 210.304 66.446ZM235.054 69.974C235.198 71.288 233.416 71.648 233.164 70.406C232.876 68.966 232.138 67.58 231.166 66.914C230.302 66.32 231.274 64.988 232.354 65.798C233.632 66.752 234.874 68.444 235.054 69.974ZM227.188 72.944C226.036 74.816 224.434 74.654 223.426 73.574C222.13 72.17 221.536 70.082 221.392 67.814C221.32 66.788 221.284 66.464 221.302 65.816C221.338 64.682 223.084 64.448 223.138 65.798C223.174 66.5 223.102 66.536 223.138 67.364C223.21 69.254 223.552 71.036 224.56 72.008C225.028 72.458 225.262 72.512 225.658 71.972C225.874 71.666 226.126 71.198 226.252 70.91C226.738 69.866 228.232 70.622 227.89 71.558C227.71 72.062 227.386 72.62 227.188 72.944ZM246.826 71.594V71.576C246.826 71.468 246.826 71.342 246.826 71.198C246.826 69.452 246.646 65.258 246.538 62.432C246.538 62.414 246.538 62.396 246.538 62.378C246.538 61.712 247.06 61.388 247.582 61.388C248.122 61.388 248.662 61.73 248.662 62.432C248.662 64.556 248.374 69.506 248.374 71.252C248.374 71.684 248.374 72.44 247.582 72.44C247.204 72.44 246.826 72.152 246.826 71.594ZM248.842 74.96C248.842 75.824 248.086 76.148 247.6 76.148C246.916 76.148 246.358 75.572 246.358 74.96C246.358 74.168 247.114 73.718 247.6 73.718C248.302 73.718 248.842 74.15 248.842 74.96Z" fill="#999999"/>
</svg>
