<svg width="80" height="80" viewBox="0 0 80 80" fill="none" xmlns="http://www.w3.org/2000/svg">
<path d="M30.5298 44.6542L31.3967 45.0481L32.1734 43.5398L32.817 37.55L30.5298 44.6542Z" fill="#1F1F1F"/>
<path d="M48.3379 39.3638L48.7865 43.5396L49.5632 45.0479L50.4301 44.654L48.7707 39.4999C48.7626 39.4968 48.7559 39.4943 48.7509 39.4924L48.3379 39.3638Z" fill="#1F1F1F"/>
<path d="M36.2581 53.0388C35.9742 52.9511 35.729 52.8752 35.3101 52.8752C35.1415 52.8752 34.9595 52.8875 34.754 52.9127C34.6584 52.9244 34.5626 52.9305 34.4687 52.9305C33.8987 52.9305 33.4473 52.718 33.0987 52.458C33.0748 53.5341 33.8476 54.4883 34.9395 54.6597C35.9898 54.8244 36.9817 54.2102 37.3292 53.2458C37.2053 53.2377 37.0687 53.2233 36.9129 53.2002C36.6556 53.1622 36.4537 53.0994 36.2581 53.0388Z" fill="#1F1F1F"/>
<path d="M32.9184 46.8787C32.8481 47.5156 32.8009 48.2317 32.9103 48.4503C33.1203 48.8706 32.6212 49.2384 32.6737 49.6326C32.7264 50.0264 32.3059 51.0248 32.5425 51.2087C32.7789 51.3926 33.4095 52.6012 34.6967 52.4434C35.9839 52.2859 36.2728 52.6273 36.9823 52.7326C37.6914 52.8376 37.9278 52.7587 38.0331 52.6012C38.1381 52.4434 38.1381 50.0264 38.3484 50.1317C38.5584 50.2367 38.6109 49.6587 38.6109 49.3698C38.6109 49.0809 38.7687 48.6867 38.9787 48.6867C39.0714 48.6867 39.0414 48.4014 38.9884 48.0551C37.1209 47.9103 34.2303 47.2137 32.9184 46.8787Z" fill="#1F1F1F"/>
<path d="M46.2037 52.9127C45.9981 52.8877 45.8165 52.8752 45.6476 52.8752C45.2287 52.8752 44.9834 52.9511 44.6995 53.0391C44.5043 53.0994 44.302 53.1622 44.0448 53.2002C43.889 53.2233 43.7523 53.2377 43.6284 53.2458C43.9759 54.2102 44.9679 54.8244 46.0184 54.6597C47.1101 54.4883 47.8831 53.5341 47.8593 52.458C47.5106 52.7183 47.0593 52.9305 46.4893 52.9305C46.3954 52.9305 46.2993 52.9244 46.2037 52.9127Z" fill="#1F1F1F"/>
<path d="M41.9697 48.0553C41.9163 48.4014 41.8866 48.6867 41.9791 48.6867C42.1891 48.6867 42.3469 49.0808 42.3469 49.3697C42.3469 49.6586 42.3994 50.2367 42.6097 50.1317C42.8197 50.0264 42.8197 52.4433 42.9249 52.6011C43.0299 52.7586 43.2663 52.8375 43.9758 52.7325C44.6849 52.6272 44.9738 52.2858 46.2613 52.4433C47.5485 52.6011 48.1791 51.3925 48.4155 51.2086C48.6519 51.0247 48.2316 50.0264 48.2841 49.6325C48.3366 49.2383 47.8374 48.8705 48.0477 48.4503C48.1569 48.2317 48.1099 47.5161 48.0397 46.8792C46.7263 47.2144 43.836 47.9108 41.9697 48.0553Z" fill="#1F1F1F"/>
<mask id="mask0_129_470" style="mask-type:luminance" maskUnits="userSpaceOnUse" x="24" y="4" width="32" height="38">
<path d="M24.7466 4.58081H55.111V41.8133H24.7466V4.58081Z" fill="white"/>
</mask>
<g mask="url(#mask0_129_470)">
<path d="M33.7247 33.5283L33.6699 34.0403C33.5913 34.5122 33.5399 34.9775 33.5208 35.4275L33.5113 35.5153C33.5138 35.5144 33.5163 35.5136 33.5188 35.5128C33.5152 35.6211 33.5119 35.7291 33.5119 35.8355C33.5119 40.2014 36.6316 41.7772 40.4799 41.7772C43.2499 41.7772 45.6424 40.9605 46.7655 38.8747L45.2774 38.4116C45.113 38.6458 44.8191 39.1753 44.5397 40.0205L44.2913 40.7716L43.7474 40.1975C43.2747 39.6986 43.0805 39.2039 43.0111 38.7569C42.5872 38.7114 42.1972 38.5189 41.9027 38.2036C41.5777 37.8558 41.408 37.4028 41.4241 36.9272C41.4299 36.7553 41.4605 36.5894 41.5122 36.433C41.3294 36.3153 41.1655 36.2064 41.0388 36.1208C40.8552 36.2786 40.5997 36.5686 40.4752 37.03L40.193 38.0761L39.618 37.158C39.1886 36.4728 38.9947 35.0861 38.9316 34.5294C38.1986 33.9689 36.5574 32.31 36.3036 31.5933C36.2083 31.3244 36.2655 31.1333 36.3302 31.0203C36.6074 30.5375 37.2566 30.4808 38.0786 30.4094C38.4133 30.3803 38.7927 30.3472 39.1647 30.283C39.2947 30.2605 39.4402 30.2497 39.6097 30.2497C41.1511 30.2497 44.1899 31.1869 44.8597 31.4191C44.9674 31.4564 45.0677 31.4739 45.1758 31.4739C45.2469 31.4739 45.3211 31.465 45.3988 31.4525C45.4069 31.3661 45.4047 31.3036 45.3958 31.2703L45.7574 31.238C45.8041 31.5853 45.6258 32.4611 44.9172 33.6264C44.2019 34.8025 43.4441 35.453 43.1599 35.5697C42.4183 35.5925 41.8122 36.1875 41.7863 36.9394C41.7599 37.7225 42.373 38.3789 43.1561 38.4055C43.1816 38.4066 43.2072 38.4069 43.2324 38.4069C44.593 38.4069 45.8297 37.1766 46.6333 36.1336C47.7327 34.7066 48.7455 32.6864 48.5819 30.985C48.5611 30.7683 48.5222 30.5566 48.4611 30.3522C48.4608 30.3514 48.4605 30.3505 48.4602 30.3497C47.4338 26.9339 45.5741 25.2391 43.8219 24.4108C43.373 25.0275 42.7599 25.5169 42.0469 25.8144C42.2763 27.5414 42.208 27.9705 42.1886 28.0472C42.033 28.2191 40.9988 29.3578 40.4441 29.8158C39.8949 29.3622 38.8749 28.2408 38.6999 28.0475C38.6805 27.9716 38.6116 27.5436 38.8413 25.8144C38.1283 25.5169 37.5152 25.0272 37.0663 24.4105C35.3311 25.2311 33.4908 26.9011 32.4583 30.25C31.9583 30.6525 29.9597 30.8955 27.8022 30.8558C27.9791 30.6653 28.088 30.4111 28.088 30.1305C28.088 29.8797 28.0008 29.6494 27.8561 29.4672C29.9541 15.9964 36.8191 6.12387 37.6761 4.93359C38.0388 5.59637 39.7427 8.62026 42.0647 11.3325C45.5422 15.3953 48.8238 16.9161 51.5541 15.73C52.5641 15.2914 53.2458 15.2361 53.6369 15.5605C54.4966 16.273 53.9127 18.8461 53.2944 21.5703C52.5316 24.9308 51.6724 28.7211 52.9352 30.7803C52.9313 30.7833 52.9269 30.7853 52.923 30.7883C52.7277 30.943 52.6947 31.2266 52.8494 31.4219C52.9822 31.5894 53.2091 31.6364 53.3944 31.5494L53.8658 32.1447C54.0263 32.3475 53.9919 32.6433 53.7891 32.8039C53.5863 32.9644 53.2905 32.9303 53.1297 32.7275C53.0608 32.6405 53.0247 32.5314 53.0286 32.4205L52.8394 32.4139C52.8341 32.5697 52.8847 32.7228 52.9813 32.845C53.1113 33.0089 53.3038 33.0941 53.4983 33.0941C53.6416 33.0941 53.7858 33.048 53.9066 32.9525C54.0949 32.8033 54.1772 32.5714 54.1477 32.3489C54.1983 32.3683 54.2508 32.3836 54.3061 32.39C54.3319 32.3928 54.3574 32.3944 54.3833 32.3944C54.5308 32.3944 54.6733 32.345 54.7908 32.2519C54.9286 32.1428 55.0158 31.9864 55.0361 31.8116C55.0563 31.6369 55.0074 31.4647 54.898 31.3269C54.8013 31.2047 54.6638 31.1205 54.5113 31.09L54.4741 31.2755C54.583 31.2972 54.6808 31.3572 54.7499 31.4444C54.8277 31.5425 54.8627 31.6653 54.8483 31.79C54.8336 31.9144 54.7716 32.0258 54.6733 32.1039C54.5749 32.1816 54.4524 32.2166 54.3277 32.2019C54.2033 32.1875 54.0919 32.1255 54.0138 32.0272L53.5452 31.4355C53.6833 31.2747 53.6933 31.0341 53.5569 30.8616C53.4466 30.7228 53.2711 30.6678 53.1086 30.7025C51.8672 28.7158 52.7216 24.9491 53.4788 21.6119C54.1377 18.7089 54.7069 16.2016 53.7577 15.415C53.3061 15.0405 52.5608 15.0869 51.4788 15.5566C45.0594 18.345 37.8438 4.84942 37.7716 4.71276C37.7566 4.68414 37.7277 4.66526 37.6955 4.66276C37.6627 4.66081 37.6319 4.67414 37.6124 4.70026C37.6022 4.71387 37.4588 4.9072 37.2144 5.26248L36.8505 5.01442C36.9169 4.92637 36.9824 4.8372 37.0497 4.74998L36.9063 4.58081C31.1238 11.8294 28.0513 22.0855 26.5122 29.1919C26.1794 29.3728 25.9536 29.7253 25.9536 30.1305C25.9536 30.3753 26.0369 30.6003 26.1755 30.7803C25.4591 30.7986 24.8608 31.3544 24.8016 32.0833C24.7502 32.7158 25.1222 33.285 25.6802 33.5122C25.2777 35.9064 25.1291 37.3828 25.1291 37.3828L25.6869 37.9341C25.6869 37.9341 25.8358 36.278 26.2619 33.6239C26.5841 33.6458 27.3563 33.6905 28.3058 33.6905C28.7905 33.6905 29.3211 33.6789 29.8602 33.6466C31.1947 33.5664 32.8552 33.3641 33.9808 32.6405C33.9424 32.7789 33.9066 32.9172 33.873 33.0555C33.8344 33.2133 33.7986 33.3711 33.7661 33.5283H33.7247ZM28.4772 25.3094C28.1736 26.5989 27.9077 27.9308 27.6908 29.3003C27.5283 29.1689 27.3266 29.085 27.1058 29.0675C27.3644 27.8344 27.6663 26.5161 28.0166 25.1422L28.4772 25.3094ZM28.1016 24.8097C28.7594 22.2697 29.583 19.5503 30.6069 16.8316L31.0891 17.0069C30.1449 19.4014 29.258 22.078 28.5574 24.9753L28.1016 24.8097ZM37.0222 5.54498C35.9122 7.19331 33.4263 11.1672 31.2149 16.6894L30.7272 16.5122C32.2369 12.5661 34.1736 8.63942 36.6452 5.28776L37.0222 5.54498Z" fill="#1F1F1F"/>
</g>
<path d="M40.4798 42.25C36.4976 42.25 34.002 40.68 33.2676 37.782L32.3584 46.2436C32.3584 46.2436 37.4026 47.6098 39.6092 47.6098L40.4798 46.4275L41.3501 47.6098C43.557 47.6098 48.6009 46.2436 48.6009 46.2436L47.8453 39.2109L47.2309 39.0198C46.157 41.1239 43.8517 42.25 40.4798 42.25Z" fill="#1F1F1F"/>
<mask id="mask1_129_470" style="mask-type:luminance" maskUnits="userSpaceOnUse" x="45" y="34" width="11" height="10">
<path d="M45.2979 34.5601H55.2429V43.0934H45.2979V34.5601Z" fill="white"/>
</mask>
<g mask="url(#mask1_129_470)">
<path d="M51.5572 38.1745C50.1977 37.1354 48.2744 35.1531 48.0375 34.6042C47.91 34.8498 47.7738 35.0895 47.6313 35.3215C49.1833 36.5767 50.3272 37.7634 50.3272 37.7634C49.1244 36.8879 48.4722 36.3801 47.46 35.592C47.2855 35.8595 47.1047 36.1162 46.9208 36.3548C46.5055 36.8937 45.9752 37.4823 45.3652 37.9437L48.9038 39.0451C48.9038 39.0451 49.5697 39.2873 50.0002 39.5842C50.4305 39.8809 50.4733 42.8776 52.0563 43.0381C51.5177 41.8915 51.57 40.8756 52.113 40.229C52.7744 39.4415 54.3275 39.2442 55.2497 39.247C53.1519 37.7467 52.0333 38.5381 51.5572 38.1745Z" fill="#1F1F1F"/>
</g>
<path d="M43.4912 38.7554C43.5595 39.1088 43.7262 39.4874 44.0907 39.8721C44.304 39.2268 44.5512 38.6913 44.7651 38.3354C44.3634 38.5577 43.9365 38.7118 43.4912 38.7554Z" fill="#1F1F1F"/>
<path d="M43.0669 35.2119C43.2967 35.0802 43.9492 34.5205 44.6075 33.438C44.6142 33.4269 44.62 33.4166 44.6267 33.4055C44.4561 33.2755 44.2803 33.1413 44.0936 32.9994C44.2911 33.0913 44.4897 33.1924 44.6886 33.3002C45.0089 32.7502 45.1958 32.2877 45.2975 31.9413C45.1075 31.9558 44.9175 31.9396 44.7047 31.8658C43.7817 31.546 40.4072 30.5483 39.2453 30.7488C38.0831 30.9496 36.9731 30.8505 36.7406 31.2558C36.5078 31.6608 39.0617 34.1435 39.38 34.2666C39.38 34.2666 39.5503 36.1594 40.0186 36.9069C40.2842 35.9224 41.0383 35.5474 41.0383 35.5474C41.0383 35.5474 41.33 35.7513 41.7203 36.0044C42.0161 35.5596 42.5058 35.2546 43.0669 35.2119ZM41.0506 34.7946C42.8036 33.5888 43.0361 32.1377 43.0361 32.1377C43.0139 34.2196 41.0506 34.7946 41.0506 34.7946ZM40.7144 34.2449C42.1661 33.2463 42.3586 32.0449 42.3586 32.0449C42.34 33.7688 40.7144 34.2449 40.7144 34.2449ZM38.6947 31.6413C38.8256 31.4138 39.1161 31.3349 39.3436 31.4655C39.5714 31.596 39.6497 31.8869 39.5192 32.1144C39.3883 32.3419 39.0981 32.4202 38.8706 32.2896C38.6431 32.1591 38.5642 31.8688 38.6947 31.6413Z" fill="#1F1F1F"/>
<path d="M36.6612 21.9576C36.6612 23.4135 37.4842 24.6765 38.6898 25.309C38.7767 24.6951 39.1259 23.1546 40.4442 23.1546C41.7626 23.1546 42.1117 24.6951 42.1987 25.309C43.4045 24.6765 44.2273 23.4135 44.2273 21.9576C44.2273 21.4568 44.129 20.979 43.952 20.5415V18.134C43.9856 18.116 44.0151 18.0954 44.0401 18.0712C44.109 18.0051 44.1437 17.9196 44.1406 17.8243V17.824C44.1281 17.434 43.6834 16.6507 42.9609 16.0154C42.397 15.5193 41.4798 14.9518 40.3056 15.0648C38.7051 15.2193 37.1948 16.7857 36.4367 17.7057C36.2717 17.906 36.2192 18.2421 36.3176 18.471C36.3817 18.6198 36.5059 18.7115 36.6584 18.7221C36.7545 18.729 36.8445 18.7437 36.9365 18.7601V20.5415C36.7595 20.979 36.6612 21.4568 36.6612 21.9576ZM36.6506 18.3276C36.6065 18.2243 36.639 18.0304 36.7167 17.936C37.2981 17.2304 38.8151 15.5729 40.3406 15.4257C40.4303 15.4171 40.5184 15.4129 40.6048 15.4129C41.524 15.4129 42.2553 15.8773 42.7217 16.2876C43.3748 16.8621 43.7537 17.546 43.7773 17.8187C43.6317 17.911 42.914 17.8596 42.3853 17.8218C41.3201 17.7457 39.994 17.6507 39.1162 18.0421C38.4026 18.3607 37.9606 18.4579 37.629 18.4687C37.9876 18.0596 38.9834 17.0065 40.0309 16.6351L39.9676 16.4568C38.7359 16.8937 37.6176 18.1821 37.3851 18.4618C37.2723 18.4515 37.1701 18.4335 37.069 18.4151C36.9481 18.3932 36.8234 18.3704 36.6837 18.3607C36.6745 18.3598 36.6642 18.3593 36.6506 18.3276ZM37.5623 18.8335C37.9398 18.8335 38.4465 18.7382 39.264 18.3735C40.059 18.0187 41.3345 18.1101 42.3595 18.1832C42.9065 18.2223 43.3067 18.2476 43.5895 18.2235V19.6148C43.0615 19.4279 41.6653 18.979 40.4442 18.979C39.2231 18.979 37.827 19.4279 37.299 19.6148V18.8173C37.3806 18.8268 37.467 18.8335 37.5623 18.8335ZM37.299 19.8162C37.7584 19.6518 39.2145 19.1682 40.4442 19.1682C41.6734 19.1682 43.1301 19.6518 43.5895 19.8162V20.1071C43.0265 19.9146 41.6073 19.4737 40.4442 19.4737C39.2815 19.4737 37.8623 19.9146 37.299 20.1071V19.8162Z" fill="#1F1F1F"/>
<path d="M39.1416 25.5102C39.5477 25.6591 39.9863 25.7405 40.4441 25.7405C40.9019 25.7405 41.3405 25.6591 41.7466 25.5102C41.708 25.1547 41.4819 23.6274 40.4441 23.6274C39.4063 23.6274 39.1802 25.1547 39.1416 25.5102Z" fill="#1F1F1F"/>
<path d="M44.1643 12.4734L44.0249 12.6012C44.0555 12.6345 46.7905 15.5781 49.9049 15.5781C50.2796 15.5781 50.6599 15.5356 51.0416 15.4401L50.9955 15.2567C47.5521 16.1176 44.1977 12.5101 44.1643 12.4734Z" fill="#1F1F1F"/>
<path d="M31.0495 13.1362C32.4339 9.23873 35.3792 5.64734 35.4089 5.61151L35.2873 5.51123C35.2575 5.54734 32.295 9.15929 30.9009 13.0835L31.0495 13.1362Z" fill="#1F1F1F"/>
<path d="M37.2461 17.7686L37.39 17.8913C37.4069 17.8711 39.1183 15.8872 40.7405 15.8202L40.7325 15.6313C39.0278 15.7016 37.318 17.6841 37.2461 17.7686Z" fill="#1F1F1F"/>
<path d="M18.521 58.2068H20.8499C21.0438 58.2068 21.1977 58.2085 21.311 58.2112C21.4249 58.2143 21.516 58.2201 21.5843 58.229C21.6524 58.2373 21.7066 58.2498 21.7466 58.2668C21.7866 58.284 21.8291 58.3068 21.8743 58.3357C22.1016 58.4832 22.2154 58.8073 22.2154 59.3079V59.6746C22.2154 59.8168 22.2138 59.9365 22.211 60.0335C22.2088 60.1307 22.2016 60.2132 22.1899 60.2812C22.1788 60.3496 22.1632 60.409 22.1432 60.4601C22.1232 60.5112 22.096 60.5623 22.0621 60.6135C21.9938 60.7276 21.9099 60.8118 21.8099 60.8657C21.7104 60.9198 21.5671 60.9579 21.3799 60.9801C21.5502 61.0321 21.6893 61.0851 21.7977 61.139C21.9057 61.1923 21.991 61.2607 22.0532 61.3435C22.116 61.4257 22.1588 61.524 22.181 61.6379C22.2038 61.7512 22.2154 61.8935 22.2154 62.0646V62.9435C22.2154 63.2901 22.2554 63.6087 22.3354 63.899H20.8077C20.7624 63.751 20.731 63.6087 20.7132 63.4723C20.696 63.3362 20.6877 63.1598 20.6877 62.9435V62.1835C20.6877 62.0021 20.6535 61.8718 20.5854 61.7923C20.5171 61.7123 20.4035 61.6723 20.2443 61.6723H20.0477V63.899H18.521V58.2068ZM20.261 60.4346C20.4379 60.4346 20.5546 60.4035 20.611 60.3412C20.6679 60.2785 20.6966 60.1473 20.6966 59.9479C20.6966 59.7607 20.6649 59.6298 20.6021 59.5557C20.5399 59.4818 20.426 59.4446 20.261 59.4446H20.0477V60.4346H20.261Z" fill="#1F1F1F"/>
<path d="M27.5662 63.899C27.3839 63.899 27.24 63.8976 27.135 63.8946C27.0298 63.8918 26.9473 63.8876 26.8873 63.8823C26.8278 63.8765 26.7823 63.8721 26.7506 63.869C26.7195 63.8662 26.6867 63.859 26.6528 63.8479C26.5334 63.814 26.4353 63.7585 26.3584 63.6812C26.282 63.6043 26.2209 63.4907 26.175 63.3401C26.1298 63.189 26.0987 62.9943 26.0817 62.7557C26.0645 62.5165 26.0562 62.2151 26.0562 61.8512V60.0335C26.0562 59.9485 26.0587 59.8532 26.0639 59.7479C26.0698 59.6429 26.0767 59.539 26.085 59.4368C26.0939 59.334 26.1023 59.2385 26.1106 59.1501C26.1195 59.0621 26.1295 58.9923 26.1406 58.9412C26.1806 58.7421 26.2445 58.5898 26.3328 58.4846C26.4209 58.3796 26.5445 58.3043 26.7039 58.259C26.7378 58.2532 26.7734 58.2473 26.8106 58.2412C26.8475 58.2354 26.8962 58.2298 26.9562 58.2246C27.0162 58.2187 27.0942 58.2143 27.1906 58.2112C27.2875 58.2085 27.4128 58.2068 27.5662 58.2068H28.9917V59.4446H27.5828V60.4346H28.9917V61.6723H27.5828V62.6612H28.9917V63.899H27.5662Z" fill="#1F1F1F"/>
<path d="M34.2903 63.899C34.1081 63.899 33.9642 63.8976 33.8592 63.8946C33.7539 63.8918 33.6714 63.8876 33.6114 63.8823C33.5519 63.8765 33.5064 63.8721 33.4747 63.869C33.4436 63.8662 33.4108 63.859 33.3769 63.8479C33.2575 63.814 33.1594 63.7585 33.0825 63.6812C33.0061 63.6043 32.945 63.4907 32.8992 63.3401C32.8539 63.189 32.8228 62.9943 32.8058 62.7557C32.7886 62.5165 32.7803 62.2151 32.7803 61.8512V60.0335C32.7803 59.9535 32.7828 59.8598 32.7881 59.7523C32.7939 59.6443 32.8008 59.539 32.8092 59.4368C32.8181 59.334 32.8264 59.2368 32.8347 59.1457C32.8436 59.0546 32.8536 58.9865 32.8647 58.9412C32.9047 58.7421 32.9686 58.5898 33.0569 58.4846C33.145 58.3796 33.2686 58.3043 33.4281 58.259C33.4619 58.2532 33.4975 58.2473 33.5347 58.2412C33.5717 58.2354 33.6203 58.2298 33.6803 58.2246C33.7403 58.2187 33.8183 58.2143 33.9147 58.2112C34.0117 58.2085 34.1369 58.2068 34.2903 58.2068H35.2636V59.4446H34.9903C34.8881 59.4446 34.8053 59.4462 34.7425 59.449C34.6803 59.4521 34.6292 59.4565 34.5892 59.4623C34.5492 59.4676 34.5161 59.4787 34.4903 59.4957C34.465 59.5129 34.4408 59.5329 34.4181 59.5557C34.3669 59.6068 34.3353 59.6654 34.3236 59.7312C34.3125 59.7965 34.3069 59.9312 34.3069 60.1357V61.9701C34.3069 62.1754 34.3139 62.3107 34.3281 62.3757C34.3428 62.441 34.3728 62.4996 34.4181 62.5512C34.4408 62.5796 34.465 62.6007 34.4903 62.6146C34.5161 62.6287 34.5492 62.6387 34.5892 62.6446C34.6292 62.6507 34.6803 62.6551 34.7425 62.6579C34.8053 62.6601 34.8881 62.6612 34.9903 62.6612H35.3058V63.899H34.2903Z" fill="#1F1F1F"/>
<path d="M39.974 62.4223C39.5812 62.1668 39.2854 61.8112 39.0862 61.3557C39.0462 61.2596 39.0132 61.1729 38.9873 61.0957C38.962 61.0187 38.9434 60.9351 38.9318 60.8446C38.9207 60.7535 38.912 60.6468 38.9062 60.5246C38.9009 60.4018 38.8984 60.2465 38.8984 60.059V58.2068H40.4262V60.0846C40.4262 60.2898 40.4287 60.4579 40.434 60.589C40.4398 60.7196 40.4529 60.8287 40.4729 60.9168C40.4929 61.0051 40.524 61.0821 40.5662 61.1479C40.609 61.2132 40.6645 61.2854 40.7329 61.3646C40.8009 61.2854 40.8562 61.2132 40.8984 61.1479C40.9412 61.0821 40.9729 61.0051 40.9929 60.9168C41.0129 60.8287 41.0257 60.7196 41.0318 60.589C41.0376 60.4579 41.0407 60.2898 41.0407 60.0846V58.2068H42.5673V60.059C42.5673 60.2465 42.5643 60.4018 42.5584 60.5246C42.5532 60.6468 42.5445 60.7535 42.5329 60.8446C42.5218 60.9351 42.5032 61.0187 42.4773 61.0957C42.452 61.1729 42.4195 61.2596 42.3795 61.3557C42.2832 61.5779 42.1623 61.7787 42.0173 61.9579C41.872 62.1373 41.6998 62.2921 41.5007 62.4223V63.899H39.974V62.4223Z" fill="#1F1F1F"/>
<path d="M47.8074 63.899C47.6251 63.899 47.4813 63.8976 47.3763 63.8946C47.271 63.8918 47.1885 63.8876 47.1285 63.8823C47.069 63.8765 47.0235 63.8721 46.9918 63.869C46.9607 63.8662 46.9279 63.859 46.894 63.8479C46.7746 63.814 46.6765 63.7585 46.5996 63.6812C46.5232 63.6043 46.4621 63.4907 46.4163 63.3401C46.371 63.189 46.3399 62.9943 46.3229 62.7557C46.3057 62.5165 46.2974 62.2151 46.2974 61.8512V60.0335C46.2974 59.9535 46.2999 59.8598 46.3051 59.7523C46.311 59.6443 46.3179 59.539 46.3263 59.4368C46.3351 59.334 46.3435 59.2368 46.3518 59.1457C46.3607 59.0546 46.3707 58.9865 46.3818 58.9412C46.4218 58.7421 46.4857 58.5898 46.574 58.4846C46.6621 58.3796 46.7857 58.3043 46.9451 58.259C46.979 58.2532 47.0146 58.2473 47.0518 58.2412C47.0888 58.2354 47.1374 58.2298 47.1974 58.2246C47.2574 58.2187 47.3354 58.2143 47.4318 58.2112C47.5288 58.2085 47.654 58.2068 47.8074 58.2068H48.7807V59.4446H48.5074C48.4051 59.4446 48.3224 59.4462 48.2596 59.449C48.1974 59.4521 48.1463 59.4565 48.1063 59.4623C48.0663 59.4676 48.0332 59.4787 48.0074 59.4957C47.9821 59.5129 47.9579 59.5329 47.9351 59.5557C47.884 59.6068 47.8524 59.6654 47.8407 59.7312C47.8296 59.7965 47.824 59.9312 47.824 60.1357V61.9701C47.824 62.1754 47.831 62.3107 47.8451 62.3757C47.8599 62.441 47.8899 62.4996 47.9351 62.5512C47.9579 62.5796 47.9821 62.6007 48.0074 62.6146C48.0332 62.6287 48.0663 62.6387 48.1063 62.6446C48.1463 62.6507 48.1974 62.6551 48.2596 62.6579C48.3224 62.6601 48.4051 62.6612 48.5074 62.6612H48.8229V63.899H47.8074Z" fill="#1F1F1F"/>
<path d="M52.5265 59.649C52.5265 59.3085 52.519 59.0285 52.5043 58.809C52.4901 58.5898 52.469 58.389 52.4409 58.2068H54.1898C54.1445 58.4351 54.1104 58.6612 54.0876 58.8857C54.0645 59.1101 54.0531 59.3507 54.0531 59.6068V62.6612L55.0776 62.6023L54.8043 63.899H52.5265V59.649Z" fill="#1F1F1F"/>
<path d="M60.1037 63.899C59.9215 63.899 59.7776 63.8976 59.6726 63.8946C59.5674 63.8918 59.4849 63.8876 59.4249 63.8823C59.3654 63.8765 59.3199 63.8721 59.2882 63.869C59.2571 63.8662 59.2243 63.859 59.1904 63.8479C59.071 63.814 58.9729 63.7585 58.896 63.6812C58.8196 63.6043 58.7585 63.4907 58.7126 63.3401C58.6674 63.189 58.6362 62.9943 58.6193 62.7557C58.6021 62.5165 58.5938 62.2151 58.5938 61.8512V60.0335C58.5938 59.9485 58.5962 59.8532 58.6015 59.7479C58.6074 59.6429 58.6143 59.539 58.6226 59.4368C58.6315 59.334 58.6399 59.2385 58.6482 59.1501C58.6571 59.0621 58.6671 58.9923 58.6782 58.9412C58.7182 58.7421 58.7821 58.5898 58.8704 58.4846C58.9585 58.3796 59.0821 58.3043 59.2415 58.259C59.2754 58.2532 59.311 58.2473 59.3482 58.2412C59.3851 58.2354 59.4338 58.2298 59.4938 58.2246C59.5538 58.2187 59.6318 58.2143 59.7282 58.2112C59.8251 58.2085 59.9504 58.2068 60.1037 58.2068H61.5293V59.4446H60.1204V60.4346H61.5293V61.6723H60.1204V62.6612H61.5293V63.899H60.1037Z" fill="#1F1F1F"/>
<path d="M26.4997 73.2857C26.3175 73.2857 26.1736 73.2843 26.0686 73.2813C25.9634 73.2785 25.8809 73.2743 25.8209 73.2691C25.7614 73.2632 25.7159 73.2588 25.6842 73.2557C25.6531 73.253 25.6203 73.2457 25.5864 73.2346C25.467 73.2007 25.3689 73.1452 25.292 73.068C25.2156 72.991 25.1545 72.8774 25.1086 72.7268C25.0634 72.5757 25.0322 72.381 25.0153 72.1424C24.9981 71.9032 24.9897 71.6018 24.9897 71.238V69.4202C24.9897 69.3352 24.9922 69.2399 24.9975 69.1346C25.0034 69.0296 25.0103 68.9257 25.0186 68.8235C25.0275 68.7207 25.0359 68.6252 25.0442 68.5368C25.0531 68.4488 25.0631 68.3791 25.0742 68.328C25.1142 68.1288 25.1781 67.9766 25.2664 67.8713C25.3545 67.7663 25.4781 67.691 25.6375 67.6457C25.6714 67.6399 25.707 67.6341 25.7442 67.628C25.7811 67.6221 25.8297 67.6166 25.8897 67.6113C25.9497 67.6055 26.0278 67.601 26.1242 67.598C26.2211 67.5952 26.3464 67.5935 26.4997 67.5935H27.9253V68.8313H26.5164V69.8213H27.9253V71.0591H26.5164V72.048H27.9253V73.2857H26.4997Z" fill="#1F1F1F"/>
<path d="M31.7651 67.5935H34.2907C34.5179 67.5935 34.7068 67.611 34.8574 67.6457C35.0085 67.6799 35.1279 67.7424 35.2162 67.8335C35.3043 67.9241 35.3654 68.0446 35.3996 68.1957C35.4343 68.3463 35.4518 68.538 35.4518 68.7713V69.0702C35.4518 69.2466 35.4474 69.3974 35.4385 69.5224C35.4296 69.6477 35.4135 69.7557 35.3907 69.8468C35.3685 69.938 35.3387 70.0135 35.3018 70.0735C35.2646 70.133 35.2207 70.1855 35.1696 70.2313C35.1296 70.2655 35.0896 70.2941 35.0496 70.3168C35.0101 70.3391 34.959 70.3588 34.8962 70.3757C34.834 70.393 34.7587 70.4099 34.6707 70.4268C34.5824 70.4441 34.4729 70.4641 34.3418 70.4868C34.4951 70.521 34.6229 70.5524 34.7251 70.5813C34.8279 70.6096 34.9135 70.638 34.9818 70.6668C35.0499 70.6952 35.1051 70.7277 35.1474 70.7646C35.1901 70.801 35.2318 70.8452 35.2718 70.8968C35.3918 71.0674 35.4518 71.3346 35.4518 71.6991V72.0568C35.4518 72.5746 35.3718 72.9218 35.2118 73.098C35.1776 73.138 35.1407 73.1696 35.1007 73.1924C35.0612 73.2146 35.0118 73.2332 34.9518 73.248C34.8924 73.2621 34.8187 73.2721 34.7307 73.278C34.6424 73.2832 34.5329 73.2857 34.4018 73.2857H31.7651V67.5935ZM33.2918 68.848V69.8302H33.574C33.8185 69.8302 33.9407 69.6821 33.9407 69.3857C33.9407 69.1924 33.9121 69.0546 33.8551 68.9724C33.7987 68.8896 33.7021 68.848 33.5651 68.848H33.2918ZM33.514 72.0568C33.6621 72.0568 33.7701 72.0213 33.8385 71.9502C33.9065 71.8791 33.9407 71.761 33.9407 71.5957C33.9407 71.3974 33.9107 71.261 33.8507 71.1868C33.7912 71.113 33.679 71.0757 33.514 71.0757H33.2918V72.0568H33.514Z" fill="#1F1F1F"/>
<path d="M39.249 67.5935H40.7757V73.2857H39.249V67.5935Z" fill="#1F1F1F"/>
<path d="M44.5402 72.048H45.9646V71.0591H45.7258C45.4302 71.0591 45.2083 71.0335 45.0602 70.9824C44.9119 70.9307 44.7983 70.8366 44.7191 70.7002C44.6791 70.6374 44.646 70.5718 44.6202 70.5035C44.5949 70.4355 44.5738 70.3557 44.5569 70.2646C44.5396 70.1735 44.5283 70.0655 44.5224 69.9402C44.5171 69.8152 44.5146 69.6674 44.5146 69.4968V69.1468C44.5146 68.4418 44.6308 67.9896 44.8635 67.7902C44.9152 67.7502 44.968 67.7163 45.0213 67.688C45.0752 67.6599 45.1449 67.6402 45.2302 67.6291C45.316 67.6174 45.4258 67.6085 45.5591 67.6024C45.693 67.5966 45.8624 67.5935 46.0669 67.5935H47.3813V68.8313H46.0413V69.8213H46.3146C46.5591 69.8213 46.7608 69.843 46.9202 69.8857C47.0794 69.928 47.2046 70.0063 47.2958 70.1202C47.3869 70.2335 47.4494 70.3885 47.4835 70.5846C47.5174 70.781 47.5346 71.0299 47.5346 71.3313V71.6813C47.5346 72.023 47.5146 72.2988 47.4746 72.5091C47.4352 72.7196 47.373 72.8788 47.288 72.9868C47.208 73.0841 47.118 73.1555 47.018 73.2013C46.9185 73.2466 46.7838 73.2746 46.6135 73.2857H44.5402V72.048Z" fill="#1F1F1F"/>
<path d="M52.7997 73.2857C52.4242 73.2857 52.1411 73.2702 51.9508 73.2391C51.7603 73.208 51.6197 73.1524 51.5286 73.0724C51.4375 72.9924 51.3703 72.8774 51.3275 72.7268C51.2853 72.5757 51.2642 72.3755 51.2642 72.1257V67.5935H52.7908V71.5702C52.7908 71.9177 52.8964 72.0913 53.1075 72.0913C53.323 72.0913 53.4308 71.9177 53.4308 71.5702V67.5935H54.9586V72.1257C54.9586 72.3755 54.9369 72.5757 54.8942 72.7268C54.8519 72.8774 54.7853 72.9924 54.6942 73.0724C54.603 73.1524 54.4608 73.208 54.2675 73.2391C54.0742 73.2702 53.7925 73.2857 53.423 73.2857H52.7997Z" fill="#1F1F1F"/>
</svg>
