<svg width="599" height="131" viewBox="0 0 599 131" fill="none" xmlns="http://www.w3.org/2000/svg">
<g filter="url(#filter0_d_129_631)">
<g clip-path="url(#clip0_129_631)">
<rect x="8" y="8.5" width="583" height="114" rx="4" fill="white"/>
<g clip-path="url(#clip1_129_631)">
<path d="M97 8.86963L140 122.87H8V8.86963H97Z" fill="#FA6564"/>
<path d="M62.5469 49.5417C62.5469 49.0989 62.7228 48.6743 63.0359 48.3613C63.3489 48.0482 63.7736 47.8723 64.2163 47.8723C68.6423 47.8772 72.8856 49.6376 76.0153 52.7672C79.1449 55.8969 80.9053 60.1403 80.9102 64.5664C80.9102 65.0091 80.7343 65.4338 80.4212 65.7468C80.1081 66.0599 79.6835 66.2358 79.2408 66.2358C78.798 66.2358 78.3734 66.0599 78.0603 65.7468C77.7473 65.4338 77.5714 65.0091 77.5714 64.5664C77.5674 61.0256 76.1591 57.6309 73.6554 55.1272C71.1517 52.6234 67.7571 51.2151 64.2163 51.2111C63.7736 51.2111 63.3489 51.0352 63.0359 50.7222C62.7228 50.4091 62.5469 49.9845 62.5469 49.5417ZM64.2163 57.8887C65.9873 57.8887 67.6858 58.5923 68.938 59.8446C70.1903 61.0969 70.8938 62.7954 70.8938 64.5664C70.8938 65.0091 71.0697 65.4338 71.3828 65.7468C71.6959 66.0599 72.1205 66.2358 72.5632 66.2358C73.006 66.2358 73.4306 66.0599 73.7437 65.7468C74.0567 65.4338 74.2326 65.0091 74.2326 64.5664C74.23 61.9107 73.1738 59.3645 71.296 57.4866C69.4181 55.6087 66.872 54.5526 64.2163 54.5499C63.7736 54.5499 63.3489 54.7258 63.0359 55.0389C62.7228 55.352 62.5469 55.7766 62.5469 56.2193C62.5469 56.6621 62.7228 57.0867 63.0359 57.3998C63.3489 57.7129 63.7736 57.8887 64.2163 57.8887ZM79.396 75.8165C80.3635 76.7866 80.9067 78.1008 80.9067 79.4709C80.9067 80.8409 80.3635 82.1551 79.396 83.1252L77.8769 84.8764C64.2046 97.9662 30.9338 64.7033 43.8214 50.9874L45.7412 49.318C46.7124 48.3776 48.0148 47.8574 49.3666 47.8698C50.7185 47.8823 52.011 48.4266 52.9647 49.3848C53.0164 49.4365 56.1098 53.4548 56.1098 53.4548C57.0277 54.4191 57.5386 55.7 57.5364 57.0313C57.5343 58.3627 57.0191 59.6419 56.0981 60.6032L54.1649 63.0339C55.2348 65.6333 56.8077 67.9958 58.7933 69.9854C60.779 71.9751 63.1382 73.5528 65.7355 74.6279L68.1811 72.6831C69.1425 71.7627 70.4215 71.2482 71.7524 71.2463C73.0833 71.2445 74.3638 71.7554 75.3277 72.673C75.3277 72.673 79.3443 75.7648 79.396 75.8165ZM77.0989 78.2439C77.0989 78.2439 73.1041 75.1705 73.0524 75.1187C72.7084 74.7777 72.2437 74.5864 71.7594 74.5864C71.2751 74.5864 70.8104 74.7777 70.4665 75.1187C70.4214 75.1655 67.0543 77.8482 67.0543 77.8482C66.8274 78.0288 66.5573 78.1472 66.2707 78.1917C65.9842 78.2362 65.6909 78.2053 65.4199 78.1019C62.0552 76.8492 58.999 74.8879 56.4584 72.351C53.9178 69.814 51.952 66.7607 50.6943 63.3978C50.5828 63.1231 50.5464 62.8237 50.589 62.5303C50.6315 62.2369 50.7514 61.9601 50.9364 61.7284C50.9364 61.7284 53.6191 58.3595 53.6641 58.3161C54.0051 57.9722 54.1965 57.5075 54.1965 57.0232C54.1965 56.5388 54.0051 56.0741 53.6641 55.7302C53.6124 55.6801 50.539 51.6819 50.539 51.6819C50.19 51.3689 49.7344 51.2013 49.2657 51.2134C48.797 51.2255 48.3507 51.4164 48.0183 51.747L46.0985 53.4164C36.6798 64.7417 65.5118 91.9747 75.4362 82.596L76.9571 80.8431C77.3134 80.513 77.5275 80.0573 77.554 79.5722C77.5805 79.0871 77.4173 78.6108 77.0989 78.2439Z" fill="white"/>
</g>
<path d="M180.912 29.428C180.912 29.892 180.464 30.308 179.952 30.308C179.76 30.308 179.568 30.244 179.376 30.116C177.952 29.124 175.92 27.172 174.48 25.604C174.304 25.396 174.144 25.3 174 25.3C173.856 25.3 173.728 25.396 173.552 25.604C172.272 27.172 170.24 29.252 168.736 30.404C168.448 30.628 168.176 30.708 167.936 30.708C167.424 30.708 167.072 30.324 167.072 29.892C167.072 29.636 167.216 29.348 167.552 29.14C169.264 28.084 171.248 25.988 172.416 24.516C172.816 24.02 173.328 23.748 173.872 23.748C174.4 23.748 174.944 24.004 175.456 24.516C176.944 26.052 178.624 27.524 180.4 28.644C180.768 28.868 180.912 29.156 180.912 29.428ZM176.224 29.364H171.936C171.44 29.364 171.2 29.012 171.2 28.676C171.2 28.324 171.44 27.972 171.936 27.972H176.224C176.72 27.972 176.96 28.324 176.96 28.676C176.96 29.012 176.72 29.364 176.224 29.364ZM176.816 30.836C177.936 30.868 178.448 31.3 178.448 32.036C178.448 33.988 175.072 37.38 173.808 37.38C173.296 37.38 172.88 36.996 172.88 36.596C172.88 36.34 173.04 36.084 173.424 35.908C174.912 35.22 176.608 33.156 176.608 32.484C176.608 32.308 176.464 32.244 176.32 32.244C175.2 32.244 170.496 32.276 169.888 32.292C169.872 32.292 169.872 32.292 169.856 32.292C169.376 32.292 169.152 31.956 169.152 31.604C169.152 31.236 169.392 30.868 169.856 30.852C170.384 30.836 172.976 30.836 174.928 30.836C175.728 30.836 176.432 30.836 176.816 30.836ZM197.2 33.732C196.144 34.276 194.752 33.972 194.24 32.532C193.68 30.98 194.544 29.828 195.52 29.524C195.984 29.38 196.464 29.316 196.896 29.38C196.88 29.028 196.864 28.548 196.848 28.084C195.504 28.212 194.176 28.404 193.344 28.532C192.192 28.708 191.44 28.916 190.96 28.996C189.888 29.188 189.568 27.588 190.832 27.38C191.472 27.268 192.512 27.156 193.184 27.044C193.984 26.916 195.424 26.74 196.832 26.612C196.832 26.516 196.832 26.404 196.832 26.324C196.848 25.332 196.752 25.268 196.752 24.756C196.752 23.588 198.368 23.7 198.432 24.708C198.448 25.076 198.4 25.812 198.368 26.244C198.368 26.324 198.352 26.404 198.352 26.484C198.816 26.452 199.232 26.436 199.584 26.436C200.368 26.436 200.928 26.42 202.016 26.436C203.36 26.468 203.296 28.164 202.016 28.068C200.88 27.972 200.496 27.972 199.504 27.956C199.136 27.956 198.752 27.972 198.336 27.988C198.352 28.5 198.368 28.996 198.368 29.46C198.368 29.684 198.4 30.02 198.416 30.372C199.84 32.612 198.144 36.004 196.448 37.364C195.376 38.212 193.984 37.076 195.376 36.084C196.144 35.54 196.816 34.644 197.2 33.732ZM197.184 31.124C197.104 31.028 197.024 30.932 196.928 30.852C196.704 30.66 196.24 30.628 195.904 30.788C195.52 30.964 195.264 31.46 195.44 32.004C195.728 32.868 197.12 32.868 197.28 31.732C197.328 31.396 197.28 31.252 197.184 31.124ZM224.128 27.172C224.656 27.924 223.568 28.74 223.136 28.052C222.96 27.78 222.272 27.124 221.968 26.948C221.216 26.5 221.968 25.62 222.672 25.988C223.072 26.196 223.824 26.756 224.128 27.172ZM222.464 28.372C222.96 29.14 221.872 29.924 221.456 29.22C221.296 28.932 220.608 28.244 220.32 28.052C219.584 27.572 220.384 26.756 221.072 27.156C221.456 27.38 222.176 27.94 222.464 28.372ZM221.264 35.844C221.76 36.916 220.208 37.86 219.696 36.836C218.768 35.012 217.408 32.932 216.304 31.636C215.248 30.404 215.248 29.268 216.496 27.972C217.584 26.836 218.816 25.652 219.776 24.356C220.512 23.38 221.952 24.516 221.2 25.444C220.4 26.42 218.704 27.812 217.712 28.804C217.024 29.492 216.992 29.972 217.52 30.628C219.12 32.628 220.48 34.132 221.264 35.844ZM247.84 29.076C247.568 29.364 247.088 29.444 246.688 29.092C246.272 28.724 245.392 28.34 244.576 28.436C243.6 28.548 243.344 27.124 244.496 27.028C245.648 26.932 247.248 27.332 247.824 27.94C248.208 28.34 248.112 28.788 247.84 29.076ZM240.176 32.292C240.208 33.14 240.272 33.972 240.304 34.66C240.432 36.948 238.384 36.916 237.072 36.276C235.168 35.348 235.696 34.212 236.544 33.284C237.04 32.756 237.856 32.132 238.8 31.588C238.784 30.916 238.768 30.228 238.768 29.588C238.112 29.716 237.456 29.732 236.848 29.652C235.664 29.508 235.856 27.908 237.184 28.18C237.584 28.26 238.176 28.196 238.8 28.036C238.8 27.284 238.768 26.772 238.736 26.164C238.672 24.98 240.432 25.012 240.352 26.148C240.32 26.5 240.304 27.012 240.272 27.492C240.512 27.38 240.72 27.252 240.912 27.124C241.776 26.548 242.752 27.812 241.632 28.484C241.152 28.772 240.64 29.012 240.128 29.204C240.112 29.7 240.112 30.292 240.128 30.9C240.576 30.692 241.04 30.532 241.472 30.404C242.848 30.004 244.208 30.132 245.024 30.42C247.664 31.332 247.232 33.492 246.416 34.676C245.376 36.18 243.136 36.692 241.28 35.636C240.368 35.108 240.992 33.796 241.968 34.276C243.216 34.884 244.24 34.9 245.008 33.876C245.392 33.364 245.84 32.228 244.448 31.716C243.824 31.476 242.976 31.428 241.856 31.684C241.28 31.812 240.72 32.036 240.176 32.292ZM238.816 33.092C238.352 33.428 237.952 33.78 237.616 34.148C237.28 34.516 237.28 34.932 237.648 35.108C238.336 35.444 238.8 35.396 238.816 34.772C238.832 34.34 238.832 33.748 238.816 33.092ZM268.56 29.332C268.272 29.348 267.856 29.364 267.392 29.364C265.504 29.364 264.176 29.364 264.128 27.956C264.112 27.636 264.112 27.284 264.112 26.916C264.112 26.324 264.128 25.716 264.144 25.156C264.176 24.436 264.72 23.924 265.536 23.892C265.84 23.876 266.512 23.876 267.168 23.876C267.632 23.876 268.08 23.876 268.352 23.892C269.536 23.956 270.032 24.596 270.032 25.316C270.032 25.716 270.032 26.116 270.032 26.516C270.032 28.916 270.064 31.396 270.064 33.428C270.064 34.18 270.08 34.852 270.08 35.412C270.08 36.548 269.52 37.54 267.696 37.54C266.576 37.54 266 37.396 266 36.692C266 36.324 266.224 35.988 266.624 35.988C266.672 35.988 266.704 36.004 266.752 36.004C267.056 36.052 267.344 36.1 267.6 36.1C268.128 36.1 268.528 35.908 268.544 35.124C268.56 34.484 268.576 33.796 268.576 33.108C268.576 32.052 268.56 30.98 268.56 29.988C268.56 29.764 268.56 29.54 268.56 29.332ZM266.544 33.86C266.512 34.692 265.984 35.3 265.008 35.38C264.64 35.412 264.128 35.428 263.6 35.428C260.944 35.428 260.48 35.396 260.48 33.076C260.48 32.612 260.496 32.164 260.512 31.732C260.56 30.9 261.12 30.324 261.984 30.292C262.368 30.276 262.96 30.26 263.536 30.26C264.128 30.26 264.704 30.276 265.04 30.292C265.824 30.324 266.496 30.916 266.528 31.716C266.544 32.132 266.56 32.58 266.56 33.028C266.56 33.3 266.56 33.588 266.544 33.86ZM258.656 36.9C258.656 37.364 258.272 37.588 257.888 37.588C257.504 37.588 257.12 37.364 257.12 36.932C257.12 36.916 257.12 36.916 257.12 36.9C257.232 33.972 257.2 28.916 257.232 25.444C257.232 23.876 258.32 23.876 259.984 23.876C260.592 23.876 261.248 23.876 261.552 23.892C262.368 23.924 262.944 24.436 262.976 25.156C262.992 25.716 263.008 26.324 263.008 26.916C263.008 28.964 262.992 29.364 259.824 29.364C259.408 29.364 259.008 29.348 258.72 29.332C258.72 29.748 258.72 30.228 258.72 30.756C258.72 32.468 258.704 34.644 258.656 36.9ZM265.52 26.1H268.528C268.528 25.076 268.496 25.06 267.024 25.06C265.744 25.06 265.568 25.06 265.536 25.572C265.536 25.732 265.52 25.908 265.52 26.1ZM268.56 28.18V27.156H265.52C265.52 27.348 265.536 27.524 265.536 27.684C265.552 28.132 265.6 28.196 267.296 28.196C267.824 28.196 268.336 28.196 268.56 28.18ZM258.72 26.1H261.6C261.6 25.908 261.584 25.716 261.584 25.556C261.552 25.108 261.472 25.06 260.192 25.06C258.88 25.06 258.768 25.108 258.736 25.684C258.736 25.812 258.72 25.956 258.72 26.1ZM261.6 27.156H258.72V28.18C258.944 28.196 259.424 28.196 259.904 28.196C261.456 28.196 261.568 28.132 261.584 27.684C261.584 27.524 261.6 27.348 261.6 27.156ZM264.464 34.1C265.104 34.052 265.104 33.812 265.104 32.5C265.104 31.492 265.008 31.476 263.504 31.476C261.968 31.476 261.936 31.524 261.936 32.692C261.936 33.012 261.936 33.348 261.952 33.604C261.984 34.1 262.384 34.116 263.52 34.116C263.888 34.116 264.256 34.116 264.464 34.1ZM292.448 31.588C292.576 32.756 290.992 33.076 290.768 31.972C290.512 30.692 289.856 29.46 288.992 28.868C288.224 28.34 289.088 27.156 290.048 27.876C291.184 28.724 292.288 30.228 292.448 31.588ZM285.456 34.228C284.432 35.892 283.008 35.748 282.112 34.788C280.96 33.54 280.432 31.684 280.304 29.668C280.24 28.756 280.208 28.468 280.224 27.892C280.256 26.884 281.808 26.676 281.856 27.876C281.888 28.5 281.824 28.532 281.856 29.268C281.92 30.948 282.224 32.532 283.12 33.396C283.536 33.796 283.744 33.844 284.096 33.364C284.288 33.092 284.512 32.676 284.624 32.42C285.056 31.492 286.384 32.164 286.08 32.996C285.92 33.444 285.632 33.94 285.456 34.228ZM315.296 29.316C315.296 29.78 314.848 30.276 314.304 30.276C314.144 30.276 313.952 30.212 313.776 30.1C312.336 29.156 310.272 27.22 308.88 25.652C308.704 25.444 308.56 25.332 308.416 25.332C308.272 25.332 308.144 25.444 307.984 25.652C306.736 27.252 304.576 29.348 303.088 30.468C302.832 30.66 302.592 30.74 302.368 30.74C301.856 30.74 301.488 30.34 301.488 29.924C301.488 29.668 301.616 29.428 301.92 29.236C303.648 28.228 305.728 26.1 306.88 24.58C307.264 24.068 307.776 23.828 308.304 23.828C308.848 23.828 309.392 24.084 309.84 24.564C311.328 26.164 313.088 27.652 314.944 28.74C315.2 28.884 315.296 29.092 315.296 29.316ZM311.232 29.812H305.856C305.36 29.812 305.12 29.46 305.12 29.108C305.12 28.756 305.36 28.404 305.856 28.404H311.232C311.728 28.404 311.968 28.756 311.968 29.108C311.968 29.46 311.728 29.812 311.232 29.812ZM312.976 35.38C312.928 36.244 312.272 36.996 311.2 37.028C310.272 37.06 309.344 37.076 308.432 37.076C307.536 37.076 306.64 37.06 305.744 37.028C304.576 36.98 303.984 36.324 303.936 35.396C303.92 35.108 303.92 34.772 303.92 34.436C303.92 33.988 303.92 33.524 303.936 33.156C303.968 32.404 304.432 31.62 305.712 31.572C306.384 31.556 307.2 31.54 308.064 31.54C309.12 31.54 310.256 31.556 311.28 31.572C312.256 31.588 312.928 32.292 312.976 33.012C312.992 33.348 313.008 33.748 313.008 34.164C313.008 34.564 312.992 34.98 312.976 35.38ZM310.704 35.652C311.44 35.62 311.44 35.108 311.44 34.388C311.44 33.188 311.408 32.9 310.672 32.884C310.08 32.868 309.392 32.852 308.672 32.852C307.808 32.852 306.928 32.868 306.176 32.884C305.44 32.9 305.424 33.396 305.424 34.292C305.424 35.476 305.568 35.636 306.192 35.652C306.88 35.668 307.632 35.684 308.4 35.684C309.184 35.684 309.968 35.668 310.704 35.652ZM327.36 33.972L327.264 34.132C327.04 34.5 326.8 34.932 326.512 35.428C325.856 36.58 324.336 35.684 325.04 34.628C325.248 34.308 325.392 34.148 325.52 33.988C326.24 32.9 327.152 31.332 327.648 30.084L327.68 29.7C327.632 29.684 327.568 29.684 327.472 29.732C327.056 29.924 326.704 30.18 326.32 30.42C325.168 31.14 324.64 29.54 325.552 29.108C326.144 28.836 327.008 28.42 327.824 28.084C327.936 26.916 328.032 25.908 328.096 25.22C328.192 24.1 329.808 24.324 329.664 25.268C329.584 25.844 329.472 26.628 329.36 27.556C329.984 27.572 330.416 28.34 329.696 29.364C329.616 29.476 329.376 29.924 329.056 30.5V30.58C329.536 30.228 330 29.924 330.432 29.7C333.28 28.18 335.824 28.708 336.976 30.02C338.144 31.332 337.872 33.492 335.456 35.236C334.88 35.652 333.936 36.148 333.184 36.404C332.128 36.772 331.392 35.236 332.672 34.772C333.408 34.5 333.968 34.26 334.368 33.988C336.064 32.852 336.256 31.604 335.552 30.868C334.832 30.132 333.168 29.908 330.96 31.044C330.128 31.476 329.504 31.892 328.944 32.388C328.88 33.828 328.912 35.188 329.072 36.196C329.168 36.772 328.768 37.156 328.336 37.22C327.904 37.284 327.44 37.028 327.376 36.34C327.312 35.748 327.312 34.932 327.36 33.972ZM350 31.236L349.728 31.316C348.32 31.764 347.712 31.956 347.232 32.1C345.968 32.468 345.536 30.772 346.864 30.452C347.584 30.276 348.768 29.972 349.472 29.812L349.92 29.716V29.508C349.888 28.58 349.84 27.924 349.808 27.236C349.76 26.148 351.472 26.052 351.488 27.172C351.488 27.684 351.472 28.42 351.44 29.172L351.424 29.38C352.48 29.156 353.808 28.884 355.12 28.66C355.12 28.18 355.104 27.732 355.104 27.332C355.104 26.98 355.104 26.82 355.088 26.692C355.072 26.564 355.088 26.42 355.072 26.068C355.04 25.076 356.672 24.948 356.672 26.084C356.672 26.628 356.64 27.092 356.608 27.54C356.592 27.812 356.576 28.132 356.56 28.452C356.704 28.436 356.832 28.404 356.976 28.388C357.888 28.276 358.784 28.164 359.632 28.212C360.944 28.292 360.688 29.86 359.392 29.78C358.592 29.732 357.952 29.748 357.136 29.812C356.912 29.828 356.704 29.86 356.48 29.876C356.464 30.148 356.416 30.436 356.384 30.708C356.224 31.796 355.904 32.788 355.152 33.3C354.544 33.716 353.728 33.748 353.184 33.06C352.96 32.788 352.736 32.516 352.56 32.212C352.144 31.508 353.008 30.74 353.632 31.556C354.096 32.164 354.368 32.084 354.592 31.748C354.848 31.348 354.992 30.74 355.056 30.052C353.728 30.26 352.48 30.548 351.424 30.82C351.44 31.572 351.456 32.34 351.504 32.9C351.632 34.628 352.144 35.172 353.488 35.204C354.48 35.236 355.168 34.996 356.096 34.772C357.312 34.484 357.68 36.02 356.544 36.34C355.44 36.644 354.16 36.708 353.232 36.612C351.136 36.388 350.368 35.396 350.144 33.22C350.08 32.644 350.032 31.908 350 31.236ZM370.56 33.38C370.208 33.38 369.872 33.14 369.872 32.644C369.872 32.628 369.872 32.628 369.872 32.612C369.872 32.5 369.872 32.356 369.872 32.212C369.872 30.804 369.744 27.908 369.664 25.444C369.664 25.428 369.664 25.412 369.664 25.396C369.664 24.804 370.112 24.516 370.576 24.516C371.04 24.516 371.52 24.82 371.52 25.444C371.52 27.316 371.312 30.788 371.312 32.26C371.312 32.356 371.312 32.452 371.312 32.532C371.328 33.236 370.768 33.38 370.56 33.38ZM371.712 35.524C371.712 36.308 371.04 36.612 370.592 36.612C370.016 36.612 369.472 36.132 369.472 35.524C369.472 34.948 369.904 34.388 370.592 34.388C371.216 34.388 371.712 34.788 371.712 35.524Z" fill="#FA6564"/>
<path d="M176.272 76.356C176.272 77.956 176.416 79.412 176.704 80.724C176.992 82.036 177.392 83.172 177.904 84.132C178.448 85.092 179.088 85.844 179.824 86.388C180.56 86.9 181.392 87.156 182.32 87.156C183.216 87.156 184.032 86.9 184.768 86.388C185.536 85.844 186.176 85.092 186.688 84.132C187.2 83.172 187.6 82.036 187.888 80.724C188.176 79.412 188.32 77.956 188.32 76.356C188.32 74.788 188.176 73.348 187.888 72.036C187.6 70.692 187.2 69.556 186.688 68.628C186.176 67.668 185.536 66.932 184.768 66.42C184.032 65.876 183.216 65.604 182.32 65.604C181.392 65.604 180.56 65.876 179.824 66.42C179.088 66.932 178.448 67.668 177.904 68.628C177.392 69.556 176.992 70.692 176.704 72.036C176.416 73.348 176.272 74.788 176.272 76.356ZM166.96 76.356C166.96 73.476 167.328 70.868 168.064 68.532C168.832 66.164 169.888 64.148 171.232 62.484C172.608 60.82 174.224 59.54 176.08 58.644C177.968 57.716 180.048 57.252 182.32 57.252C184.56 57.252 186.624 57.716 188.512 58.644C190.4 59.54 192.016 60.82 193.36 62.484C194.704 64.148 195.744 66.164 196.48 68.532C197.248 70.868 197.632 73.476 197.632 76.356C197.632 79.236 197.248 81.86 196.48 84.228C195.744 86.564 194.704 88.58 193.36 90.276C192.016 91.94 190.4 93.236 188.512 94.164C186.624 95.06 184.56 95.508 182.32 95.508C180.048 95.508 177.968 95.06 176.08 94.164C174.224 93.236 172.608 91.94 171.232 90.276C169.888 88.58 168.832 86.564 168.064 84.228C167.328 81.86 166.96 79.236 166.96 76.356ZM229.297 58.308L219.025 70.116H219.217C220.113 69.572 220.849 69.252 221.425 69.156C222.001 69.028 222.513 68.964 222.961 68.964C224.721 68.964 226.337 69.3 227.809 69.972C229.281 70.644 230.561 71.572 231.649 72.756C232.737 73.908 233.585 75.268 234.193 76.836C234.801 78.404 235.105 80.084 235.105 81.876C235.105 83.796 234.753 85.588 234.049 87.252C233.345 88.884 232.321 90.324 230.977 91.572C229.665 92.788 228.065 93.748 226.177 94.452C224.289 95.156 222.161 95.508 219.793 95.508C217.393 95.508 215.249 95.156 213.361 94.452C211.473 93.748 209.857 92.788 208.513 91.572C207.201 90.356 206.193 88.948 205.489 87.348C204.785 85.716 204.433 83.988 204.433 82.164C204.433 80.116 204.881 77.908 205.777 75.54C206.705 73.14 208.113 70.788 210.001 68.484L218.401 58.308H229.297ZM213.745 82.068C213.745 82.9 213.905 83.684 214.225 84.42C214.545 85.124 214.977 85.748 215.521 86.292C216.065 86.836 216.689 87.268 217.393 87.588C218.129 87.908 218.913 88.068 219.745 88.068C220.577 88.068 221.345 87.908 222.049 87.588C222.785 87.268 223.425 86.836 223.969 86.292C224.513 85.748 224.945 85.124 225.265 84.42C225.585 83.684 225.745 82.9 225.745 82.068C225.745 81.236 225.585 80.468 225.265 79.764C224.945 79.028 224.513 78.388 223.969 77.844C223.425 77.3 222.785 76.868 222.049 76.548C221.345 76.228 220.577 76.068 219.745 76.068C218.913 76.068 218.129 76.228 217.393 76.548C216.689 76.868 216.065 77.3 215.521 77.844C214.977 78.388 214.545 79.028 214.225 79.764C213.905 80.468 213.745 81.236 213.745 82.068ZM240.85 78.036H254.626V85.284H240.85V78.036ZM285.303 58.308L275.031 70.116H275.223C276.119 69.572 276.855 69.252 277.431 69.156C278.007 69.028 278.519 68.964 278.967 68.964C280.727 68.964 282.343 69.3 283.815 69.972C285.287 70.644 286.567 71.572 287.655 72.756C288.743 73.908 289.591 75.268 290.199 76.836C290.807 78.404 291.111 80.084 291.111 81.876C291.111 83.796 290.759 85.588 290.055 87.252C289.351 88.884 288.327 90.324 286.983 91.572C285.671 92.788 284.071 93.748 282.183 94.452C280.295 95.156 278.167 95.508 275.799 95.508C273.399 95.508 271.255 95.156 269.367 94.452C267.479 93.748 265.863 92.788 264.519 91.572C263.207 90.356 262.199 88.948 261.495 87.348C260.791 85.716 260.439 83.988 260.439 82.164C260.439 80.116 260.887 77.908 261.783 75.54C262.711 73.14 264.119 70.788 266.007 68.484L274.407 58.308H285.303ZM269.751 82.068C269.751 82.9 269.911 83.684 270.231 84.42C270.551 85.124 270.983 85.748 271.527 86.292C272.071 86.836 272.695 87.268 273.399 87.588C274.135 87.908 274.919 88.068 275.751 88.068C276.583 88.068 277.351 87.908 278.055 87.588C278.791 87.268 279.431 86.836 279.975 86.292C280.519 85.748 280.951 85.124 281.271 84.42C281.591 83.684 281.751 82.9 281.751 82.068C281.751 81.236 281.591 80.468 281.271 79.764C280.951 79.028 280.519 78.388 279.975 77.844C279.431 77.3 278.791 76.868 278.055 76.548C277.351 76.228 276.583 76.068 275.751 76.068C274.919 76.068 274.135 76.228 273.399 76.548C272.695 76.868 272.071 77.3 271.527 77.844C270.983 78.388 270.551 79.028 270.231 79.764C269.911 80.468 269.751 81.236 269.751 82.068ZM316.406 79.86V65.604L308.102 79.86H316.406ZM325.142 79.86H329.51V87.06H325.142V94.5H316.406V87.06H298.934V81.012L312.758 58.308H325.142V79.86ZM362.568 66.276H350.04L349.416 70.26C349.992 70.196 350.52 70.148 351 70.116C351.48 70.052 351.976 70.02 352.488 70.02C354.312 70.02 356.008 70.34 357.576 70.98C359.144 71.62 360.488 72.5 361.608 73.62C362.728 74.74 363.608 76.084 364.248 77.652C364.888 79.22 365.208 80.932 365.208 82.788C365.208 84.74 364.84 86.5 364.104 88.068C363.4 89.636 362.392 90.98 361.08 92.1C359.768 93.188 358.168 94.02 356.28 94.596C354.392 95.204 352.296 95.508 349.992 95.508C347.816 95.508 345.736 95.236 343.752 94.692C341.8 94.18 339.96 93.38 338.232 92.292L339.624 83.46C341.224 84.836 342.856 85.892 344.52 86.628C346.184 87.332 347.768 87.684 349.272 87.684C351.192 87.684 352.712 87.172 353.832 86.148C354.952 85.092 355.512 83.796 355.512 82.26C355.512 80.468 354.76 79.028 353.256 77.94C351.752 76.82 349.784 76.26 347.352 76.26C346.264 76.26 345.144 76.388 343.992 76.644C342.84 76.868 341.704 77.236 340.584 77.748L343.608 58.308H362.568V66.276ZM383.385 76.356C383.385 77.956 383.529 79.412 383.817 80.724C384.105 82.036 384.505 83.172 385.017 84.132C385.561 85.092 386.201 85.844 386.937 86.388C387.673 86.9 388.505 87.156 389.433 87.156C390.329 87.156 391.145 86.9 391.881 86.388C392.649 85.844 393.289 85.092 393.801 84.132C394.313 83.172 394.713 82.036 395.001 80.724C395.289 79.412 395.433 77.956 395.433 76.356C395.433 74.788 395.289 73.348 395.001 72.036C394.713 70.692 394.313 69.556 393.801 68.628C393.289 67.668 392.649 66.932 391.881 66.42C391.145 65.876 390.329 65.604 389.433 65.604C388.505 65.604 387.673 65.876 386.937 66.42C386.201 66.932 385.561 67.668 385.017 68.628C384.505 69.556 384.105 70.692 383.817 72.036C383.529 73.348 383.385 74.788 383.385 76.356ZM374.073 76.356C374.073 73.476 374.441 70.868 375.177 68.532C375.945 66.164 377.001 64.148 378.345 62.484C379.721 60.82 381.337 59.54 383.193 58.644C385.081 57.716 387.161 57.252 389.433 57.252C391.673 57.252 393.737 57.716 395.625 58.644C397.513 59.54 399.129 60.82 400.473 62.484C401.817 64.148 402.857 66.164 403.593 68.532C404.361 70.868 404.745 73.476 404.745 76.356C404.745 79.236 404.361 81.86 403.593 84.228C402.857 86.564 401.817 88.58 400.473 90.276C399.129 91.94 397.513 93.236 395.625 94.164C393.737 95.06 391.673 95.508 389.433 95.508C387.161 95.508 385.081 95.06 383.193 94.164C381.337 93.236 379.721 91.94 378.345 90.276C377.001 88.58 375.945 86.564 375.177 84.228C374.441 81.86 374.073 79.236 374.073 76.356ZM410.538 78.036H424.314V85.284H410.538V78.036ZM455.999 66.276H443.471L442.847 70.26C443.423 70.196 443.951 70.148 444.431 70.116C444.911 70.052 445.407 70.02 445.919 70.02C447.743 70.02 449.439 70.34 451.007 70.98C452.575 71.62 453.919 72.5 455.039 73.62C456.159 74.74 457.039 76.084 457.679 77.652C458.319 79.22 458.639 80.932 458.639 82.788C458.639 84.74 458.271 86.5 457.535 88.068C456.831 89.636 455.823 90.98 454.511 92.1C453.199 93.188 451.599 94.02 449.711 94.596C447.823 95.204 445.727 95.508 443.423 95.508C441.247 95.508 439.167 95.236 437.183 94.692C435.231 94.18 433.391 93.38 431.663 92.292L433.055 83.46C434.655 84.836 436.287 85.892 437.951 86.628C439.615 87.332 441.199 87.684 442.703 87.684C444.623 87.684 446.143 87.172 447.263 86.148C448.383 85.092 448.943 83.796 448.943 82.26C448.943 80.468 448.191 79.028 446.687 77.94C445.183 76.82 443.215 76.26 440.783 76.26C439.695 76.26 438.575 76.388 437.423 76.644C436.271 76.868 435.135 77.236 434.015 77.748L437.039 58.308H455.999V66.276ZM492.416 58.308L482.144 70.116H482.336C483.232 69.572 483.968 69.252 484.544 69.156C485.12 69.028 485.632 68.964 486.08 68.964C487.84 68.964 489.456 69.3 490.928 69.972C492.4 70.644 493.68 71.572 494.768 72.756C495.856 73.908 496.704 75.268 497.312 76.836C497.92 78.404 498.224 80.084 498.224 81.876C498.224 83.796 497.872 85.588 497.168 87.252C496.464 88.884 495.44 90.324 494.096 91.572C492.784 92.788 491.184 93.748 489.296 94.452C487.408 95.156 485.28 95.508 482.912 95.508C480.512 95.508 478.368 95.156 476.48 94.452C474.592 93.748 472.976 92.788 471.632 91.572C470.32 90.356 469.312 88.948 468.608 87.348C467.904 85.716 467.552 83.988 467.552 82.164C467.552 80.116 468 77.908 468.896 75.54C469.824 73.14 471.232 70.788 473.12 68.484L481.52 58.308H492.416ZM476.864 82.068C476.864 82.9 477.024 83.684 477.344 84.42C477.664 85.124 478.096 85.748 478.64 86.292C479.184 86.836 479.808 87.268 480.512 87.588C481.248 87.908 482.032 88.068 482.864 88.068C483.696 88.068 484.464 87.908 485.168 87.588C485.904 87.268 486.544 86.836 487.088 86.292C487.632 85.748 488.064 85.124 488.384 84.42C488.704 83.684 488.864 82.9 488.864 82.068C488.864 81.236 488.704 80.468 488.384 79.764C488.064 79.028 487.632 78.388 487.088 77.844C486.544 77.3 485.904 76.868 485.168 76.548C484.464 76.228 483.696 76.068 482.864 76.068C482.032 76.068 481.248 76.228 480.512 76.548C479.808 76.868 479.184 77.3 478.64 77.844C478.096 78.388 477.664 79.028 477.344 79.764C477.024 80.468 476.864 81.236 476.864 82.068ZM534.449 94.5H505.313L514.289 85.188C516.657 82.724 518.513 80.644 519.857 78.948C521.201 77.22 522.193 75.764 522.833 74.58C523.505 73.396 523.921 72.436 524.081 71.7C524.241 70.964 524.321 70.34 524.321 69.828C524.321 69.284 524.225 68.756 524.033 68.244C523.873 67.732 523.617 67.284 523.265 66.9C522.913 66.484 522.481 66.164 521.969 65.94C521.489 65.684 520.913 65.556 520.241 65.556C518.961 65.556 517.953 65.972 517.217 66.804C516.513 67.636 516.161 68.676 516.161 69.924C516.161 70.276 516.209 70.788 516.305 71.46H506.033C506.033 69.348 506.369 67.428 507.041 65.7C507.745 63.972 508.721 62.484 509.969 61.236C511.217 59.988 512.689 59.028 514.385 58.356C516.113 57.684 518.001 57.348 520.049 57.348C522.065 57.348 523.921 57.668 525.617 58.308C527.345 58.948 528.833 59.844 530.081 60.996C531.329 62.148 532.305 63.524 533.009 65.124C533.713 66.692 534.065 68.404 534.065 70.26C534.065 72.244 533.633 74.084 532.769 75.78C531.937 77.444 530.593 79.156 528.737 80.916L522.737 86.532H534.449V94.5ZM551.666 76.356C551.666 77.956 551.81 79.412 552.098 80.724C552.386 82.036 552.786 83.172 553.298 84.132C553.842 85.092 554.482 85.844 555.218 86.388C555.954 86.9 556.786 87.156 557.714 87.156C558.61 87.156 559.426 86.9 560.162 86.388C560.93 85.844 561.57 85.092 562.082 84.132C562.594 83.172 562.994 82.036 563.282 80.724C563.57 79.412 563.714 77.956 563.714 76.356C563.714 74.788 563.57 73.348 563.282 72.036C562.994 70.692 562.594 69.556 562.082 68.628C561.57 67.668 560.93 66.932 560.162 66.42C559.426 65.876 558.61 65.604 557.714 65.604C556.786 65.604 555.954 65.876 555.218 66.42C554.482 66.932 553.842 67.668 553.298 68.628C552.786 69.556 552.386 70.692 552.098 72.036C551.81 73.348 551.666 74.788 551.666 76.356ZM542.354 76.356C542.354 73.476 542.722 70.868 543.458 68.532C544.226 66.164 545.282 64.148 546.626 62.484C548.002 60.82 549.618 59.54 551.474 58.644C553.362 57.716 555.442 57.252 557.714 57.252C559.954 57.252 562.018 57.716 563.906 58.644C565.794 59.54 567.41 60.82 568.754 62.484C570.098 64.148 571.138 66.164 571.874 68.532C572.642 70.868 573.026 73.476 573.026 76.356C573.026 79.236 572.642 81.86 571.874 84.228C571.138 86.564 570.098 88.58 568.754 90.276C567.41 91.94 565.794 93.236 563.906 94.164C562.018 95.06 559.954 95.508 557.714 95.508C555.442 95.508 553.362 95.06 551.474 94.164C549.618 93.236 548.002 91.94 546.626 90.276C545.282 88.58 544.226 86.564 543.458 84.228C542.722 81.86 542.354 79.236 542.354 76.356Z" fill="#FA6564"/>
</g>
</g>
<defs>
<filter id="filter0_d_129_631" x="0" y="0.5" width="599" height="130" filterUnits="userSpaceOnUse" color-interpolation-filters="sRGB">
<feFlood flood-opacity="0" result="BackgroundImageFix"/>
<feColorMatrix in="SourceAlpha" type="matrix" values="0 0 0 0 0 0 0 0 0 0 0 0 0 0 0 0 0 0 127 0" result="hardAlpha"/>
<feOffset/>
<feGaussianBlur stdDeviation="4"/>
<feComposite in2="hardAlpha" operator="out"/>
<feColorMatrix type="matrix" values="0 0 0 0 0 0 0 0 0 0 0 0 0 0 0 0 0 0 0.25 0"/>
<feBlend mode="normal" in2="BackgroundImageFix" result="effect1_dropShadow_129_631"/>
<feBlend mode="normal" in="SourceGraphic" in2="effect1_dropShadow_129_631" result="shape"/>
</filter>
<clipPath id="clip0_129_631">
<rect x="8" y="8.5" width="583" height="114" rx="4" fill="white"/>
</clipPath>
<clipPath id="clip1_129_631">
<rect x="8" y="9.5" width="132" height="113" rx="2" fill="white"/>
</clipPath>
</defs>
</svg>
