<svg width="583" height="113" viewBox="0 0 583 113" fill="none" xmlns="http://www.w3.org/2000/svg">
<g clip-path="url(#clip0_129_631)">
<rect width="583" height="113" rx="4" fill="white"/>
<g clip-path="url(#clip1_129_631)">
<path d="M89 -0.630371L132 113.37H0V-0.630371H89Z" fill="#FA6564"/>
<path d="M54.5469 40.0417C54.5469 39.5989 54.7228 39.1743 55.0359 38.8613C55.3489 38.5482 55.7736 38.3723 56.2163 38.3723C60.6423 38.3772 64.8856 40.1376 68.0153 43.2672C71.1449 46.3969 72.9053 50.6403 72.9102 55.0664C72.9102 55.5091 72.7343 55.9338 72.4212 56.2468C72.1081 56.5599 71.6835 56.7358 71.2408 56.7358C70.798 56.7358 70.3734 56.5599 70.0603 56.2468C69.7473 55.9338 69.5714 55.5091 69.5714 55.0664C69.5674 51.5256 68.1591 48.1309 65.6554 45.6272C63.1517 43.1234 59.7571 41.7151 56.2163 41.7111C55.7736 41.7111 55.3489 41.5352 55.0359 41.2222C54.7228 40.9091 54.5469 40.4845 54.5469 40.0417ZM56.2163 48.3887C57.9873 48.3887 59.6858 49.0923 60.938 50.3446C62.1903 51.5969 62.8938 53.2954 62.8938 55.0664C62.8938 55.5091 63.0697 55.9338 63.3828 56.2468C63.6959 56.5599 64.1205 56.7358 64.5632 56.7358C65.006 56.7358 65.4306 56.5599 65.7437 56.2468C66.0567 55.9338 66.2326 55.5091 66.2326 55.0664C66.23 52.4107 65.1738 49.8645 63.296 47.9866C61.4181 46.1087 58.872 45.0526 56.2163 45.0499C55.7736 45.0499 55.3489 45.2258 55.0359 45.5389C54.7228 45.852 54.5469 46.2766 54.5469 46.7193C54.5469 47.1621 54.7228 47.5867 55.0359 47.8998C55.3489 48.2129 55.7736 48.3887 56.2163 48.3887ZM71.396 66.3165C72.3635 67.2866 72.9067 68.6008 72.9067 69.9709C72.9067 71.3409 72.3635 72.6551 71.396 73.6252L69.8769 75.3764C56.2046 88.4662 22.9338 55.2033 35.8214 41.4874L37.7412 39.818C38.7124 38.8776 40.0148 38.3574 41.3666 38.3698C42.7185 38.3823 44.011 38.9266 44.9647 39.8848C45.0164 39.9365 48.1098 43.9548 48.1098 43.9548C49.0277 44.9191 49.5386 46.2 49.5364 47.5313C49.5343 48.8627 49.0191 50.1419 48.0981 51.1032L46.1649 53.5339C47.2348 56.1333 48.8077 58.4958 50.7933 60.4854C52.779 62.4751 55.1382 64.0528 57.7355 65.1279L60.1811 63.1831C61.1425 62.2627 62.4215 61.7482 63.7524 61.7463C65.0833 61.7445 66.3638 62.2554 67.3277 63.173C67.3277 63.173 71.3443 66.2648 71.396 66.3165ZM69.0989 68.7439C69.0989 68.7439 65.1041 65.6705 65.0524 65.6187C64.7084 65.2777 64.2437 65.0864 63.7594 65.0864C63.2751 65.0864 62.8104 65.2777 62.4665 65.6187C62.4214 65.6655 59.0543 68.3482 59.0543 68.3482C58.8274 68.5288 58.5573 68.6472 58.2707 68.6917C57.9842 68.7362 57.6909 68.7053 57.4199 68.6019C54.0552 67.3492 50.999 65.3879 48.4584 62.851C45.9178 60.314 43.952 57.2607 42.6943 53.8978C42.5828 53.6231 42.5464 53.3237 42.589 53.0303C42.6315 52.7369 42.7514 52.4601 42.9364 52.2284C42.9364 52.2284 45.6191 48.8595 45.6641 48.8161C46.0051 48.4722 46.1965 48.0075 46.1965 47.5232C46.1965 47.0388 46.0051 46.5741 45.6641 46.2302C45.6124 46.1801 42.539 42.1819 42.539 42.1819C42.19 41.8689 41.7344 41.7013 41.2657 41.7134C40.797 41.7255 40.3507 41.9164 40.0183 42.247L38.0985 43.9164C28.6798 55.2417 57.5118 82.4747 67.4362 73.096L68.9571 71.3431C69.3134 71.013 69.5275 70.5573 69.554 70.0722C69.5805 69.5871 69.4173 69.1108 69.0989 68.7439Z" fill="white"/>
</g>
<path d="M172.912 32.428C172.912 32.892 172.464 33.308 171.952 33.308C171.76 33.308 171.568 33.244 171.376 33.116C169.952 32.124 167.92 30.172 166.48 28.604C166.304 28.396 166.144 28.3 166 28.3C165.856 28.3 165.728 28.396 165.552 28.604C164.272 30.172 162.24 32.252 160.736 33.404C160.448 33.628 160.176 33.708 159.936 33.708C159.424 33.708 159.072 33.324 159.072 32.892C159.072 32.636 159.216 32.348 159.552 32.14C161.264 31.084 163.248 28.988 164.416 27.516C164.816 27.02 165.328 26.748 165.872 26.748C166.4 26.748 166.944 27.004 167.456 27.516C168.944 29.052 170.624 30.524 172.4 31.644C172.768 31.868 172.912 32.156 172.912 32.428ZM168.224 32.364H163.936C163.44 32.364 163.2 32.012 163.2 31.676C163.2 31.324 163.44 30.972 163.936 30.972H168.224C168.72 30.972 168.96 31.324 168.96 31.676C168.96 32.012 168.72 32.364 168.224 32.364ZM168.816 33.836C169.936 33.868 170.448 34.3 170.448 35.036C170.448 36.988 167.072 40.38 165.808 40.38C165.296 40.38 164.88 39.996 164.88 39.596C164.88 39.34 165.04 39.084 165.424 38.908C166.912 38.22 168.608 36.156 168.608 35.484C168.608 35.308 168.464 35.244 168.32 35.244C167.2 35.244 162.496 35.276 161.888 35.292C161.872 35.292 161.872 35.292 161.856 35.292C161.376 35.292 161.152 34.956 161.152 34.604C161.152 34.236 161.392 33.868 161.856 33.852C162.384 33.836 164.976 33.836 166.928 33.836C167.728 33.836 168.432 33.836 168.816 33.836ZM189.2 36.732C188.144 37.276 186.752 36.972 186.24 35.532C185.68 33.98 186.544 32.828 187.52 32.524C187.984 32.38 188.464 32.316 188.896 32.38C188.88 32.028 188.864 31.548 188.848 31.084C187.504 31.212 186.176 31.404 185.344 31.532C184.192 31.708 183.44 31.916 182.96 31.996C181.888 32.188 181.568 30.588 182.832 30.38C183.472 30.268 184.512 30.156 185.184 30.044C185.984 29.916 187.424 29.74 188.832 29.612C188.832 29.516 188.832 29.404 188.832 29.324C188.848 28.332 188.752 28.268 188.752 27.756C188.752 26.588 190.368 26.7 190.432 27.708C190.448 28.076 190.4 28.812 190.368 29.244C190.368 29.324 190.352 29.404 190.352 29.484C190.816 29.452 191.232 29.436 191.584 29.436C192.368 29.436 192.928 29.42 194.016 29.436C195.36 29.468 195.296 31.164 194.016 31.068C192.88 30.972 192.496 30.972 191.504 30.956C191.136 30.956 190.752 30.972 190.336 30.988C190.352 31.5 190.368 31.996 190.368 32.46C190.368 32.684 190.4 33.02 190.416 33.372C191.84 35.612 190.144 39.004 188.448 40.364C187.376 41.212 185.984 40.076 187.376 39.084C188.144 38.54 188.816 37.644 189.2 36.732ZM189.184 34.124C189.104 34.028 189.024 33.932 188.928 33.852C188.704 33.66 188.24 33.628 187.904 33.788C187.52 33.964 187.264 34.46 187.44 35.004C187.728 35.868 189.12 35.868 189.28 34.732C189.328 34.396 189.28 34.252 189.184 34.124ZM216.128 30.172C216.656 30.924 215.568 31.74 215.136 31.052C214.96 30.78 214.272 30.124 213.968 29.948C213.216 29.5 213.968 28.62 214.672 28.988C215.072 29.196 215.824 29.756 216.128 30.172ZM214.464 31.372C214.96 32.14 213.872 32.924 213.456 32.22C213.296 31.932 212.608 31.244 212.32 31.052C211.584 30.572 212.384 29.756 213.072 30.156C213.456 30.38 214.176 30.94 214.464 31.372ZM213.264 38.844C213.76 39.916 212.208 40.86 211.696 39.836C210.768 38.012 209.408 35.932 208.304 34.636C207.248 33.404 207.248 32.268 208.496 30.972C209.584 29.836 210.816 28.652 211.776 27.356C212.512 26.38 213.952 27.516 213.2 28.444C212.4 29.42 210.704 30.812 209.712 31.804C209.024 32.492 208.992 32.972 209.52 33.628C211.12 35.628 212.48 37.132 213.264 38.844ZM239.84 32.076C239.568 32.364 239.088 32.444 238.688 32.092C238.272 31.724 237.392 31.34 236.576 31.436C235.6 31.548 235.344 30.124 236.496 30.028C237.648 29.932 239.248 30.332 239.824 30.94C240.208 31.34 240.112 31.788 239.84 32.076ZM232.176 35.292C232.208 36.14 232.272 36.972 232.304 37.66C232.432 39.948 230.384 39.916 229.072 39.276C227.168 38.348 227.696 37.212 228.544 36.284C229.04 35.756 229.856 35.132 230.8 34.588C230.784 33.916 230.768 33.228 230.768 32.588C230.112 32.716 229.456 32.732 228.848 32.652C227.664 32.508 227.856 30.908 229.184 31.18C229.584 31.26 230.176 31.196 230.8 31.036C230.8 30.284 230.768 29.772 230.736 29.164C230.672 27.98 232.432 28.012 232.352 29.148C232.32 29.5 232.304 30.012 232.272 30.492C232.512 30.38 232.72 30.252 232.912 30.124C233.776 29.548 234.752 30.812 233.632 31.484C233.152 31.772 232.64 32.012 232.128 32.204C232.112 32.7 232.112 33.292 232.128 33.9C232.576 33.692 233.04 33.532 233.472 33.404C234.848 33.004 236.208 33.132 237.024 33.42C239.664 34.332 239.232 36.492 238.416 37.676C237.376 39.18 235.136 39.692 233.28 38.636C232.368 38.108 232.992 36.796 233.968 37.276C235.216 37.884 236.24 37.9 237.008 36.876C237.392 36.364 237.84 35.228 236.448 34.716C235.824 34.476 234.976 34.428 233.856 34.684C233.28 34.812 232.72 35.036 232.176 35.292ZM230.816 36.092C230.352 36.428 229.952 36.78 229.616 37.148C229.28 37.516 229.28 37.932 229.648 38.108C230.336 38.444 230.8 38.396 230.816 37.772C230.832 37.34 230.832 36.748 230.816 36.092ZM260.56 32.332C260.272 32.348 259.856 32.364 259.392 32.364C257.504 32.364 256.176 32.364 256.128 30.956C256.112 30.636 256.112 30.284 256.112 29.916C256.112 29.324 256.128 28.716 256.144 28.156C256.176 27.436 256.72 26.924 257.536 26.892C257.84 26.876 258.512 26.876 259.168 26.876C259.632 26.876 260.08 26.876 260.352 26.892C261.536 26.956 262.032 27.596 262.032 28.316C262.032 28.716 262.032 29.116 262.032 29.516C262.032 31.916 262.064 34.396 262.064 36.428C262.064 37.18 262.08 37.852 262.08 38.412C262.08 39.548 261.52 40.54 259.696 40.54C258.576 40.54 258 40.396 258 39.692C258 39.324 258.224 38.988 258.624 38.988C258.672 38.988 258.704 39.004 258.752 39.004C259.056 39.052 259.344 39.1 259.6 39.1C260.128 39.1 260.528 38.908 260.544 38.124C260.56 37.484 260.576 36.796 260.576 36.108C260.576 35.052 260.56 33.98 260.56 32.988C260.56 32.764 260.56 32.54 260.56 32.332ZM258.544 36.86C258.512 37.692 257.984 38.3 257.008 38.38C256.64 38.412 256.128 38.428 255.6 38.428C252.944 38.428 252.48 38.396 252.48 36.076C252.48 35.612 252.496 35.164 252.512 34.732C252.56 33.9 253.12 33.324 253.984 33.292C254.368 33.276 254.96 33.26 255.536 33.26C256.128 33.26 256.704 33.276 257.04 33.292C257.824 33.324 258.496 33.916 258.528 34.716C258.544 35.132 258.56 35.58 258.56 36.028C258.56 36.3 258.56 36.588 258.544 36.86ZM250.656 39.9C250.656 40.364 250.272 40.588 249.888 40.588C249.504 40.588 249.12 40.364 249.12 39.932C249.12 39.916 249.12 39.916 249.12 39.9C249.232 36.972 249.2 31.916 249.232 28.444C249.232 26.876 250.32 26.876 251.984 26.876C252.592 26.876 253.248 26.876 253.552 26.892C254.368 26.924 254.944 27.436 254.976 28.156C254.992 28.716 255.008 29.324 255.008 29.916C255.008 31.964 254.992 32.364 251.824 32.364C251.408 32.364 251.008 32.348 250.72 32.332C250.72 32.748 250.72 33.228 250.72 33.756C250.72 35.468 250.704 37.644 250.656 39.9ZM257.52 29.1H260.528C260.528 28.076 260.496 28.06 259.024 28.06C257.744 28.06 257.568 28.06 257.536 28.572C257.536 28.732 257.52 28.908 257.52 29.1ZM260.56 31.18V30.156H257.52C257.52 30.348 257.536 30.524 257.536 30.684C257.552 31.132 257.6 31.196 259.296 31.196C259.824 31.196 260.336 31.196 260.56 31.18ZM250.72 29.1H253.6C253.6 28.908 253.584 28.716 253.584 28.556C253.552 28.108 253.472 28.06 252.192 28.06C250.88 28.06 250.768 28.108 250.736 28.684C250.736 28.812 250.72 28.956 250.72 29.1ZM253.6 30.156H250.72V31.18C250.944 31.196 251.424 31.196 251.904 31.196C253.456 31.196 253.568 31.132 253.584 30.684C253.584 30.524 253.6 30.348 253.6 30.156ZM256.464 37.1C257.104 37.052 257.104 36.812 257.104 35.5C257.104 34.492 257.008 34.476 255.504 34.476C253.968 34.476 253.936 34.524 253.936 35.692C253.936 36.012 253.936 36.348 253.952 36.604C253.984 37.1 254.384 37.116 255.52 37.116C255.888 37.116 256.256 37.116 256.464 37.1ZM284.448 34.588C284.576 35.756 282.992 36.076 282.768 34.972C282.512 33.692 281.856 32.46 280.992 31.868C280.224 31.34 281.088 30.156 282.048 30.876C283.184 31.724 284.288 33.228 284.448 34.588ZM277.456 37.228C276.432 38.892 275.008 38.748 274.112 37.788C272.96 36.54 272.432 34.684 272.304 32.668C272.24 31.756 272.208 31.468 272.224 30.892C272.256 29.884 273.808 29.676 273.856 30.876C273.888 31.5 273.824 31.532 273.856 32.268C273.92 33.948 274.224 35.532 275.12 36.396C275.536 36.796 275.744 36.844 276.096 36.364C276.288 36.092 276.512 35.676 276.624 35.42C277.056 34.492 278.384 35.164 278.08 35.996C277.92 36.444 277.632 36.94 277.456 37.228ZM307.296 32.316C307.296 32.78 306.848 33.276 306.304 33.276C306.144 33.276 305.952 33.212 305.776 33.1C304.336 32.156 302.272 30.22 300.88 28.652C300.704 28.444 300.56 28.332 300.416 28.332C300.272 28.332 300.144 28.444 299.984 28.652C298.736 30.252 296.576 32.348 295.088 33.468C294.832 33.66 294.592 33.74 294.368 33.74C293.856 33.74 293.488 33.34 293.488 32.924C293.488 32.668 293.616 32.428 293.92 32.236C295.648 31.228 297.728 29.1 298.88 27.58C299.264 27.068 299.776 26.828 300.304 26.828C300.848 26.828 301.392 27.084 301.84 27.564C303.328 29.164 305.088 30.652 306.944 31.74C307.2 31.884 307.296 32.092 307.296 32.316ZM303.232 32.812H297.856C297.36 32.812 297.12 32.46 297.12 32.108C297.12 31.756 297.36 31.404 297.856 31.404H303.232C303.728 31.404 303.968 31.756 303.968 32.108C303.968 32.46 303.728 32.812 303.232 32.812ZM304.976 38.38C304.928 39.244 304.272 39.996 303.2 40.028C302.272 40.06 301.344 40.076 300.432 40.076C299.536 40.076 298.64 40.06 297.744 40.028C296.576 39.98 295.984 39.324 295.936 38.396C295.92 38.108 295.92 37.772 295.92 37.436C295.92 36.988 295.92 36.524 295.936 36.156C295.968 35.404 296.432 34.62 297.712 34.572C298.384 34.556 299.2 34.54 300.064 34.54C301.12 34.54 302.256 34.556 303.28 34.572C304.256 34.588 304.928 35.292 304.976 36.012C304.992 36.348 305.008 36.748 305.008 37.164C305.008 37.564 304.992 37.98 304.976 38.38ZM302.704 38.652C303.44 38.62 303.44 38.108 303.44 37.388C303.44 36.188 303.408 35.9 302.672 35.884C302.08 35.868 301.392 35.852 300.672 35.852C299.808 35.852 298.928 35.868 298.176 35.884C297.44 35.9 297.424 36.396 297.424 37.292C297.424 38.476 297.568 38.636 298.192 38.652C298.88 38.668 299.632 38.684 300.4 38.684C301.184 38.684 301.968 38.668 302.704 38.652ZM319.36 36.972L319.264 37.132C319.04 37.5 318.8 37.932 318.512 38.428C317.856 39.58 316.336 38.684 317.04 37.628C317.248 37.308 317.392 37.148 317.52 36.988C318.24 35.9 319.152 34.332 319.648 33.084L319.68 32.7C319.632 32.684 319.568 32.684 319.472 32.732C319.056 32.924 318.704 33.18 318.32 33.42C317.168 34.14 316.64 32.54 317.552 32.108C318.144 31.836 319.008 31.42 319.824 31.084C319.936 29.916 320.032 28.908 320.096 28.22C320.192 27.1 321.808 27.324 321.664 28.268C321.584 28.844 321.472 29.628 321.36 30.556C321.984 30.572 322.416 31.34 321.696 32.364C321.616 32.476 321.376 32.924 321.056 33.5V33.58C321.536 33.228 322 32.924 322.432 32.7C325.28 31.18 327.824 31.708 328.976 33.02C330.144 34.332 329.872 36.492 327.456 38.236C326.88 38.652 325.936 39.148 325.184 39.404C324.128 39.772 323.392 38.236 324.672 37.772C325.408 37.5 325.968 37.26 326.368 36.988C328.064 35.852 328.256 34.604 327.552 33.868C326.832 33.132 325.168 32.908 322.96 34.044C322.128 34.476 321.504 34.892 320.944 35.388C320.88 36.828 320.912 38.188 321.072 39.196C321.168 39.772 320.768 40.156 320.336 40.22C319.904 40.284 319.44 40.028 319.376 39.34C319.312 38.748 319.312 37.932 319.36 36.972ZM342 34.236L341.728 34.316C340.32 34.764 339.712 34.956 339.232 35.1C337.968 35.468 337.536 33.772 338.864 33.452C339.584 33.276 340.768 32.972 341.472 32.812L341.92 32.716V32.508C341.888 31.58 341.84 30.924 341.808 30.236C341.76 29.148 343.472 29.052 343.488 30.172C343.488 30.684 343.472 31.42 343.44 32.172L343.424 32.38C344.48 32.156 345.808 31.884 347.12 31.66C347.12 31.18 347.104 30.732 347.104 30.332C347.104 29.98 347.104 29.82 347.088 29.692C347.072 29.564 347.088 29.42 347.072 29.068C347.04 28.076 348.672 27.948 348.672 29.084C348.672 29.628 348.64 30.092 348.608 30.54C348.592 30.812 348.576 31.132 348.56 31.452C348.704 31.436 348.832 31.404 348.976 31.388C349.888 31.276 350.784 31.164 351.632 31.212C352.944 31.292 352.688 32.86 351.392 32.78C350.592 32.732 349.952 32.748 349.136 32.812C348.912 32.828 348.704 32.86 348.48 32.876C348.464 33.148 348.416 33.436 348.384 33.708C348.224 34.796 347.904 35.788 347.152 36.3C346.544 36.716 345.728 36.748 345.184 36.06C344.96 35.788 344.736 35.516 344.56 35.212C344.144 34.508 345.008 33.74 345.632 34.556C346.096 35.164 346.368 35.084 346.592 34.748C346.848 34.348 346.992 33.74 347.056 33.052C345.728 33.26 344.48 33.548 343.424 33.82C343.44 34.572 343.456 35.34 343.504 35.9C343.632 37.628 344.144 38.172 345.488 38.204C346.48 38.236 347.168 37.996 348.096 37.772C349.312 37.484 349.68 39.02 348.544 39.34C347.44 39.644 346.16 39.708 345.232 39.612C343.136 39.388 342.368 38.396 342.144 36.22C342.08 35.644 342.032 34.908 342 34.236ZM362.56 36.38C362.208 36.38 361.872 36.14 361.872 35.644C361.872 35.628 361.872 35.628 361.872 35.612C361.872 35.5 361.872 35.356 361.872 35.212C361.872 33.804 361.744 30.908 361.664 28.444C361.664 28.428 361.664 28.412 361.664 28.396C361.664 27.804 362.112 27.516 362.576 27.516C363.04 27.516 363.52 27.82 363.52 28.444C363.52 30.316 363.312 33.788 363.312 35.26C363.312 35.356 363.312 35.452 363.312 35.532C363.328 36.236 362.768 36.38 362.56 36.38ZM363.712 38.524C363.712 39.308 363.04 39.612 362.592 39.612C362.016 39.612 361.472 39.132 361.472 38.524C361.472 37.948 361.904 37.388 362.592 37.388C363.216 37.388 363.712 37.788 363.712 38.524Z" fill="#FA6564"/>
<path d="M168.272 67.356C168.272 68.956 168.416 70.412 168.704 71.724C168.992 73.036 169.392 74.172 169.904 75.132C170.448 76.092 171.088 76.844 171.824 77.388C172.56 77.9 173.392 78.156 174.32 78.156C175.216 78.156 176.032 77.9 176.768 77.388C177.536 76.844 178.176 76.092 178.688 75.132C179.2 74.172 179.6 73.036 179.888 71.724C180.176 70.412 180.32 68.956 180.32 67.356C180.32 65.788 180.176 64.348 179.888 63.036C179.6 61.692 179.2 60.556 178.688 59.628C178.176 58.668 177.536 57.932 176.768 57.42C176.032 56.876 175.216 56.604 174.32 56.604C173.392 56.604 172.56 56.876 171.824 57.42C171.088 57.932 170.448 58.668 169.904 59.628C169.392 60.556 168.992 61.692 168.704 63.036C168.416 64.348 168.272 65.788 168.272 67.356ZM158.96 67.356C158.96 64.476 159.328 61.868 160.064 59.532C160.832 57.164 161.888 55.148 163.232 53.484C164.608 51.82 166.224 50.54 168.08 49.644C169.968 48.716 172.048 48.252 174.32 48.252C176.56 48.252 178.624 48.716 180.512 49.644C182.4 50.54 184.016 51.82 185.36 53.484C186.704 55.148 187.744 57.164 188.48 59.532C189.248 61.868 189.632 64.476 189.632 67.356C189.632 70.236 189.248 72.86 188.48 75.228C187.744 77.564 186.704 79.58 185.36 81.276C184.016 82.94 182.4 84.236 180.512 85.164C178.624 86.06 176.56 86.508 174.32 86.508C172.048 86.508 169.968 86.06 168.08 85.164C166.224 84.236 164.608 82.94 163.232 81.276C161.888 79.58 160.832 77.564 160.064 75.228C159.328 72.86 158.96 70.236 158.96 67.356ZM221.297 49.308L211.025 61.116H211.217C212.113 60.572 212.849 60.252 213.425 60.156C214.001 60.028 214.513 59.964 214.961 59.964C216.721 59.964 218.337 60.3 219.809 60.972C221.281 61.644 222.561 62.572 223.649 63.756C224.737 64.908 225.585 66.268 226.193 67.836C226.801 69.404 227.105 71.084 227.105 72.876C227.105 74.796 226.753 76.588 226.049 78.252C225.345 79.884 224.321 81.324 222.977 82.572C221.665 83.788 220.065 84.748 218.177 85.452C216.289 86.156 214.161 86.508 211.793 86.508C209.393 86.508 207.249 86.156 205.361 85.452C203.473 84.748 201.857 83.788 200.513 82.572C199.201 81.356 198.193 79.948 197.489 78.348C196.785 76.716 196.433 74.988 196.433 73.164C196.433 71.116 196.881 68.908 197.777 66.54C198.705 64.14 200.113 61.788 202.001 59.484L210.401 49.308H221.297ZM205.745 73.068C205.745 73.9 205.905 74.684 206.225 75.42C206.545 76.124 206.977 76.748 207.521 77.292C208.065 77.836 208.689 78.268 209.393 78.588C210.129 78.908 210.913 79.068 211.745 79.068C212.577 79.068 213.345 78.908 214.049 78.588C214.785 78.268 215.425 77.836 215.969 77.292C216.513 76.748 216.945 76.124 217.265 75.42C217.585 74.684 217.745 73.9 217.745 73.068C217.745 72.236 217.585 71.468 217.265 70.764C216.945 70.028 216.513 69.388 215.969 68.844C215.425 68.3 214.785 67.868 214.049 67.548C213.345 67.228 212.577 67.068 211.745 67.068C210.913 67.068 210.129 67.228 209.393 67.548C208.689 67.868 208.065 68.3 207.521 68.844C206.977 69.388 206.545 70.028 206.225 70.764C205.905 71.468 205.745 72.236 205.745 73.068ZM232.85 69.036H246.626V76.284H232.85V69.036ZM277.303 49.308L267.031 61.116H267.223C268.119 60.572 268.855 60.252 269.431 60.156C270.007 60.028 270.519 59.964 270.967 59.964C272.727 59.964 274.343 60.3 275.815 60.972C277.287 61.644 278.567 62.572 279.655 63.756C280.743 64.908 281.591 66.268 282.199 67.836C282.807 69.404 283.111 71.084 283.111 72.876C283.111 74.796 282.759 76.588 282.055 78.252C281.351 79.884 280.327 81.324 278.983 82.572C277.671 83.788 276.071 84.748 274.183 85.452C272.295 86.156 270.167 86.508 267.799 86.508C265.399 86.508 263.255 86.156 261.367 85.452C259.479 84.748 257.863 83.788 256.519 82.572C255.207 81.356 254.199 79.948 253.495 78.348C252.791 76.716 252.439 74.988 252.439 73.164C252.439 71.116 252.887 68.908 253.783 66.54C254.711 64.14 256.119 61.788 258.007 59.484L266.407 49.308H277.303ZM261.751 73.068C261.751 73.9 261.911 74.684 262.231 75.42C262.551 76.124 262.983 76.748 263.527 77.292C264.071 77.836 264.695 78.268 265.399 78.588C266.135 78.908 266.919 79.068 267.751 79.068C268.583 79.068 269.351 78.908 270.055 78.588C270.791 78.268 271.431 77.836 271.975 77.292C272.519 76.748 272.951 76.124 273.271 75.42C273.591 74.684 273.751 73.9 273.751 73.068C273.751 72.236 273.591 71.468 273.271 70.764C272.951 70.028 272.519 69.388 271.975 68.844C271.431 68.3 270.791 67.868 270.055 67.548C269.351 67.228 268.583 67.068 267.751 67.068C266.919 67.068 266.135 67.228 265.399 67.548C264.695 67.868 264.071 68.3 263.527 68.844C262.983 69.388 262.551 70.028 262.231 70.764C261.911 71.468 261.751 72.236 261.751 73.068ZM308.406 70.86V56.604L300.102 70.86H308.406ZM317.142 70.86H321.51V78.06H317.142V85.5H308.406V78.06H290.934V72.012L304.758 49.308H317.142V70.86ZM354.568 57.276H342.04L341.416 61.26C341.992 61.196 342.52 61.148 343 61.116C343.48 61.052 343.976 61.02 344.488 61.02C346.312 61.02 348.008 61.34 349.576 61.98C351.144 62.62 352.488 63.5 353.608 64.62C354.728 65.74 355.608 67.084 356.248 68.652C356.888 70.22 357.208 71.932 357.208 73.788C357.208 75.74 356.84 77.5 356.104 79.068C355.4 80.636 354.392 81.98 353.08 83.1C351.768 84.188 350.168 85.02 348.28 85.596C346.392 86.204 344.296 86.508 341.992 86.508C339.816 86.508 337.736 86.236 335.752 85.692C333.8 85.18 331.96 84.38 330.232 83.292L331.624 74.46C333.224 75.836 334.856 76.892 336.52 77.628C338.184 78.332 339.768 78.684 341.272 78.684C343.192 78.684 344.712 78.172 345.832 77.148C346.952 76.092 347.512 74.796 347.512 73.26C347.512 71.468 346.76 70.028 345.256 68.94C343.752 67.82 341.784 67.26 339.352 67.26C338.264 67.26 337.144 67.388 335.992 67.644C334.84 67.868 333.704 68.236 332.584 68.748L335.608 49.308H354.568V57.276ZM375.385 67.356C375.385 68.956 375.529 70.412 375.817 71.724C376.105 73.036 376.505 74.172 377.017 75.132C377.561 76.092 378.201 76.844 378.937 77.388C379.673 77.9 380.505 78.156 381.433 78.156C382.329 78.156 383.145 77.9 383.881 77.388C384.649 76.844 385.289 76.092 385.801 75.132C386.313 74.172 386.713 73.036 387.001 71.724C387.289 70.412 387.433 68.956 387.433 67.356C387.433 65.788 387.289 64.348 387.001 63.036C386.713 61.692 386.313 60.556 385.801 59.628C385.289 58.668 384.649 57.932 383.881 57.42C383.145 56.876 382.329 56.604 381.433 56.604C380.505 56.604 379.673 56.876 378.937 57.42C378.201 57.932 377.561 58.668 377.017 59.628C376.505 60.556 376.105 61.692 375.817 63.036C375.529 64.348 375.385 65.788 375.385 67.356ZM366.073 67.356C366.073 64.476 366.441 61.868 367.177 59.532C367.945 57.164 369.001 55.148 370.345 53.484C371.721 51.82 373.337 50.54 375.193 49.644C377.081 48.716 379.161 48.252 381.433 48.252C383.673 48.252 385.737 48.716 387.625 49.644C389.513 50.54 391.129 51.82 392.473 53.484C393.817 55.148 394.857 57.164 395.593 59.532C396.361 61.868 396.745 64.476 396.745 67.356C396.745 70.236 396.361 72.86 395.593 75.228C394.857 77.564 393.817 79.58 392.473 81.276C391.129 82.94 389.513 84.236 387.625 85.164C385.737 86.06 383.673 86.508 381.433 86.508C379.161 86.508 377.081 86.06 375.193 85.164C373.337 84.236 371.721 82.94 370.345 81.276C369.001 79.58 367.945 77.564 367.177 75.228C366.441 72.86 366.073 70.236 366.073 67.356ZM402.538 69.036H416.314V76.284H402.538V69.036ZM447.999 57.276H435.471L434.847 61.26C435.423 61.196 435.951 61.148 436.431 61.116C436.911 61.052 437.407 61.02 437.919 61.02C439.743 61.02 441.439 61.34 443.007 61.98C444.575 62.62 445.919 63.5 447.039 64.62C448.159 65.74 449.039 67.084 449.679 68.652C450.319 70.22 450.639 71.932 450.639 73.788C450.639 75.74 450.271 77.5 449.535 79.068C448.831 80.636 447.823 81.98 446.511 83.1C445.199 84.188 443.599 85.02 441.711 85.596C439.823 86.204 437.727 86.508 435.423 86.508C433.247 86.508 431.167 86.236 429.183 85.692C427.231 85.18 425.391 84.38 423.663 83.292L425.055 74.46C426.655 75.836 428.287 76.892 429.951 77.628C431.615 78.332 433.199 78.684 434.703 78.684C436.623 78.684 438.143 78.172 439.263 77.148C440.383 76.092 440.943 74.796 440.943 73.26C440.943 71.468 440.191 70.028 438.687 68.94C437.183 67.82 435.215 67.26 432.783 67.26C431.695 67.26 430.575 67.388 429.423 67.644C428.271 67.868 427.135 68.236 426.015 68.748L429.039 49.308H447.999V57.276ZM484.416 49.308L474.144 61.116H474.336C475.232 60.572 475.968 60.252 476.544 60.156C477.12 60.028 477.632 59.964 478.08 59.964C479.84 59.964 481.456 60.3 482.928 60.972C484.4 61.644 485.68 62.572 486.768 63.756C487.856 64.908 488.704 66.268 489.312 67.836C489.92 69.404 490.224 71.084 490.224 72.876C490.224 74.796 489.872 76.588 489.168 78.252C488.464 79.884 487.44 81.324 486.096 82.572C484.784 83.788 483.184 84.748 481.296 85.452C479.408 86.156 477.28 86.508 474.912 86.508C472.512 86.508 470.368 86.156 468.48 85.452C466.592 84.748 464.976 83.788 463.632 82.572C462.32 81.356 461.312 79.948 460.608 78.348C459.904 76.716 459.552 74.988 459.552 73.164C459.552 71.116 460 68.908 460.896 66.54C461.824 64.14 463.232 61.788 465.12 59.484L473.52 49.308H484.416ZM468.864 73.068C468.864 73.9 469.024 74.684 469.344 75.42C469.664 76.124 470.096 76.748 470.64 77.292C471.184 77.836 471.808 78.268 472.512 78.588C473.248 78.908 474.032 79.068 474.864 79.068C475.696 79.068 476.464 78.908 477.168 78.588C477.904 78.268 478.544 77.836 479.088 77.292C479.632 76.748 480.064 76.124 480.384 75.42C480.704 74.684 480.864 73.9 480.864 73.068C480.864 72.236 480.704 71.468 480.384 70.764C480.064 70.028 479.632 69.388 479.088 68.844C478.544 68.3 477.904 67.868 477.168 67.548C476.464 67.228 475.696 67.068 474.864 67.068C474.032 67.068 473.248 67.228 472.512 67.548C471.808 67.868 471.184 68.3 470.64 68.844C470.096 69.388 469.664 70.028 469.344 70.764C469.024 71.468 468.864 72.236 468.864 73.068ZM526.449 85.5H497.313L506.289 76.188C508.657 73.724 510.513 71.644 511.857 69.948C513.201 68.22 514.193 66.764 514.833 65.58C515.505 64.396 515.921 63.436 516.081 62.7C516.241 61.964 516.321 61.34 516.321 60.828C516.321 60.284 516.225 59.756 516.033 59.244C515.873 58.732 515.617 58.284 515.265 57.9C514.913 57.484 514.481 57.164 513.969 56.94C513.489 56.684 512.913 56.556 512.241 56.556C510.961 56.556 509.953 56.972 509.217 57.804C508.513 58.636 508.161 59.676 508.161 60.924C508.161 61.276 508.209 61.788 508.305 62.46H498.033C498.033 60.348 498.369 58.428 499.041 56.7C499.745 54.972 500.721 53.484 501.969 52.236C503.217 50.988 504.689 50.028 506.385 49.356C508.113 48.684 510.001 48.348 512.049 48.348C514.065 48.348 515.921 48.668 517.617 49.308C519.345 49.948 520.833 50.844 522.081 51.996C523.329 53.148 524.305 54.524 525.009 56.124C525.713 57.692 526.065 59.404 526.065 61.26C526.065 63.244 525.633 65.084 524.769 66.78C523.937 68.444 522.593 70.156 520.737 71.916L514.737 77.532H526.449V85.5ZM543.666 67.356C543.666 68.956 543.81 70.412 544.098 71.724C544.386 73.036 544.786 74.172 545.298 75.132C545.842 76.092 546.482 76.844 547.218 77.388C547.954 77.9 548.786 78.156 549.714 78.156C550.61 78.156 551.426 77.9 552.162 77.388C552.93 76.844 553.57 76.092 554.082 75.132C554.594 74.172 554.994 73.036 555.282 71.724C555.57 70.412 555.714 68.956 555.714 67.356C555.714 65.788 555.57 64.348 555.282 63.036C554.994 61.692 554.594 60.556 554.082 59.628C553.57 58.668 552.93 57.932 552.162 57.42C551.426 56.876 550.61 56.604 549.714 56.604C548.786 56.604 547.954 56.876 547.218 57.42C546.482 57.932 545.842 58.668 545.298 59.628C544.786 60.556 544.386 61.692 544.098 63.036C543.81 64.348 543.666 65.788 543.666 67.356ZM534.354 67.356C534.354 64.476 534.722 61.868 535.458 59.532C536.226 57.164 537.282 55.148 538.626 53.484C540.002 51.82 541.618 50.54 543.474 49.644C545.362 48.716 547.442 48.252 549.714 48.252C551.954 48.252 554.018 48.716 555.906 49.644C557.794 50.54 559.41 51.82 560.754 53.484C562.098 55.148 563.138 57.164 563.874 59.532C564.642 61.868 565.026 64.476 565.026 67.356C565.026 70.236 564.642 72.86 563.874 75.228C563.138 77.564 562.098 79.58 560.754 81.276C559.41 82.94 557.794 84.236 555.906 85.164C554.018 86.06 551.954 86.508 549.714 86.508C547.442 86.508 545.362 86.06 543.474 85.164C541.618 84.236 540.002 82.94 538.626 81.276C537.282 79.58 536.226 77.564 535.458 75.228C534.722 72.86 534.354 70.236 534.354 67.356Z" fill="#FA6564"/>
</g>
<defs>
<clipPath id="clip0_129_631">
<rect width="583" height="113" rx="4" fill="white"/>
</clipPath>
<clipPath id="clip1_129_631">
<rect width="132" height="113" rx="2" fill="white"/>
</clipPath>
</defs>
</svg>
