<svg width="22" height="41" viewBox="0 0 22 41" fill="none" xmlns="http://www.w3.org/2000/svg">
<path d="M8.53446 3.04612C8.70037 2.62266 9.29963 2.62266 9.46554 3.04613L11.347 7.8483C11.4002 7.98404 11.51 8.08981 11.6476 8.13791L16.6494 9.8859C17.0961 10.042 17.0961 10.6738 16.6494 10.8299L11.6476 12.5779C11.51 12.626 11.4002 12.7318 11.347 12.8675L9.46554 17.6697C9.29963 18.0932 8.70037 18.0932 8.53446 17.6697L6.65297 12.8675C6.59978 12.7318 6.49 12.626 6.35238 12.5779L1.35061 10.8299C0.903885 10.6738 0.903885 10.042 1.35061 9.8859L6.35238 8.13791C6.49 8.08981 6.59978 7.98404 6.65297 7.8483L8.53446 3.04612Z" fill="#FFD711"/>
<path d="M17.8124 19.3648C17.8769 19.1907 18.1231 19.1907 18.1876 19.3648L19.0484 21.6913C19.0687 21.746 19.1119 21.7892 19.1666 21.8095L21.4931 22.6703C21.6672 22.7348 21.6672 22.981 21.4931 23.0455L19.1666 23.9064C19.1119 23.9266 19.0687 23.9698 19.0484 24.0245L18.1876 26.351C18.1231 26.5251 17.8769 26.5251 17.8124 26.351L16.9516 24.0245C16.9313 23.9698 16.8881 23.9266 16.8334 23.9064L14.5069 23.0455C14.3328 22.981 14.3328 22.7348 14.5069 22.6703L16.8334 21.8095C16.8881 21.7892 16.9313 21.746 16.9516 21.6913L17.8124 19.3648Z" fill="#FFD711"/>
<path d="M11.6192 30.8845C11.5417 30.7158 11.7158 30.5417 11.8845 30.6192L14.8454 31.9807C14.8985 32.0051 14.9595 32.0051 15.0125 31.9807L17.9734 30.6192C18.1421 30.5417 18.3163 30.7158 18.2387 30.8845L16.8772 33.8454C16.8528 33.8984 16.8528 33.9595 16.8772 34.0125L18.2387 36.9734C18.3163 37.1421 18.1421 37.3163 17.9734 37.2387L15.0125 35.8772C14.9595 35.8528 14.8985 35.8528 14.8454 35.8772L11.8845 37.2387C11.7158 37.3163 11.5417 37.1421 11.6192 36.9734L12.9807 34.0125C13.0051 33.9595 13.0051 33.8984 12.9807 33.8454L11.6192 30.8845Z" fill="#FFD711"/>
</svg>
