<svg width="22" height="41" viewBox="0 0 22 41" fill="none" xmlns="http://www.w3.org/2000/svg">
<path d="M12.5345 3.04612C12.7004 2.62266 13.2996 2.62266 13.4655 3.04613L15.347 7.8483C15.4002 7.98404 15.51 8.08981 15.6476 8.13791L20.6494 9.8859C21.0961 10.042 21.0961 10.6738 20.6494 10.8299L15.6476 12.5779C15.51 12.626 15.4002 12.7318 15.347 12.8675L13.4655 17.6697C13.2996 18.0932 12.7004 18.0932 12.5345 17.6697L10.653 12.8675C10.5998 12.7318 10.49 12.626 10.3524 12.5779L5.35061 10.8299C4.90389 10.6738 4.90388 10.042 5.35061 9.8859L10.3524 8.13791C10.49 8.08981 10.5998 7.98404 10.653 7.8483L12.5345 3.04612Z" fill="#FFD711"/>
<path d="M3.81243 19.3648C3.87686 19.1907 4.12314 19.1907 4.18757 19.3648L5.04845 21.6913C5.06871 21.746 5.11187 21.7892 5.16661 21.8095L7.4931 22.6703C7.66722 22.7348 7.66722 22.981 7.4931 23.0455L5.16661 23.9064C5.11187 23.9266 5.06871 23.9698 5.04845 24.0245L4.18757 26.351C4.12314 26.5251 3.87686 26.5251 3.81243 26.351L2.95155 24.0245C2.93129 23.9698 2.88813 23.9266 2.83339 23.9064L0.506901 23.0455C0.332777 22.981 0.332777 22.7348 0.506901 22.6703L2.83339 21.8095C2.88813 21.7892 2.93129 21.746 2.95155 21.6913L3.81243 19.3648Z" fill="#FFD711"/>
<path d="M3.76133 30.8845C3.68377 30.7158 3.85792 30.5417 4.0266 30.6192L6.98751 31.9807C7.04055 32.0051 7.10159 32.0051 7.15462 31.9807L10.1155 30.6192C10.2842 30.5417 10.4584 30.7158 10.3808 30.8845L9.01932 33.8454C8.99493 33.8984 8.99493 33.9595 9.01932 34.0125L10.3808 36.9734C10.4584 37.1421 10.2842 37.3163 10.1155 37.2387L7.15462 35.8772C7.10159 35.8528 7.04055 35.8528 6.98751 35.8772L4.0266 37.2387C3.85792 37.3163 3.68377 37.1421 3.76133 36.9734L5.12282 34.0125C5.1472 33.9595 5.1472 33.8984 5.12282 33.8454L3.76133 30.8845Z" fill="#FFD711"/>
</svg>
