<svg width="1440" height="705" viewBox="0 0 1440 705" fill="none" xmlns="http://www.w3.org/2000/svg">
<rect width="1440" height="679" transform="translate(0 26)" fill="#FFFAE0"/>
<g clip-path="url(#clip0_188_842)">
<path d="M1265.65 489H1174.42C1170.55 489 1167.4 492.134 1167.4 496C1167.4 499.866 1170.55 503 1174.42 503H1265.65C1269.52 503 1272.67 499.866 1272.67 496C1272.67 492.134 1269.52 489 1265.65 489Z" fill="#F8EDA3"/>
<path d="M1288.98 517H1197.75C1193.88 517 1190.74 520.134 1190.74 524C1190.74 527.866 1193.88 531 1197.75 531H1288.98C1292.86 531 1296 527.866 1296 524C1296 520.134 1292.86 517 1288.98 517Z" fill="#F8EDA3"/>
<path d="M1257.4 545H1166.18C1162.3 545 1159.16 548.134 1159.16 552C1159.16 555.866 1162.3 559 1166.18 559H1257.4C1261.28 559 1264.42 555.866 1264.42 552C1264.42 548.134 1261.28 545 1257.4 545Z" fill="#F8EDA3"/>
<path d="M1194.25 573H1103.02C1099.14 573 1096 576.134 1096 580C1096 583.866 1099.14 587 1103.02 587H1194.25C1198.12 587 1201.26 583.866 1201.26 580C1201.26 576.134 1198.12 573 1194.25 573Z" fill="#F8EDA3"/>
<mask id="mask0_188_842" style="mask-type:luminance" maskUnits="userSpaceOnUse" x="1220" y="531" width="43" height="14">
<path d="M1255.12 531H1227.05C1223.18 531 1220.04 534.134 1220.04 538C1220.04 541.866 1223.18 545 1227.05 545H1255.12C1259 545 1262.14 541.866 1262.14 538C1262.14 534.134 1259 531 1255.12 531Z" fill="white"/>
</mask>
<g mask="url(#mask0_188_842)">
<path fill-rule="evenodd" clip-rule="evenodd" d="M1220.04 528.725H1262.14V538C1262.14 534.134 1259 531 1255.12 531C1251.25 531 1248.11 534.134 1248.11 538C1248.11 541.866 1251.25 545 1255.12 545C1259 545 1262.14 541.866 1262.14 538V546.225H1220.04V538C1220.04 541.866 1223.18 545 1227.05 545C1230.93 545 1234.07 541.866 1234.07 538C1234.07 534.134 1230.93 531 1227.05 531C1223.18 531 1220.04 534.134 1220.04 538V528.725Z" fill="#F8EDA3"/>
</g>
<mask id="mask1_188_842" style="mask-type:luminance" maskUnits="userSpaceOnUse" x="1159" y="559" width="43" height="14">
<path d="M1194.25 559H1166.18C1162.3 559 1159.16 562.134 1159.16 566C1159.16 569.866 1162.3 573 1166.18 573H1194.25C1198.12 573 1201.26 569.866 1201.26 566C1201.26 562.134 1198.12 559 1194.25 559Z" fill="white"/>
</mask>
<g mask="url(#mask1_188_842)">
<path fill-rule="evenodd" clip-rule="evenodd" d="M1159.16 556.725H1201.26V566C1201.26 562.134 1198.12 559 1194.25 559C1190.37 559 1187.23 562.134 1187.23 566C1187.23 569.866 1190.37 573 1194.25 573C1198.12 573 1201.26 569.866 1201.26 566V574.225H1159.16V566C1159.16 569.866 1162.3 573 1166.18 573C1170.05 573 1173.19 569.866 1173.19 566C1173.19 562.134 1170.05 559 1166.18 559C1162.3 559 1159.16 562.134 1159.16 566V556.725Z" fill="#F8EDA3"/>
</g>
<mask id="mask2_188_842" style="mask-type:luminance" maskUnits="userSpaceOnUse" x="1190" y="503" width="43" height="14">
<path d="M1225.82 503H1197.75C1193.88 503 1190.74 506.134 1190.74 510C1190.74 513.866 1193.88 517 1197.75 517H1225.82C1229.7 517 1232.84 513.866 1232.84 510C1232.84 506.134 1229.7 503 1225.82 503Z" fill="white"/>
</mask>
<g mask="url(#mask2_188_842)">
<path fill-rule="evenodd" clip-rule="evenodd" d="M1190.74 500.725H1232.84V510C1232.84 506.134 1229.7 503 1225.82 503C1221.95 503 1218.81 506.134 1218.81 510C1218.81 513.866 1221.95 517 1225.82 517C1229.7 517 1232.84 513.866 1232.84 510V518.225H1190.74V510C1190.74 513.866 1193.88 517 1197.75 517C1201.63 517 1204.77 513.866 1204.77 510C1204.77 506.134 1201.63 503 1197.75 503C1193.88 503 1190.74 506.134 1190.74 510V500.725Z" fill="#F8EDA3"/>
</g>
</g>
<g clip-path="url(#clip1_188_842)">
<path d="M1278.6 0H913.684C898.181 0 885.614 12.5787 885.614 28.0952C885.614 43.6118 898.181 56.1905 913.684 56.1905H1278.6C1294.1 56.1905 1306.67 43.6118 1306.67 28.0952C1306.67 12.5787 1294.1 0 1278.6 0Z" fill="#F8EDA3"/>
<path d="M1371.93 112.381H1007.02C991.515 112.381 978.947 124.96 978.947 140.476C978.947 155.993 991.515 168.571 1007.02 168.571H1371.93C1387.43 168.571 1400 155.993 1400 140.476C1400 124.96 1387.43 112.381 1371.93 112.381Z" fill="#F8EDA3"/>
<path d="M1245.61 224.762H880.702C865.199 224.762 852.632 237.341 852.632 252.857C852.632 268.374 865.199 280.952 880.702 280.952H1245.61C1261.12 280.952 1273.68 268.374 1273.68 252.857C1273.68 237.341 1261.12 224.762 1245.61 224.762Z" fill="#F8EDA3"/>
<path d="M992.982 337.143H628.07C612.567 337.143 600 349.721 600 365.238C600 380.755 612.567 393.333 628.07 393.333H992.982C1008.49 393.333 1021.05 380.755 1021.05 365.238C1021.05 349.721 1008.49 337.143 992.982 337.143Z" fill="#F8EDA3"/>
<mask id="mask3_188_842" style="mask-type:luminance" maskUnits="userSpaceOnUse" x="1096" y="168" width="169" height="57">
<path d="M1236.49 168.571H1124.21C1108.71 168.571 1096.14 181.15 1096.14 196.667C1096.14 212.183 1108.71 224.762 1124.21 224.762H1236.49C1251.99 224.762 1264.56 212.183 1264.56 196.667C1264.56 181.15 1251.99 168.571 1236.49 168.571Z" fill="white"/>
</mask>
<g mask="url(#mask3_188_842)">
<path fill-rule="evenodd" clip-rule="evenodd" d="M1096.14 159.44H1264.56V196.667C1264.56 181.15 1251.99 168.571 1236.49 168.571C1220.99 168.571 1208.42 181.15 1208.42 196.667C1208.42 212.183 1220.99 224.762 1236.49 224.762C1251.99 224.762 1264.56 212.183 1264.56 196.667V229.679H1096.14V196.667C1096.14 212.183 1108.71 224.762 1124.21 224.762C1139.71 224.762 1152.28 212.183 1152.28 196.667C1152.28 181.15 1139.71 168.571 1124.21 168.571C1108.71 168.571 1096.14 181.15 1096.14 196.667V159.44Z" fill="#F8EDA3"/>
</g>
<mask id="mask4_188_842" style="mask-type:luminance" maskUnits="userSpaceOnUse" x="852" y="280" width="170" height="58">
<path d="M992.982 280.952H880.702C865.199 280.952 852.632 293.531 852.632 309.048C852.632 324.564 865.199 337.143 880.702 337.143H992.982C1008.49 337.143 1021.05 324.564 1021.05 309.048C1021.05 293.531 1008.49 280.952 992.982 280.952Z" fill="white"/>
</mask>
<g mask="url(#mask4_188_842)">
<path fill-rule="evenodd" clip-rule="evenodd" d="M852.632 271.822H1021.05V309.048C1021.05 293.531 1008.48 280.952 992.982 280.952C977.48 280.952 964.912 293.531 964.912 309.048C964.912 324.564 977.48 337.143 992.982 337.143C1008.48 337.143 1021.05 324.564 1021.05 309.048V342.06H852.632V309.048C852.632 324.564 865.199 337.143 880.702 337.143C896.204 337.143 908.772 324.564 908.772 309.048C908.772 293.531 896.204 280.952 880.702 280.952C865.199 280.952 852.632 293.531 852.632 309.048V271.822Z" fill="#F8EDA3"/>
</g>
<mask id="mask5_188_842" style="mask-type:luminance" maskUnits="userSpaceOnUse" x="978" y="56" width="170" height="57">
<path d="M1119.3 56.1904H1007.02C991.515 56.1904 978.947 68.7691 978.947 84.2857C978.947 99.8022 991.515 112.381 1007.02 112.381H1119.3C1134.8 112.381 1147.37 99.8022 1147.37 84.2857C1147.37 68.7691 1134.8 56.1904 1119.3 56.1904Z" fill="white"/>
</mask>
<g mask="url(#mask5_188_842)">
<path fill-rule="evenodd" clip-rule="evenodd" d="M978.947 47.0596H1147.37V84.2858C1147.37 68.7692 1134.8 56.1905 1119.3 56.1905C1103.8 56.1905 1091.23 68.7692 1091.23 84.2858C1091.23 99.8021 1103.8 112.381 1119.3 112.381C1134.8 112.381 1147.37 99.8021 1147.37 84.2858V117.298H978.947V84.2858C978.947 99.8021 991.515 112.381 1007.02 112.381C1022.52 112.381 1035.09 99.8021 1035.09 84.2858C1035.09 68.7692 1022.52 56.1905 1007.02 56.1905C991.515 56.1905 978.947 68.7692 978.947 84.2858V47.0596Z" fill="#F8EDA3"/>
</g>
</g>
<g clip-path="url(#clip2_188_842)">
<path d="M478.877 624.137H186.947C174.545 624.137 164.491 614.059 164.491 601.627C164.491 589.195 174.545 579.117 186.947 579.117H478.877C491.279 579.117 501.333 589.195 501.333 601.627C501.333 614.059 491.279 624.137 478.877 624.137Z" fill="#F8EDA3"/>
<path d="M553.544 534.098H261.614C249.212 534.098 239.158 524.02 239.158 511.588C239.158 499.156 249.212 489.078 261.614 489.078H553.544C565.946 489.078 576 499.156 576 511.588C576 524.02 565.946 534.098 553.544 534.098Z" fill="#F8EDA3"/>
<path d="M452.491 444.059H160.561C148.159 444.059 138.105 433.981 138.105 421.549C138.105 409.117 148.159 399.039 160.561 399.039H452.491C464.893 399.039 474.947 409.117 474.947 421.549C474.947 433.981 464.893 444.059 452.491 444.059Z" fill="#F8EDA3"/>
<path d="M250.386 354.02H-41.5439C-53.946 354.02 -64 343.942 -64 331.51C-64 319.078 -53.946 309 -41.5439 309H250.386C262.788 309 272.842 319.078 272.842 331.51C272.842 343.942 262.788 354.02 250.386 354.02Z" fill="#F8EDA3"/>
<mask id="mask6_188_842" style="mask-type:luminance" maskUnits="userSpaceOnUse" x="332" y="444" width="136" height="46">
<path d="M445.193 489.078H355.368C342.966 489.078 332.912 479 332.912 466.568C332.912 454.137 342.966 444.059 355.368 444.059H445.193C457.595 444.059 467.649 454.137 467.649 466.568C467.649 479 457.595 489.078 445.193 489.078Z" fill="white"/>
</mask>
<g mask="url(#mask6_188_842)">
<path fill-rule="evenodd" clip-rule="evenodd" d="M332.912 496.394H467.649V466.568C467.649 479 457.595 489.078 445.193 489.078C432.791 489.078 422.737 479 422.737 466.568C422.737 454.137 432.791 444.059 445.193 444.059C457.595 444.059 467.649 454.137 467.649 466.568V440.119H332.912V466.568C332.912 454.137 342.967 444.059 355.368 444.059C367.77 444.059 377.825 454.137 377.825 466.568C377.825 479 367.77 489.078 355.368 489.078C342.967 489.078 332.912 479 332.912 466.568V496.394Z" fill="#F8EDA3"/>
</g>
<mask id="mask7_188_842" style="mask-type:luminance" maskUnits="userSpaceOnUse" x="138" y="354" width="135" height="46">
<path d="M250.386 399.039H160.561C148.159 399.039 138.105 388.961 138.105 376.529C138.105 364.097 148.159 354.02 160.561 354.02H250.386C262.788 354.02 272.842 364.097 272.842 376.529C272.842 388.961 262.788 399.039 250.386 399.039Z" fill="white"/>
</mask>
<g mask="url(#mask7_188_842)">
<path fill-rule="evenodd" clip-rule="evenodd" d="M138.105 406.355H272.842V376.529C272.842 388.961 262.788 399.039 250.386 399.039C237.984 399.039 227.93 388.961 227.93 376.529C227.93 364.098 237.984 354.02 250.386 354.02C262.788 354.02 272.842 364.098 272.842 376.529V350.08H138.105V376.529C138.105 364.098 148.159 354.02 160.561 354.02C172.963 354.02 183.018 364.098 183.018 376.529C183.018 388.961 172.963 399.039 160.561 399.039C148.159 399.039 138.105 388.961 138.105 376.529V406.355Z" fill="#F8EDA3"/>
</g>
<mask id="mask8_188_842" style="mask-type:luminance" maskUnits="userSpaceOnUse" x="239" y="534" width="135" height="46">
<path d="M351.439 579.117H261.614C249.212 579.117 239.158 569.039 239.158 556.607C239.158 544.176 249.212 534.098 261.614 534.098H351.439C363.841 534.098 373.895 544.176 373.895 556.607C373.895 569.039 363.841 579.117 351.439 579.117Z" fill="white"/>
</mask>
<g mask="url(#mask8_188_842)">
<path fill-rule="evenodd" clip-rule="evenodd" d="M239.158 586.433H373.895V556.607C373.895 569.039 363.841 579.117 351.439 579.117C339.037 579.117 328.983 569.039 328.983 556.607C328.983 544.176 339.037 534.098 351.439 534.098C363.841 534.098 373.895 544.176 373.895 556.607V530.158H239.158V556.607C239.158 544.176 249.212 534.098 261.614 534.098C274.016 534.098 284.07 544.176 284.07 556.607C284.07 569.039 274.016 579.117 261.614 579.117C249.212 579.117 239.158 569.039 239.158 556.607V586.433Z" fill="#F8EDA3"/>
</g>
</g>
<defs>
<clipPath id="clip0_188_842">
<rect width="200" height="98" fill="white" transform="translate(1096 489)"/>
</clipPath>
<clipPath id="clip1_188_842">
<rect width="800" height="393.333" fill="white" transform="translate(600)"/>
</clipPath>
<clipPath id="clip2_188_842">
<rect width="640" height="315.137" fill="white" transform="matrix(1 0 0 -1 -64 624.137)"/>
</clipPath>
</defs>
</svg>
