<svg width="1440" height="679" viewBox="0 0 1440 679" fill="none" xmlns="http://www.w3.org/2000/svg">
<rect width="1440" height="679" fill="#FFFAE0"/>
<g clip-path="url(#clip0_188_842)">
<path d="M1278.6 13H913.684C898.181 13 885.614 25.5787 885.614 41.0952C885.614 56.6118 898.181 69.1905 913.684 69.1905H1278.6C1294.1 69.1905 1306.67 56.6118 1306.67 41.0952C1306.67 25.5787 1294.1 13 1278.6 13Z" fill="#F8EDA3"/>
<path d="M1371.93 125.381H1007.02C991.515 125.381 978.947 137.96 978.947 153.476C978.947 168.993 991.515 181.571 1007.02 181.571H1371.93C1387.43 181.571 1400 168.993 1400 153.476C1400 137.96 1387.43 125.381 1371.93 125.381Z" fill="#F8EDA3"/>
<path d="M1245.61 237.762H880.702C865.199 237.762 852.632 250.341 852.632 265.857C852.632 281.374 865.199 293.952 880.702 293.952H1245.61C1261.12 293.952 1273.68 281.374 1273.68 265.857C1273.68 250.341 1261.12 237.762 1245.61 237.762Z" fill="#F8EDA3"/>
<path d="M992.982 350.143H628.07C612.567 350.143 600 362.721 600 378.238C600 393.755 612.567 406.333 628.07 406.333H992.982C1008.49 406.333 1021.05 393.755 1021.05 378.238C1021.05 362.721 1008.49 350.143 992.982 350.143Z" fill="#F8EDA3"/>
<mask id="mask0_188_842" style="mask-type:luminance" maskUnits="userSpaceOnUse" x="1096" y="181" width="169" height="57">
<path d="M1236.49 181.571H1124.21C1108.71 181.571 1096.14 194.15 1096.14 209.667C1096.14 225.183 1108.71 237.762 1124.21 237.762H1236.49C1251.99 237.762 1264.56 225.183 1264.56 209.667C1264.56 194.15 1251.99 181.571 1236.49 181.571Z" fill="white"/>
</mask>
<g mask="url(#mask0_188_842)">
<path fill-rule="evenodd" clip-rule="evenodd" d="M1096.14 172.44H1264.56V209.667C1264.56 194.15 1251.99 181.571 1236.49 181.571C1220.99 181.571 1208.42 194.15 1208.42 209.667C1208.42 225.183 1220.99 237.762 1236.49 237.762C1251.99 237.762 1264.56 225.183 1264.56 209.667V242.679H1096.14V209.667C1096.14 225.183 1108.71 237.762 1124.21 237.762C1139.71 237.762 1152.28 225.183 1152.28 209.667C1152.28 194.15 1139.71 181.571 1124.21 181.571C1108.71 181.571 1096.14 194.15 1096.14 209.667V172.44Z" fill="#F8EDA3"/>
</g>
<mask id="mask1_188_842" style="mask-type:luminance" maskUnits="userSpaceOnUse" x="852" y="293" width="170" height="58">
<path d="M992.982 293.952H880.702C865.199 293.952 852.632 306.531 852.632 322.048C852.632 337.564 865.199 350.143 880.702 350.143H992.982C1008.49 350.143 1021.05 337.564 1021.05 322.048C1021.05 306.531 1008.49 293.952 992.982 293.952Z" fill="white"/>
</mask>
<g mask="url(#mask1_188_842)">
<path fill-rule="evenodd" clip-rule="evenodd" d="M852.632 284.822H1021.05V322.048C1021.05 306.531 1008.48 293.952 992.982 293.952C977.48 293.952 964.912 306.531 964.912 322.048C964.912 337.564 977.48 350.143 992.982 350.143C1008.48 350.143 1021.05 337.564 1021.05 322.048V355.06H852.632V322.048C852.632 337.564 865.199 350.143 880.702 350.143C896.204 350.143 908.772 337.564 908.772 322.048C908.772 306.531 896.204 293.952 880.702 293.952C865.199 293.952 852.632 306.531 852.632 322.048V284.822Z" fill="#F8EDA3"/>
</g>
<mask id="mask2_188_842" style="mask-type:luminance" maskUnits="userSpaceOnUse" x="978" y="69" width="170" height="57">
<path d="M1119.3 69.1904H1007.02C991.515 69.1904 978.947 81.7691 978.947 97.2857C978.947 112.802 991.515 125.381 1007.02 125.381H1119.3C1134.8 125.381 1147.37 112.802 1147.37 97.2857C1147.37 81.7691 1134.8 69.1904 1119.3 69.1904Z" fill="white"/>
</mask>
<g mask="url(#mask2_188_842)">
<path fill-rule="evenodd" clip-rule="evenodd" d="M978.947 60.0596H1147.37V97.2858C1147.37 81.7692 1134.8 69.1905 1119.3 69.1905C1103.8 69.1905 1091.23 81.7692 1091.23 97.2858C1091.23 112.802 1103.8 125.381 1119.3 125.381C1134.8 125.381 1147.37 112.802 1147.37 97.2858V130.298H978.947V97.2858C978.947 112.802 991.515 125.381 1007.02 125.381C1022.52 125.381 1035.09 112.802 1035.09 97.2858C1035.09 81.7692 1022.52 69.1905 1007.02 69.1905C991.515 69.1905 978.947 81.7692 978.947 97.2858V60.0596Z" fill="#F8EDA3"/>
</g>
</g>
<g clip-path="url(#clip1_188_842)">
<path d="M818.298 209H635.842C628.091 209 621.807 202.732 621.807 195C621.807 187.268 628.091 181 635.842 181H818.298C826.05 181 832.333 187.268 832.333 195C832.333 202.732 826.05 209 818.298 209Z" fill="#F8EDA3"/>
<path d="M864.965 153H682.509C674.757 153 668.474 146.732 668.474 139C668.474 131.268 674.757 125 682.509 125H864.965C872.716 125 879 131.268 879 139C879 146.732 872.716 153 864.965 153Z" fill="#F8EDA3"/>
<path d="M801.807 97H619.351C611.6 97 605.316 90.732 605.316 83C605.316 75.268 611.6 69 619.351 69H801.807C809.559 69 815.842 75.268 815.842 83C815.842 90.732 809.559 97 801.807 97Z" fill="#F8EDA3"/>
<path d="M675.491 41H493.035C485.284 41 479 34.732 479 27C479 19.268 485.284 13 493.035 13H675.491C683.243 13 689.526 19.268 689.526 27C689.526 34.732 683.243 41 675.491 41Z" fill="#F8EDA3"/>
<mask id="mask3_188_842" style="mask-type:luminance" maskUnits="userSpaceOnUse" x="727" y="97" width="85" height="28">
<path d="M797.246 125H741.105C733.354 125 727.07 118.732 727.07 111C727.07 103.268 733.354 97 741.105 97H797.246C804.997 97 811.281 103.268 811.281 111C811.281 118.732 804.997 125 797.246 125Z" fill="white"/>
</mask>
<g mask="url(#mask3_188_842)">
<path fill-rule="evenodd" clip-rule="evenodd" d="M727.07 129.55H811.281V111C811.281 118.732 804.997 125 797.246 125C789.494 125 783.21 118.732 783.21 111C783.21 103.268 789.494 97 797.246 97C804.997 97 811.281 103.268 811.281 111V94.55H727.07V111C727.07 103.268 733.354 97 741.105 97C748.856 97 755.14 103.268 755.14 111C755.14 118.732 748.856 125 741.105 125C733.354 125 727.07 118.732 727.07 111V129.55Z" fill="#F8EDA3"/>
</g>
<mask id="mask4_188_842" style="mask-type:luminance" maskUnits="userSpaceOnUse" x="605" y="41" width="85" height="28">
<path d="M675.491 69H619.351C611.6 69 605.316 62.732 605.316 55C605.316 47.268 611.6 41 619.351 41H675.491C683.243 41 689.526 47.268 689.526 55C689.526 62.732 683.243 69 675.491 69Z" fill="white"/>
</mask>
<g mask="url(#mask4_188_842)">
<path fill-rule="evenodd" clip-rule="evenodd" d="M605.316 73.55H689.526V55C689.526 62.7319 683.243 69 675.491 69C667.74 69 661.456 62.7319 661.456 55C661.456 47.2682 667.74 41 675.491 41C683.243 41 689.526 47.2682 689.526 55V38.55H605.316V55C605.316 47.2682 611.6 41 619.351 41C627.102 41 633.386 47.2682 633.386 55C633.386 62.7319 627.102 69 619.351 69C611.6 69 605.316 62.7319 605.316 55V73.55Z" fill="#F8EDA3"/>
</g>
<mask id="mask5_188_842" style="mask-type:luminance" maskUnits="userSpaceOnUse" x="668" y="153" width="85" height="28">
<path d="M738.649 181H682.509C674.757 181 668.474 174.732 668.474 167C668.474 159.268 674.757 153 682.509 153H738.649C746.4 153 752.684 159.268 752.684 167C752.684 174.732 746.4 181 738.649 181Z" fill="white"/>
</mask>
<g mask="url(#mask5_188_842)">
<path fill-rule="evenodd" clip-rule="evenodd" d="M668.474 185.55H752.684V167C752.684 174.732 746.4 181 738.649 181C730.898 181 724.614 174.732 724.614 167C724.614 159.268 730.898 153 738.649 153C746.4 153 752.684 159.268 752.684 167V150.55H668.474V167C668.474 159.268 674.757 153 682.509 153C690.26 153 696.544 159.268 696.544 167C696.544 174.732 690.26 181 682.509 181C674.757 181 668.474 174.732 668.474 167V185.55Z" fill="#F8EDA3"/>
</g>
</g>
<g clip-path="url(#clip2_188_842)">
<path d="M568.649 97H477.421C473.545 97 470.404 100.134 470.404 104C470.404 107.866 473.545 111 477.421 111H568.649C572.525 111 575.667 107.866 575.667 104C575.667 100.134 572.525 97 568.649 97Z" fill="#F8EDA3"/>
<path d="M591.982 125H500.754C496.879 125 493.737 128.134 493.737 132C493.737 135.866 496.879 139 500.754 139H591.982C595.858 139 599 135.866 599 132C599 128.134 595.858 125 591.982 125Z" fill="#F8EDA3"/>
<path d="M560.404 153H469.176C465.3 153 462.158 156.134 462.158 160C462.158 163.866 465.3 167 469.176 167H560.404C564.279 167 567.421 163.866 567.421 160C567.421 156.134 564.279 153 560.404 153Z" fill="#F8EDA3"/>
<path d="M497.246 181H406.018C402.142 181 399 184.134 399 188C399 191.866 402.142 195 406.018 195H497.246C501.121 195 504.263 191.866 504.263 188C504.263 184.134 501.121 181 497.246 181Z" fill="#F8EDA3"/>
<mask id="mask6_188_842" style="mask-type:luminance" maskUnits="userSpaceOnUse" x="523" y="139" width="43" height="14">
<path d="M558.123 139H530.053C526.177 139 523.035 142.134 523.035 146C523.035 149.866 526.177 153 530.053 153H558.123C561.999 153 565.14 149.866 565.14 146C565.14 142.134 561.999 139 558.123 139Z" fill="white"/>
</mask>
<g mask="url(#mask6_188_842)">
<path fill-rule="evenodd" clip-rule="evenodd" d="M523.035 136.725H565.14V146C565.14 142.134 561.998 139 558.123 139C554.247 139 551.105 142.134 551.105 146C551.105 149.866 554.247 153 558.123 153C561.998 153 565.14 149.866 565.14 146V154.225H523.035V146C523.035 149.866 526.177 153 530.053 153C533.928 153 537.07 149.866 537.07 146C537.07 142.134 533.928 139 530.053 139C526.177 139 523.035 142.134 523.035 146V136.725Z" fill="#F8EDA3"/>
</g>
<mask id="mask7_188_842" style="mask-type:luminance" maskUnits="userSpaceOnUse" x="462" y="167" width="43" height="14">
<path d="M497.246 167H469.176C465.3 167 462.158 170.134 462.158 174C462.158 177.866 465.3 181 469.176 181H497.246C501.121 181 504.263 177.866 504.263 174C504.263 170.134 501.121 167 497.246 167Z" fill="white"/>
</mask>
<g mask="url(#mask7_188_842)">
<path fill-rule="evenodd" clip-rule="evenodd" d="M462.158 164.725H504.263V174C504.263 170.134 501.121 167 497.246 167C493.37 167 490.228 170.134 490.228 174C490.228 177.866 493.37 181 497.246 181C501.121 181 504.263 177.866 504.263 174V182.225H462.158V174C462.158 177.866 465.3 181 469.176 181C473.051 181 476.193 177.866 476.193 174C476.193 170.134 473.051 167 469.176 167C465.3 167 462.158 170.134 462.158 174V164.725Z" fill="#F8EDA3"/>
</g>
<mask id="mask8_188_842" style="mask-type:luminance" maskUnits="userSpaceOnUse" x="493" y="111" width="43" height="14">
<path d="M528.825 111H500.754C496.879 111 493.737 114.134 493.737 118C493.737 121.866 496.879 125 500.754 125H528.825C532.7 125 535.842 121.866 535.842 118C535.842 114.134 532.7 111 528.825 111Z" fill="white"/>
</mask>
<g mask="url(#mask8_188_842)">
<path fill-rule="evenodd" clip-rule="evenodd" d="M493.737 108.725H535.842V118C535.842 114.134 532.7 111 528.825 111C524.949 111 521.807 114.134 521.807 118C521.807 121.866 524.949 125 528.825 125C532.7 125 535.842 121.866 535.842 118V126.225H493.737V118C493.737 121.866 496.879 125 500.754 125C504.63 125 507.772 121.866 507.772 118C507.772 114.134 504.63 111 500.754 111C496.879 111 493.737 114.134 493.737 118V108.725Z" fill="#F8EDA3"/>
</g>
</g>
<defs>
<clipPath id="clip0_188_842">
<rect width="800" height="393.333" fill="white" transform="translate(600 13)"/>
</clipPath>
<clipPath id="clip1_188_842">
<rect width="400" height="196" fill="white" transform="matrix(1 0 0 -1 479 209)"/>
</clipPath>
<clipPath id="clip2_188_842">
<rect width="200" height="98" fill="white" transform="translate(399 97)"/>
</clipPath>
</defs>
</svg>
