<svg width="66" height="61" viewBox="0 0 66 61" fill="none" xmlns="http://www.w3.org/2000/svg">
<path d="M46.5 49.5C46.5 49.5 64 57 63 32.5" stroke="#FDBA6A" stroke-width="4" stroke-linecap="round"/>
<path d="M10.8852 6.2104C10.9923 5.44809 11.8845 5.08762 12.4911 5.56156L26.1398 16.2251C26.7464 16.6991 26.6125 17.6519 25.8988 17.9403L9.83948 24.4287C9.12573 24.7171 8.36747 24.1246 8.4746 23.3623L10.8852 6.2104Z" fill="#FDBA6A"/>
<path d="M42.752 5.56173C43.3586 5.08779 44.2508 5.44825 44.358 6.21056L46.7685 23.3625C46.8756 24.1248 46.1174 24.7172 45.4036 24.4289L29.3443 17.9405C28.6306 17.6521 28.4967 16.6992 29.1033 16.2253L42.752 5.56173Z" fill="#3F3D56"/>
<circle cx="28" cy="37" r="22.5" fill="#FDBA6A" stroke="#FDBA6A" stroke-width="3"/>
<path d="M27.134 20.5C27.5189 19.8333 28.4811 19.8333 28.866 20.5L40.9904 41.5C41.3753 42.1667 40.8942 43 40.1244 43H15.8756C15.1058 43 14.6247 42.1667 15.0096 41.5L27.134 20.5Z" fill="white"/>
<path d="M20.43 54.622V54.613C20.448 53.911 20.457 52.606 20.457 51.418C20.457 50.626 20.457 49.879 20.439 49.402C20.439 49.222 20.412 49.222 19.881 49.222C19.539 49.222 19.116 49.24 18.693 49.24C18.351 49.24 18.18 48.997 18.18 48.754C18.18 48.511 18.342 48.277 18.675 48.277C18.684 48.277 18.684 48.277 18.693 48.277C19.233 48.286 20.187 48.295 21.123 48.295C21.888 48.295 22.653 48.286 23.166 48.277C23.517 48.268 23.634 48.565 23.634 48.763C23.634 49.006 23.49 49.24 23.202 49.24C23.184 49.24 23.175 49.24 23.166 49.24C22.86 49.222 22.599 49.222 22.383 49.222C21.492 49.222 21.492 49.222 21.492 49.402C21.474 50.014 21.465 50.887 21.465 51.769C21.465 52.849 21.483 53.947 21.51 54.613C21.528 54.928 21.249 55.081 20.97 55.081C20.7 55.081 20.43 54.928 20.43 54.622ZM28.7135 55.171C26.7335 55.171 25.2485 53.776 25.2485 51.679C25.2485 49.654 26.7335 48.187 28.7135 48.187C30.6935 48.187 32.1875 49.654 32.1875 51.679C32.1875 53.776 30.6935 55.171 28.7135 55.171ZM28.7135 54.226C30.0455 54.226 31.1255 53.227 31.1255 51.679C31.1255 50.122 30.0455 49.114 28.7135 49.114C27.3815 49.114 26.3015 50.122 26.3015 51.679C26.3015 53.227 27.3815 54.226 28.7135 54.226ZM35.3905 54.577C35.3815 54.919 35.1295 55.072 34.8685 55.072C34.6165 55.072 34.3555 54.91 34.3555 54.613C34.3555 54.604 34.3555 54.595 34.3555 54.586C34.3915 53.884 34.4005 53.092 34.4005 52.327C34.4005 51.4 34.3825 50.518 34.3825 49.888C34.3825 48.781 34.3915 48.187 36.1555 48.187C36.3445 48.187 36.5245 48.196 36.6595 48.205C38.0815 48.295 38.7385 49.258 38.7385 50.23C38.7385 51.229 38.0455 52.246 36.7855 52.372C36.5695 52.399 36.3625 52.417 36.1375 52.417C35.9305 52.417 35.7145 52.399 35.4805 52.345C35.4535 52.336 35.4355 52.336 35.4175 52.336C35.3725 52.336 35.3635 52.363 35.3635 52.435C35.3635 52.993 35.3905 53.632 35.3905 54.226C35.3905 54.343 35.3905 54.46 35.3905 54.577ZM36.5695 49.141C36.5695 49.141 36.3535 49.132 36.1375 49.132C35.4175 49.132 35.3365 49.231 35.3365 50.068C35.3365 50.383 35.3455 50.752 35.3455 51.067C35.3455 51.121 35.3455 51.166 35.3455 51.22C35.3455 51.409 35.5255 51.472 36.0835 51.472C36.2545 51.472 36.4435 51.463 36.6325 51.445C37.3165 51.382 37.7305 50.761 37.7305 50.185C37.7305 49.645 37.3795 49.141 36.5695 49.141Z" fill="white"/>
</svg>
